<svg width="628" height="413" viewBox="0 0 628 413" fill="none" xmlns="http://www.w3.org/2000/svg">
<g filter="url(#filter0_n_242_139)">
<path d="M44.988 182.149L126.368 83.3955L150.599 86.5958L188.546 101.683L206.834 108.541L229.694 106.255L245.238 96.6541H271.298L282.728 86.5958H296.444H310.616L327.075 78.8236H356.793L401.14 68.7654L459.204 60.0787L490.75 48.6489L500.351 62.8219L524.125 82.4811L562.529 105.341L558.872 123.628L551.099 143.288L558.872 163.404L542.87 196.779H558.872L593.618 192.664L597.276 213.695L578.988 250.27H531.44L536.469 299.19L524.125 332.565L477.949 321.592L429.486 325.707L403.426 328.907L373.252 312.906L345.363 317.478L350.392 356.796L338.505 365.94L306.959 370.512L287.3 351.767L277.699 331.651L271.298 303.305L275.413 265.358L245.238 249.813L95.2791 311.077L44.988 303.305L30.3579 250.728L44.988 182.149Z" fill="url(#paint0_linear_242_139)"/>
<g filter="url(#filter1_n_242_139)">
<path d="M197.976 104.832C200.314 106.858 203.182 103.842 205.754 102.942C211.624 100.894 215.982 102.288 221.467 104.509C224.308 100.459 228.499 95.6392 232.783 93.0727C236.485 90.853 242.23 90.2232 246.388 91.2218C250.546 92.2203 254.086 94.9882 258.677 94.4985C259.369 94.4249 261.957 93.8516 262.592 93.6249C263.388 93.3403 267.085 88.162 268.183 87.0291C276.605 78.3285 289.681 72.8358 299.814 82.0418C301.706 83.7629 301.163 85.0674 304.08 82.3661C309.532 77.3216 314.653 72.1554 322.421 70.7445C325.185 70.2419 327.533 70.5687 330.173 71.4516C335.342 73.1792 334.791 75.1192 341.214 74.7162C352.327 74.0159 366.109 74.5419 376.466 70.8447C378.846 69.9956 380.898 68.1809 383.357 67.2397C390.002 64.6924 400.49 61.1761 407.322 60.6425C407.544 60.6253 407.581 61.2924 407.872 61.326C409.671 61.5327 412.918 60.8079 414.83 60.8172C424.945 60.8567 434.075 61.9883 444.042 58.912C446.515 58.148 448.93 56.3131 451.511 55.4234C458.665 52.949 466.622 52.7158 473.517 50.603C477.844 49.2774 478.357 47.0473 481.646 44.9776C488.889 40.4244 497.968 42.8726 503.257 49.1563C506.029 52.4516 507.229 57.7279 509.785 61.2525C517.843 72.3618 544.441 83.5794 556.874 91.9241C562.675 95.8176 567.168 99.1168 569.938 105.838C575.448 119.203 570.53 130.034 561.833 140.352C565.039 144.737 570.958 144.858 574.868 148.239C579.291 152.066 578.815 156.691 576.138 161.38C575.073 163.244 571.885 166.354 571.351 167.956C570.816 169.558 571.129 171.999 570.818 173.83C570.421 176.157 569.077 181.207 568.303 183.466C568.066 184.157 565.731 188.281 566.063 188.514C567.732 187.939 569.413 187.276 571.036 186.573C580.102 182.648 586.136 177.362 596.852 181.429C610.461 186.597 611.897 202.587 607.403 214.696C602.718 227.323 593.243 247.118 585.185 257.735C579.602 265.091 561.399 263.955 552.942 265.558C546.978 266.69 541.141 269.518 535.065 270.097C535.251 271.234 535.272 272.418 535.546 273.543C538.081 283.944 548.221 286.634 547.81 299.972C547.528 309.154 537.934 322.759 532.481 330.139C523.956 341.685 517.559 349.392 501.61 345.657C495.278 344.175 488.461 340.617 482.332 339.352C474.425 337.721 470.025 337.954 463.007 332.679C462.119 332.013 459.776 329.36 459.257 329.412C458.029 329.531 455.186 333.914 454.134 335.052C442.37 347.803 434.12 358.993 415.135 350.512C409.123 347.825 402.213 344.159 396.248 341.134C390.893 338.419 380.73 334.146 377.619 329.282C376.435 327.433 376.139 325.385 374.907 323.8C367.813 327.099 359.759 327.24 352.076 327.446C352.731 329.709 353.454 331.893 354.406 334.056C355.559 336.685 363.468 348.899 363.016 350.326C362.934 350.587 361.202 352.137 360.724 352.829C359.182 355.071 358.252 357.578 356.373 359.721C354.493 361.865 344.933 371.121 342.857 372.431C338.383 375.261 326.958 376.031 321.533 376.127C317.768 376.194 312.269 373.52 308.409 373.416C306.214 373.357 303.47 374.104 301.239 373.702C299.719 373.426 293.527 370.616 291.687 369.796C290.456 369.248 284.813 366.73 284.237 366.165C281.878 363.855 279.622 357.011 277.274 354.203C276.614 353.414 274.861 352.78 274.687 352.388C274.262 351.423 276.006 345.946 275.527 344.94C275.19 344.233 272.509 343.434 271.756 342.941C258.992 334.526 258.61 318.715 260.166 304.847C261.049 296.983 264.601 292.137 262.492 283.894C261.648 280.595 261.27 282.543 258.923 281.663C258.151 281.374 256.259 279.798 255.191 279.215C252.082 277.515 253.134 278.619 250.476 275.899C247.818 273.179 244.606 271.022 243.266 267.458C241.17 268.782 238.448 270.085 236.019 270.615C231.301 271.652 225.082 271.346 220.631 272.612C218.262 273.288 216.183 275.856 213.934 276.86L217.012 296.357C217.542 305.787 218.529 324.573 204.993 324.859C195.593 325.061 192.29 316.59 191.416 308.585L190.472 280.415C187.822 279.508 184.975 278.371 183.028 276.251C182.482 275.656 181.47 273.603 181.342 273.507C180.583 272.94 180.765 273.808 180.681 274.144C179.009 280.66 179.043 285.242 172.77 289.537C166.432 293.874 159.178 292.715 153.017 297.092C150.205 299.09 147.582 302.717 144.807 304.971C138.911 309.766 130.466 312.917 123.018 310.204C121.808 309.762 117.999 307.375 117.281 307.508C116.373 307.676 113.115 310.623 112.005 311.365C80.1703 332.601 39.7084 320.468 26.5453 284.344C18.4576 262.148 23.241 232.421 29.3869 210.085C40.2383 170.637 69.1265 134.557 95.5063 104.048C101.227 97.4502 117.878 77.0138 125.344 74.843C134.652 72.1344 140.859 78.1815 148.884 81.6711C154.182 83.9718 161.029 86.5373 166.517 88.3921C174.821 91.1968 186.694 90.0785 192.951 96.1414C195.476 98.5876 196.186 103.289 197.973 104.836L197.976 104.832ZM138.164 199.077C142.975 179.702 150.331 162.45 160.335 145.248C167.179 133.48 175.359 122.21 182.155 110.504C182.959 109.118 185.265 105.789 182.919 104.835C177.025 103.596 170.878 103.004 165.073 101.384C159.237 99.7566 134.392 90.7407 131.087 87.1291C130.757 86.7682 130.564 85.9868 130.507 85.953C130.2 85.7647 127.28 88.0634 126.771 88.5166C122.311 92.479 116.79 99.1219 112.631 103.721C91.3879 127.211 66.9984 157.526 52.4123 185.535C37.2704 214.596 22.4309 267.424 53.5264 290.975C68.7645 302.518 84.2582 303.914 100.818 293.45C115.22 284.347 116.924 273.744 124.268 259.636C125.31 257.633 132.374 245.837 132.194 244.923C129.895 244.717 118.044 236.753 117.23 236.984C113.772 237.96 110.03 252.361 104.745 255.126C96.2668 259.565 87.4688 251.286 84.1953 244.039C76.8716 227.82 85.0086 202.93 94.0082 188.585C95.4157 186.341 100.816 178.553 102.75 177.477C104.684 176.402 108.362 176.159 109.336 178.583C110.956 182.616 108.37 200.452 108.256 206.221C108.233 207.44 107.886 213.131 108.739 213.585C109.956 214.232 116.963 210.664 118.559 209.89C125.267 206.636 131.62 202.626 138.163 199.073L138.164 199.077ZM512.288 82.6177C512.015 82.2608 512.225 81.4242 511.816 80.8794C511.681 80.7025 508.817 78.9676 508.129 78.369C500.29 71.579 496.26 62.5333 489.469 55.0013L487.279 56.9343C482.831 63.5931 477.131 69.8334 472.815 76.5276C471.581 78.4392 467.118 86.171 467.07 87.9907C467.023 89.8104 471.669 92.3774 473.145 93.6515C477.733 97.6029 479.807 99.1142 478.277 105.568C475.818 115.936 468.639 129.634 463.217 138.922C460.431 143.692 456.691 148.007 454.007 152.645C452.908 154.551 451.103 157.188 452.441 159.365C453.435 160.984 458.103 160.574 458.302 163.556L452.308 180.28C453.911 180.646 456.868 181.361 457.918 182.656C460.094 185.341 462.464 193.696 462.275 197.09C462.172 198.946 458.78 202.686 458.313 204.78L444.392 214.698C446.588 215.5 448.834 217.422 451.038 218.08C454.022 218.975 463.316 218.873 466.296 218.071C468.496 217.476 470.002 214.074 473.898 213.345C476.468 212.867 481.519 214.953 482.89 214.386C483.16 214.273 485.44 211.418 485.532 211.111C485.812 210.206 485.432 208.284 485.154 207.338C483.878 202.99 480.22 197.901 478.704 193.43C477.076 188.63 476.599 182.101 476.982 177.036C477.211 174.01 478.654 170.702 478.674 167.588C482.485 169.433 487.056 173.547 487.105 178.082L487.785 177.618C489.985 181.632 487.593 186.304 488.614 190.032C488.979 191.366 489.97 191.62 490.347 192.494C490.575 193.025 490.603 194.353 490.679 194.418C490.908 194.609 494.927 193.819 495.684 193.487C498.026 192.457 510.159 183.823 512.34 181.883C513.534 180.824 514.11 179.381 515.475 178.352C517.745 176.64 521.274 175.371 523.757 173.837C528.084 171.161 532.101 167.964 536.631 165.594C537.367 164.959 534.855 163.873 534.81 163.032C537.227 163.253 539.541 165.383 540.434 161.921C541.121 159.266 539.203 158.097 536.964 157.457C534.563 156.772 522.04 156.697 519.921 157.636C517.802 158.574 515.592 161.981 512.479 162.826C509.197 163.716 501.532 161.378 498.722 159.42C496.518 157.884 495.437 155.821 493.722 153.995C493.398 153.648 492.224 153.929 493.244 152.888C497.934 148.09 512.601 143.312 519.248 141.563C522.699 140.652 530.437 139.708 533.046 138.337C535.197 137.207 540.698 131.377 542.787 129.326C546.163 126.013 557.448 114.745 557.788 110.462C557.898 109.105 554.04 106.512 552.862 105.673C549.205 103.073 544.73 100.503 540.868 98.0787C534.324 93.9743 523.809 86.7129 517.193 83.7671C516.077 83.2716 512.503 82.9 512.288 82.6214L512.288 82.6177ZM475.993 61.9519C473.218 63.6501 468.854 65.3013 466.436 67.3195C465.704 67.928 466.651 68.5944 465.912 69.2075C465.351 67.4731 465.301 67.1996 463.544 66.7114C464.833 66.4833 464.716 65.6622 464.752 64.5083C460.483 64.6845 456.959 67.1015 453.118 68.5778C446.177 71.2412 434.778 73.3215 427.319 73.7674C418.567 74.2889 409.967 72.1117 401.165 73.7555C398.906 74.1786 398.454 74.2662 396.804 75.9847C393.265 79.68 380.863 96.8117 379.308 101.168C376.875 107.998 381.151 106.709 386.269 107.801L386.758 111.892L381.357 130.215C379.289 132.55 375.82 132.184 373.275 133.73C372.909 137.437 374.286 142.049 373.533 145.676C373.418 146.232 372.083 147.992 371.508 148.08C370.765 147.201 371.051 146.433 369.786 146.02C368.298 145.535 356.761 144.696 354.91 144.813C348.521 145.223 337.163 149.086 330.737 150.959C329.975 151.184 325.704 152.394 325.393 152.385C324.816 152.373 324.82 151.79 324.794 151.35C324.69 149.396 325.991 143.64 326.413 141.332C326.897 138.669 330.781 120.853 331.74 119.977C332.031 119.708 332.425 119.557 332.803 119.442C335.611 119.751 338.4 118.738 341.208 119.218C343.093 119.541 353.422 122.781 355.017 123.611C356.172 124.209 359.296 127.075 360.119 128.138C360.802 129.021 362.788 133.171 363.067 133.31C363.478 133.515 368.66 132.894 368.92 132.682C369.441 132.257 368.719 129.853 369.254 129.131L380.129 113.4C380.208 113.14 378.424 108.908 378.095 108.316C377.246 106.786 375.008 105.188 375.013 103.508C375.017 102.657 376.397 97.9237 376.781 96.9006C378.55 92.2001 382.088 87.4117 383.999 82.6295C384.2 82.1299 384.608 81.727 384.404 81.1261C381.433 81.8267 378.57 83.0697 375.591 83.7378C369.323 85.1473 361.522 86.5362 355.122 86.6862C352.875 86.7384 348.728 86.7871 347.155 85.8948L334.455 91.6118C333.804 91.6315 329.013 88.7174 328.203 88.1269C327.001 87.2505 323.462 83.2957 322.567 83.4176C321.848 83.5132 316.66 89.7255 315.85 90.8104C312.693 95.0427 309.93 100.053 306.81 104.367C306.697 105.236 309.969 107.448 310.581 109.202C312.829 115.64 310.984 121.525 308.375 127.386C304.112 136.954 297.264 145.069 291.627 153.809C290.77 155.135 285.678 163.033 285.665 163.777C285.655 164.424 287.06 164.849 287.552 165.081C290.019 166.247 299.132 168.501 299.618 171.252C300.028 173.581 295.385 183.444 294.561 186.516C292.996 192.343 294.821 192.11 295.825 196.751C296.052 197.8 295.781 198.861 295.957 199.656C297.25 205.566 299.111 211.284 299.745 217.353C300.1 217.819 301.789 216.875 302.294 216.65C305.648 215.158 311.709 210.637 314.509 209.883C318.044 208.931 322.845 208.971 326.605 208.318C337.573 206.424 347.025 201.659 357.528 198.813C358.711 198.494 361.075 197.341 361.536 198.614C371.877 191.545 383.647 185.738 393.888 178.623C406.933 169.563 418.614 158.356 431.671 149.276C439.264 146.954 445.487 141.132 453.58 140.575C453.181 137.738 453.31 134.926 451.24 132.687C449.426 130.724 449.083 131.634 447.264 131.449C433.98 130.086 420.497 130.168 407.127 130.261C405.108 129.038 404.972 129.286 404.788 126.828C404.363 121.076 404.63 111.72 411.443 110.14C420.239 108.098 425.65 113.026 428.348 120.999C436.076 120.377 441.722 119.857 447.198 113.966C450.954 109.922 460.283 94.8851 460.718 89.6796C461.128 84.7685 461.213 83.8881 463.743 79.4449C467.217 73.3435 472.721 68.2626 475.998 61.9587L475.993 61.9519ZM292.774 202.171L287.634 202.828L287.306 200.262C288.602 200.07 289.412 201.291 290.474 201.719C289.155 197.734 287.037 194.534 287.216 190.097C287.395 185.659 291.257 179.997 292.081 175.664C292.197 175.056 292.436 174.122 292.034 173.602C291.788 173.287 285.546 170.64 284.751 170.402C279.72 168.914 276.392 170.963 272.187 173.508C270.909 174.284 267.426 177.192 266.582 177.475C265.737 177.758 263.426 177.371 263.704 176.216C263.731 176.104 265.132 175.418 265.561 174.982C272.769 167.668 279.745 159.966 285.97 151.737C292.376 143.264 306.552 124.659 305.001 113.838C304.68 111.587 296.785 100.3 294.928 97.7688C293.685 96.073 290.27 91.341 288.751 90.3484C286.833 89.0971 281.936 91.5069 280.313 92.7667C278.3 94.3301 275.71 99.2326 273.378 101.632C267.02 108.18 263.139 109.464 253.87 108.066C250.757 107.598 243.234 103.858 241.612 104.016C239.77 104.2 237.752 106.805 236.535 108.21C231.625 113.876 227.297 121.303 222.969 127.499C221.575 129.498 216.344 135.257 216.24 137.211C216.171 138.484 218.113 140.658 219.041 141.551C220.925 143.359 223.155 144.13 223.733 147.258C222.591 159.11 218.39 170.906 216.647 182.499C216.412 184.074 215.373 188.648 216.741 189.451C217.915 190.14 224.16 191.383 224.298 191.758C224.877 193.341 222.875 197.907 222.416 199.865C221.308 204.6 220.487 209.474 220.619 214.361C225.709 217.632 231.382 219.885 236.781 222.591C237.803 222.707 245.681 219.054 246.491 218.156C248.249 216.199 246.36 215.493 245.567 213.784C242.487 207.151 242.702 201.534 244.034 194.493C245.566 192.842 247.837 193.302 249.642 193.116C253.966 192.671 265.803 191.151 266.462 197.5C266.996 202.641 266.549 208.58 267.033 213.851C267.153 215.168 267.499 219.516 267.928 220.386C268.356 221.257 274.979 223.493 276.102 223.551C277.372 223.616 279.719 220.846 280.67 219.761C283.42 216.63 286.94 212.023 289.313 208.577C289.788 207.886 293.342 202.55 292.78 202.159L292.774 202.171ZM191.039 255.422C193.371 255.154 201.131 258.353 202.605 258.034C203.814 257.771 207.18 253.885 208.681 252.783C213.99 248.891 219.939 247.955 226.334 247.216C228.698 246.944 231.735 247.552 234.061 246.274C236.213 245.092 238.869 238.695 238.105 236.308C237.341 233.92 231.646 229.92 229.519 228.55C226.379 226.522 215.82 222.042 214.403 219.858C212.613 217.094 212.415 214.555 212.968 211.436C213.85 206.453 216.088 201.364 217.006 196.343C216.737 194.702 210.108 194.546 210 190.962C209.917 188.207 211.159 181.693 211.672 178.665C213.268 169.198 215.779 159.824 217.485 150.366C217.433 148.679 213.482 146.557 212.151 144.898C211.53 144.127 210.584 142.945 210.415 141.974C210.207 140.788 211.547 136.232 212.08 134.973C213.567 131.455 217.373 128.796 216.79 124.814C216.367 121.917 215.344 118.935 213.475 116.662C210.913 113.549 210.475 114.945 207.899 117.185C198.637 125.239 189.756 136.312 179.605 143.282C179.021 143.681 178.202 143.52 177.68 144.11C176.842 145.053 173.903 155.721 173 158.027C164.894 178.755 145.195 200.339 132.388 218.937C130.298 221.969 124.273 230.105 126.977 233.648C129.029 236.334 137.069 238.422 140.154 240.137C142.308 241.865 140.649 244.212 139.713 246.112C135.633 254.395 129.92 262.458 125.752 270.72C124.659 272.886 119.734 283.695 119.858 285.366C119.931 286.376 123.956 287.152 124.892 287.26C128.692 287.711 129.588 287.071 132.543 284.902C139.912 279.493 148.98 269.452 158.487 268.211C161.258 267.849 165.128 269.485 166.996 267.045C167.61 266.243 166.799 265.357 166.865 265.296C166.973 265.201 167.629 265.344 167.862 265.091C168.022 264.914 167.94 264.125 168.301 263.598C168.89 262.743 171.17 260.757 171.077 260.086C168.412 257.284 163.794 257.031 162.309 252.974L164.503 232.278C164.902 231.342 176.353 226.009 178.168 225.232C179.526 224.648 182.536 223.117 183.737 222.904C184.185 222.824 184.4 222.954 184.588 223.348C185.69 228.405 186.383 233.504 186.978 238.656L191.038 255.441L191.039 255.422ZM452.944 144.385C443.651 146.539 435.255 152.232 427.52 157.643C401.966 175.519 378.721 197.127 349.705 209.635C339.13 214.196 327.337 217.786 316.192 220.778C307.212 223.19 295.368 224.771 287.129 228.743C284.872 229.83 284.213 234.807 283.924 237.183C282.851 246.045 284.039 255.544 288.735 263.232C290.868 266.725 293.999 263.839 296.479 262.511C296.664 262.412 296.605 261.916 296.941 261.743C297.33 261.544 300.498 260.258 300.848 260.168C301.698 259.959 303.796 259.933 304.032 260.993C304.062 263.034 304.931 264.845 305.167 266.834C305.358 268.447 305.568 276.921 305.111 278.047C304.117 280.484 303.664 278.837 303.296 278.649C301.224 277.589 297.795 278.411 295.658 278.711C294.987 278.804 294.245 278.488 293.745 278.575C292.171 278.85 290.614 284.33 289.954 285.851C288.519 289.162 287.647 291.717 286.426 295.034C284.933 299.091 283.364 303.109 282.126 307.26C281.412 308.389 280.251 305.877 280.578 305.077L282.66 296.754C278.007 302.249 275.587 311.485 279.24 318.086C284.423 317.002 291.117 313.254 296.31 313.329C296.882 313.338 298.204 313.438 298.452 313.999L297.252 328.554L293.335 351.34L295.309 353.558L328.288 364.43C331.412 364.401 338.528 359.203 340.902 357.015C341.476 356.487 344.24 353.674 344.552 353.22C344.838 352.803 345.14 352.246 345.021 351.723C340.791 344.875 336.354 336.994 334.382 329.133C333.111 324.063 333.175 318.872 332.792 313.685C332.606 311.208 330.64 304.235 333.487 302.972C335.881 301.908 340.527 301.124 343.235 300.584C347.846 299.666 353.21 298.809 357.883 298.32C359.058 298.196 364.199 298.356 364.755 298.012C368.117 290.996 370.585 283.59 373.614 276.434C376.082 270.603 379.704 264.837 380.974 258.633C380.867 257.534 369.332 262.524 368.452 262.846C363.352 264.695 354.318 268.414 349.238 268.869C348.939 268.896 346.625 268.778 346.508 268.711C346.231 268.552 343.638 265.961 343.499 265.576C342.567 263.008 343.324 259.825 342.724 257.174C342.736 254.292 344.111 246.16 345.537 243.798C346.963 241.437 359.182 237.356 362.372 236.303C377.146 231.425 392.392 227.995 407.616 224.802C407.721 223.927 407.374 224.218 407.047 224.024C401.169 220.521 394.769 218.974 394.227 210.643C393.608 201.105 403.647 192.082 411.088 187.616C419.929 182.31 430.101 178.502 440.398 177.525L445.373 163.836C444.988 158.369 444.906 155.827 447.851 151.193C449.355 148.829 451.56 146.842 452.944 144.381L452.944 144.385ZM551.998 169.041C550.432 169.719 549.542 168.717 548.302 168.472C546.422 168.101 540.359 167.058 538.843 167.603C532.734 169.791 522.365 179.027 516.489 183.1C510.445 187.29 504.18 191.207 498.159 195.395C497.47 195.875 496.464 195.914 495.807 196.554C494.427 197.906 495.003 200.131 494.718 201.668C494.526 202.707 493.609 204.437 493.602 205.139C493.577 206.754 496.145 206.881 496.129 207.689C494.585 211.634 491.637 215.955 494.337 220.062C487.267 221.473 480.09 224.794 473.114 221.606C472.65 221.393 472.469 220.76 472.335 220.702C471.837 220.486 469.711 221.844 469.12 222.236C462.515 226.618 452.755 234.143 446.661 239.28C441.77 243.406 441.473 252.295 442.095 258.269C442.195 259.223 442.405 260.11 442.871 260.95C447.368 260.513 451.679 259.242 456.148 258.529C463.847 257.302 472.526 253.528 480.061 252.513C480.678 252.43 482.637 252.87 482.8 253.417L471.571 307.194C471.599 308.112 476.076 309.853 477.046 310.233C486.563 313.946 497.539 316.667 507.534 318.755C509.721 318.636 516.065 311.366 517.703 309.44C520.334 306.346 524.109 301.867 526.401 298.629C527.014 297.763 527.513 296.759 527.83 295.741C524.078 288.134 517.746 280.379 515.899 271.968C514.455 265.399 513.709 254.138 515.122 247.554C515.206 247.159 516.134 244.264 516.247 244.122C517.086 243.067 527.24 240.676 529.197 240.306C539.459 238.375 550.383 237.744 560.799 236.58C563.261 236.307 571.037 235.69 572.747 234.874C573.875 234.334 577.073 226.447 577.988 224.7C581.262 218.437 585.565 211.987 588.31 205.55C588.867 204.243 591.468 197.03 590.528 196.217C590.436 196.139 588.329 195.83 588.149 195.853C586.656 196.051 582.967 198.053 581.169 198.7C567.508 203.641 551.412 209.762 537.191 212.338C536.286 212.502 532.745 213.085 532.202 212.807C530.593 210.468 528.861 209.797 528.896 206.591C528.968 199.921 541.22 183.543 545.459 177.706C546.821 175.83 549.382 171.29 550.777 169.906C551.234 169.452 552.118 169.653 551.994 169.034L551.998 169.041ZM456.522 196.78C457.792 194.98 457.331 193.65 456.689 191.519C455.425 187.326 453.332 186.28 449.213 185.351C436.468 182.483 424.181 186.696 413.556 193.499C408.454 196.763 396.823 206.344 402.596 213.114C406.394 217.574 420.077 219.724 425.682 218.761C436.425 216.914 450.326 205.562 456.521 196.777L456.522 196.78ZM441.659 234.277C433.838 233.023 426.424 231.198 419.071 228.231C412.299 231.481 405.787 233.88 398.235 234.585C397.007 234.7 390.768 234.412 390.358 235.289L389.393 242.809C394.142 243.527 399.176 243.118 403.886 243.968C404.929 244.155 406.372 244.232 406.337 245.539L393.992 310.665C403.913 315.622 414.036 320.369 424.368 324.478C426.614 324.621 431.291 320.978 433.119 319.479C434.672 318.206 443.831 309.836 444.019 308.708C444.325 306.866 439.7 299.706 438.648 297.427C432.589 284.334 425.78 257.947 432.36 244.441C433.498 242.105 438.276 241.24 440.612 240.565C441.322 240.019 441.36 235.469 441.656 234.278L441.659 234.277Z" fill="url(#paint1_linear_242_139)"/>
</g>
<path d="M67.3296 166.799C67.5596 166.963 66.5311 169.106 66.3394 169.504C64.4086 173.434 61.6419 177.247 59.606 181.172C50.4241 198.851 45.6236 219.101 39.9468 238.101L38.5287 242.13C37.9544 236.352 39.4323 230.367 40.6057 224.717C44.4175 206.366 50.9836 188.017 61.9241 172.71C62.8992 171.347 64.8134 168.572 65.9147 167.524C66.2243 167.231 66.9155 166.508 67.33 166.802L67.3296 166.799Z" fill="url(#paint2_linear_242_139)"/>
<g filter="url(#filter2_nn_242_139)">
<path d="M377.352 154.417C376.848 158.296 377.123 162.261 376.142 166.058C371.409 167.54 366.138 167.61 361.495 169.125C360.783 174.851 360.053 180.646 360.546 186.423C356.928 186.763 353.316 187.497 349.697 187.825C340.39 188.668 328.656 187.783 320.033 183.825C319.221 183.451 316.877 182.485 316.797 181.54C316.682 180.141 317.907 175.129 318.304 173.444C318.731 171.617 319.592 169.775 319.971 168.096C320.21 167.02 318.902 167.15 321.599 166.063C329.63 162.82 343.511 160.825 352.206 160.624C355.801 160.542 360.556 161.628 363.822 160.994C364.463 160.871 367.619 159.837 367.931 159.54C368.311 159.178 368.308 157.816 368.891 156.973C369.127 156.633 370.725 155.265 370.927 155.239L377.352 154.417Z" fill="url(#paint3_linear_242_139)"/>
</g>
<g filter="url(#filter3_nn_242_139)">
<path d="M399.303 149.054C408.116 148.573 417.199 146.352 425.879 148.777C425.596 149.246 425.241 149.593 424.801 149.922C419.268 154.044 408.663 160.385 402.326 162.983C401.415 163.356 397.383 165.006 396.823 164.947C395.802 164.839 395.66 160.517 395.708 159.522C395.779 158.095 398.338 149.528 399.304 149.058L399.303 149.054Z" fill="url(#paint4_linear_242_139)"/>
</g>
<path d="M313.409 226.41L311.131 228.116C305.169 231.016 299.151 233.744 292.819 235.793C291.157 237.042 292.354 238.349 292.229 239.294C292.166 239.765 291.551 240.149 291.448 240.689C291.291 241.53 290.615 246.874 290.098 246.914C289.976 246.926 289.131 245.918 288.4 246.765C288.078 243.899 285.952 235.174 288.002 233.057C289.024 232.001 292.496 230.871 294.005 230.42C298.452 229.094 304.211 227.936 308.822 226.989C310.251 226.694 311.964 226.315 313.408 226.403L313.409 226.41Z" fill="url(#paint5_linear_242_139)"/>
<path d="M299.718 338.235C299.814 336.185 301.022 315.271 302.177 315.168C302.328 315.152 303.246 315.908 303.222 316.307C302.612 322.456 302.909 330.292 301.125 336.189C300.899 336.934 300.728 338.225 299.715 338.239L299.718 338.235Z" fill="url(#paint6_linear_242_139)"/>
<path d="M361.321 268.421C361.627 269.442 361.183 269.062 360.573 269.311C357.74 270.476 348.09 273.691 345.391 273.827C344.983 273.849 343.78 274.01 343.692 273.469C343.546 272.563 359.886 269.369 361.321 268.421Z" fill="url(#paint7_linear_242_139)"/>
<path d="M478.179 300.873C478.102 300.831 477.348 299.539 477.323 299.378C477.17 298.241 478.084 294.034 478.337 292.569C479.419 286.37 481.07 279.528 482.687 273.432C482.931 272.513 482.396 271.275 483.636 270.699C483.31 279.652 482.348 289.41 479.851 298.044C479.711 298.524 478.998 301.325 478.175 300.874L478.179 300.873Z" fill="url(#paint8_linear_242_139)"/>
<path d="M493.204 225.814C494.104 226.553 491.339 227.168 490.974 227.229C487.566 227.81 481.212 228.141 477.683 228.122C476.227 228.114 470.096 227.711 469.036 227.324C468.406 227.095 467.951 226.369 468.23 226.016C468.552 225.61 477.092 226.563 478.565 226.554C482.741 226.528 487.308 225.821 491.511 225.649C491.811 225.637 493.116 225.739 493.207 225.813L493.204 225.814Z" fill="url(#paint9_linear_242_139)"/>
<path d="M517.515 299.203C517.363 297.89 519.144 296.793 518.914 295.516C518.696 294.309 515.191 291.234 515.655 290.484C518.615 291.195 520.555 294.052 522.642 296.129C522.68 296.956 518.109 299.616 517.515 299.203Z" fill="url(#paint10_linear_242_139)"/>
<path d="M575.735 206.378C575.807 206.444 576.365 208.093 576.351 208.248C576.258 209.386 571.808 210.104 571.587 209.838C571.134 209.299 570.333 206.89 570.93 206.332C571.296 205.987 575.536 206.195 575.735 206.378Z" fill="url(#paint11_linear_242_139)"/>
<path d="M168.906 210.46C168.602 209.599 167.658 209.75 166.854 209.677C166.196 208.996 173.955 194.373 174.976 192.637C176.089 190.749 179.961 184.257 181.695 183.606C182.888 183.159 184.452 183.011 184.888 184.437C185.771 190.91 184.839 197.486 184.971 204.007C184.065 206.029 171.409 208.879 168.906 210.46Z" fill="url(#paint12_linear_242_139)"/>
<path d="M531.529 122.763C519.786 125.951 507.545 127.404 496.113 131.769C495.536 131.316 496.926 127.91 497.19 127.145C498.725 122.747 500.947 118.526 502.753 114.235C503.14 112.85 501.263 113.668 500.74 112.526C502.886 112.233 505.338 112.005 507.496 112.129C514.202 112.51 525.257 117.546 530.634 121.572C531.08 121.903 531.572 122.105 531.526 122.768L531.529 122.763Z" fill="url(#paint13_linear_242_139)"/>
<path d="M260.43 140.035C261.427 140.65 261.98 141.561 262.743 142.392C261.565 142.841 262.489 143.264 262.319 143.749C261.559 145.917 254.497 152.238 252.393 153.907C251.898 154.298 249.164 156.357 248.812 156.141C246.923 154.998 248.751 153.182 249.07 151.999C250.109 148.157 248.171 144.438 245.839 141.553C245.045 140.568 246.997 139.897 247.685 139.678C251.436 138.486 256.945 137.875 260.427 140.035L260.43 140.035Z" fill="url(#paint14_linear_242_139)"/>
<path d="M239.578 213.141C240.73 212.613 243.312 212.809 244.246 213.783C244.319 214.386 239.843 217.761 239.002 217.6C237.468 217.307 238.365 213.696 239.578 213.141Z" fill="url(#paint15_linear_242_139)"/>
<path d="M401.138 305.497C401.024 305.627 397.967 305.189 398.049 304.283C401.018 293.466 402.527 282.063 405.443 271.271C406.026 269.114 406.523 266.491 407.866 264.711C407.761 268.646 406.879 272.517 406.55 276.429C406.107 281.717 406.456 288.804 405.195 293.91C405.025 294.596 404.074 294.687 403.558 295.291C401.811 297.335 401.221 302.822 401.142 305.504L401.138 305.497Z" fill="url(#paint16_linear_242_139)"/>
</g>
<defs>
<filter id="filter0_n_242_139" x="22.2695" y="42.6338" width="587.422" height="333.495" filterUnits="userSpaceOnUse" color-interpolation-filters="sRGB">
<feFlood flood-opacity="0" result="BackgroundImageFix"/>
<feBlend mode="normal" in="SourceGraphic" in2="BackgroundImageFix" result="shape"/>
<feTurbulence type="fractalNoise" baseFrequency="1.1612553596496582 1.1612553596496582" stitchTiles="stitch" numOctaves="3" result="noise" seed="9848" />
<feColorMatrix in="noise" type="luminanceToAlpha" result="alphaNoise" />
<feComponentTransfer in="alphaNoise" result="coloredNoise1">
<feFuncA type="discrete" tableValues="1 1 1 1 1 1 1 1 1 1 1 1 1 1 1 1 1 1 1 1 1 1 1 1 1 1 1 1 1 1 1 1 1 1 1 1 1 1 1 1 1 1 1 1 1 1 1 1 1 1 1 0 0 0 0 0 0 0 0 0 0 0 0 0 0 0 0 0 0 0 0 0 0 0 0 0 0 0 0 0 0 0 0 0 0 0 0 0 0 0 0 0 0 0 0 0 0 0 0 0 "/>
</feComponentTransfer>
<feComposite operator="in" in2="shape" in="coloredNoise1" result="noise1Clipped" />
<feFlood flood-color="rgba(131, 75, 222, 0.21)" result="color1Flood" />
<feComposite operator="in" in2="noise1Clipped" in="color1Flood" result="color1" />
<feMerge result="effect1_noise_242_139">
<feMergeNode in="shape" />
<feMergeNode in="color1" />
</feMerge>
</filter>
<filter id="filter1_n_242_139" x="22.2695" y="42.6338" width="587.422" height="333.495" filterUnits="userSpaceOnUse" color-interpolation-filters="sRGB">
<feFlood flood-opacity="0" result="BackgroundImageFix"/>
<feBlend mode="normal" in="SourceGraphic" in2="BackgroundImageFix" result="shape"/>
<feTurbulence type="fractalNoise" baseFrequency="1.1612553596496582 1.1612553596496582" stitchTiles="stitch" numOctaves="3" result="noise" seed="175" />
<feColorMatrix in="noise" type="luminanceToAlpha" result="alphaNoise" />
<feComponentTransfer in="alphaNoise" result="coloredNoise1">
<feFuncA type="discrete" tableValues="1 1 1 1 1 1 1 1 1 1 1 1 1 1 1 1 1 1 1 1 1 1 1 1 1 1 1 1 1 1 1 1 1 1 1 1 1 1 1 1 1 1 1 1 1 1 1 1 1 1 1 0 0 0 0 0 0 0 0 0 0 0 0 0 0 0 0 0 0 0 0 0 0 0 0 0 0 0 0 0 0 0 0 0 0 0 0 0 0 0 0 0 0 0 0 0 0 0 0 0 "/>
</feComponentTransfer>
<feComposite operator="in" in2="shape" in="coloredNoise1" result="noise1Clipped" />
<feFlood flood-color="rgba(0, 0, 0, 0.25)" result="color1Flood" />
<feComposite operator="in" in2="noise1Clipped" in="color1Flood" result="color1" />
<feMerge result="effect1_noise_242_139">
<feMergeNode in="shape" />
<feMergeNode in="color1" />
</feMerge>
</filter>
<filter id="filter2_nn_242_139" x="316.79" y="154.417" width="60.563" height="33.6987" filterUnits="userSpaceOnUse" color-interpolation-filters="sRGB">
<feFlood flood-opacity="0" result="BackgroundImageFix"/>
<feBlend mode="normal" in="SourceGraphic" in2="BackgroundImageFix" result="shape"/>
<feTurbulence type="fractalNoise" baseFrequency="1.1612553596496582 1.1612553596496582" stitchTiles="stitch" numOctaves="3" result="noise" seed="4124" />
<feColorMatrix in="noise" type="luminanceToAlpha" result="alphaNoise" />
<feComponentTransfer in="alphaNoise" result="coloredNoise1">
<feFuncA type="discrete" tableValues="1 1 1 1 1 1 1 1 1 1 1 1 1 1 1 1 1 1 1 1 1 1 1 1 1 1 1 1 1 1 1 1 1 1 1 1 1 1 1 1 1 1 1 1 1 1 1 1 1 1 1 0 0 0 0 0 0 0 0 0 0 0 0 0 0 0 0 0 0 0 0 0 0 0 0 0 0 0 0 0 0 0 0 0 0 0 0 0 0 0 0 0 0 0 0 0 0 0 0 0 "/>
</feComponentTransfer>
<feComposite operator="in" in2="shape" in="coloredNoise1" result="noise1Clipped" />
<feFlood flood-color="rgba(131, 75, 222, 0.21)" result="color1Flood" />
<feComposite operator="in" in2="noise1Clipped" in="color1Flood" result="color1" />
<feMerge result="effect1_noise_242_139">
<feMergeNode in="shape" />
<feMergeNode in="color1" />
</feMerge>
<feTurbulence type="fractalNoise" baseFrequency="1.1612553596496582 1.1612553596496582" stitchTiles="stitch" numOctaves="3" result="noise" seed="9434" />
<feColorMatrix in="noise" type="luminanceToAlpha" result="alphaNoise" />
<feComponentTransfer in="alphaNoise" result="coloredNoise1">
<feFuncA type="discrete" tableValues="1 1 1 1 1 1 1 1 1 1 1 1 1 1 1 1 1 1 1 1 1 1 1 1 1 1 1 1 1 1 1 1 1 1 1 1 1 1 1 1 1 1 1 1 1 1 1 1 1 1 1 0 0 0 0 0 0 0 0 0 0 0 0 0 0 0 0 0 0 0 0 0 0 0 0 0 0 0 0 0 0 0 0 0 0 0 0 0 0 0 0 0 0 0 0 0 0 0 0 0 "/>
</feComponentTransfer>
<feComposite operator="in" in2="effect1_noise_242_139" in="coloredNoise1" result="noise1Clipped" />
<feFlood flood-color="rgba(0, 0, 0, 0.25)" result="color1Flood" />
<feComposite operator="in" in2="noise1Clipped" in="color1Flood" result="color1" />
<feMerge result="effect2_noise_242_139">
<feMergeNode in="effect1_noise_242_139" />
<feMergeNode in="color1" />
</feMerge>
</filter>
<filter id="filter3_nn_242_139" x="395.7" y="147.664" width="30.1792" height="17.2849" filterUnits="userSpaceOnUse" color-interpolation-filters="sRGB">
<feFlood flood-opacity="0" result="BackgroundImageFix"/>
<feBlend mode="normal" in="SourceGraphic" in2="BackgroundImageFix" result="shape"/>
<feTurbulence type="fractalNoise" baseFrequency="1.1612553596496582 1.1612553596496582" stitchTiles="stitch" numOctaves="3" result="noise" seed="4124" />
<feColorMatrix in="noise" type="luminanceToAlpha" result="alphaNoise" />
<feComponentTransfer in="alphaNoise" result="coloredNoise1">
<feFuncA type="discrete" tableValues="1 1 1 1 1 1 1 1 1 1 1 1 1 1 1 1 1 1 1 1 1 1 1 1 1 1 1 1 1 1 1 1 1 1 1 1 1 1 1 1 1 1 1 1 1 1 1 1 1 1 1 0 0 0 0 0 0 0 0 0 0 0 0 0 0 0 0 0 0 0 0 0 0 0 0 0 0 0 0 0 0 0 0 0 0 0 0 0 0 0 0 0 0 0 0 0 0 0 0 0 "/>
</feComponentTransfer>
<feComposite operator="in" in2="shape" in="coloredNoise1" result="noise1Clipped" />
<feFlood flood-color="rgba(131, 75, 222, 0.21)" result="color1Flood" />
<feComposite operator="in" in2="noise1Clipped" in="color1Flood" result="color1" />
<feMerge result="effect1_noise_242_139">
<feMergeNode in="shape" />
<feMergeNode in="color1" />
</feMerge>
<feTurbulence type="fractalNoise" baseFrequency="1.1612553596496582 1.1612553596496582" stitchTiles="stitch" numOctaves="3" result="noise" seed="9434" />
<feColorMatrix in="noise" type="luminanceToAlpha" result="alphaNoise" />
<feComponentTransfer in="alphaNoise" result="coloredNoise1">
<feFuncA type="discrete" tableValues="1 1 1 1 1 1 1 1 1 1 1 1 1 1 1 1 1 1 1 1 1 1 1 1 1 1 1 1 1 1 1 1 1 1 1 1 1 1 1 1 1 1 1 1 1 1 1 1 1 1 1 0 0 0 0 0 0 0 0 0 0 0 0 0 0 0 0 0 0 0 0 0 0 0 0 0 0 0 0 0 0 0 0 0 0 0 0 0 0 0 0 0 0 0 0 0 0 0 0 0 "/>
</feComponentTransfer>
<feComposite operator="in" in2="effect1_noise_242_139" in="coloredNoise1" result="noise1Clipped" />
<feFlood flood-color="rgba(0, 0, 0, 0.25)" result="color1Flood" />
<feComposite operator="in" in2="noise1Clipped" in="color1Flood" result="color1" />
<feMerge result="effect2_noise_242_139">
<feMergeNode in="effect1_noise_242_139" />
<feMergeNode in="color1" />
</feMerge>
</filter>
<linearGradient id="paint0_linear_242_139" x1="313.817" y1="80.6523" x2="313.817" y2="349.938" gradientUnits="userSpaceOnUse">
<stop stop-color="white"/>
<stop offset="1" stop-color="#C6FFEF"/>
</linearGradient>
<linearGradient id="paint1_linear_242_139" x1="293.144" y1="53.1789" x2="334.291" y2="375.085" gradientUnits="userSpaceOnUse">
<stop stop-color="#0079EA"/>
<stop offset="1" stop-color="#2F27D0"/>
</linearGradient>
<linearGradient id="paint2_linear_242_139" x1="48.4224" y1="169.118" x2="57.4458" y2="239.712" gradientUnits="userSpaceOnUse">
<stop stop-color="#0079EA"/>
<stop offset="1" stop-color="#004FD8"/>
</linearGradient>
<linearGradient id="paint3_linear_242_139" x1="345.856" y1="158.443" x2="349.617" y2="187.873" gradientUnits="userSpaceOnUse">
<stop stop-color="#0079EA"/>
<stop offset="1" stop-color="#004FD8"/>
</linearGradient>
<linearGradient id="paint4_linear_242_139" x1="409.853" y1="147.705" x2="411.814" y2="163.042" gradientUnits="userSpaceOnUse">
<stop stop-color="#0079EA"/>
<stop offset="1" stop-color="#004FD8"/>
</linearGradient>
<linearGradient id="paint5_linear_242_139" x1="299.716" y1="228.003" x2="301.94" y2="245.4" gradientUnits="userSpaceOnUse">
<stop stop-color="#0079EA"/>
<stop offset="1" stop-color="#004FD8"/>
</linearGradient>
<linearGradient id="paint6_linear_242_139" x1="299.96" y1="315.451" x2="302.823" y2="337.849" gradientUnits="userSpaceOnUse">
<stop stop-color="#0079EA"/>
<stop offset="1" stop-color="#004FD8"/>
</linearGradient>
<linearGradient id="paint7_linear_242_139" x1="352.351" y1="269.567" x2="352.777" y2="272.898" gradientUnits="userSpaceOnUse">
<stop stop-color="#0079EA"/>
<stop offset="1" stop-color="#004FD8"/>
</linearGradient>
<linearGradient id="paint8_linear_242_139" x1="478.727" y1="271.326" x2="482.444" y2="300.403" gradientUnits="userSpaceOnUse">
<stop stop-color="#0079EA"/>
<stop offset="1" stop-color="#004FD8"/>
</linearGradient>
<linearGradient id="paint9_linear_242_139" x1="480.534" y1="224.4" x2="481.061" y2="228.523" gradientUnits="userSpaceOnUse">
<stop stop-color="#0079EA"/>
<stop offset="1" stop-color="#004FD8"/>
</linearGradient>
<linearGradient id="paint10_linear_242_139" x1="518.704" y1="290.094" x2="519.84" y2="298.979" gradientUnits="userSpaceOnUse">
<stop stop-color="#0079EA"/>
<stop offset="1" stop-color="#004FD8"/>
</linearGradient>
<linearGradient id="paint11_linear_242_139" x1="573.307" y1="205.959" x2="573.783" y2="209.689" gradientUnits="userSpaceOnUse">
<stop stop-color="#0079EA"/>
<stop offset="1" stop-color="#004FD8"/>
</linearGradient>
<linearGradient id="paint12_linear_242_139" x1="174.244" y1="184.416" x2="177.433" y2="209.37" gradientUnits="userSpaceOnUse">
<stop stop-color="#0079EA"/>
<stop offset="1" stop-color="#004FD8"/>
</linearGradient>
<linearGradient id="paint13_linear_242_139" x1="511.721" y1="111.12" x2="514.067" y2="129.474" gradientUnits="userSpaceOnUse">
<stop stop-color="#0079EA"/>
<stop offset="1" stop-color="#004FD8"/>
</linearGradient>
<linearGradient id="paint14_linear_242_139" x1="253.783" y1="138.518" x2="255.923" y2="155.259" gradientUnits="userSpaceOnUse">
<stop stop-color="#0079EA"/>
<stop offset="1" stop-color="#004FD8"/>
</linearGradient>
<linearGradient id="paint15_linear_242_139" x1="240.932" y1="212.845" x2="241.501" y2="217.298" gradientUnits="userSpaceOnUse">
<stop stop-color="#0079EA"/>
<stop offset="1" stop-color="#004FD8"/>
</linearGradient>
<linearGradient id="paint16_linear_242_139" x1="400.544" y1="265.647" x2="405.566" y2="304.942" gradientUnits="userSpaceOnUse">
<stop stop-color="#0079EA"/>
<stop offset="1" stop-color="#004FD8"/>
</linearGradient>
</defs>
</svg>
