<svg width="555" height="339" viewBox="0 0 555 339" fill="none" xmlns="http://www.w3.org/2000/svg">
<g filter="url(#filter0_n_242_147)">
<mask id="path-1-outside-1_242_147" maskUnits="userSpaceOnUse" x="128.021" y="2.00732" width="128.353" height="328.242" fill="black">
<rect fill="white" x="128.021" y="2.00732" width="128.353" height="328.242"/>
<path d="M170.907 139.58L176.164 168.179C173.626 188.453 170.907 208.573 169.286 228.958L175.982 240.542L187.07 236.052L198.052 221.358C189.884 192.797 182.342 164.056 174.974 135.275C178.459 117.564 180.327 99.4261 184.749 81.9582L204.728 73.4604C207.959 60.1063 210.109 46.4856 212.909 33.0629L239.796 22.8771C232.396 59.6336 224.43 96.2756 217.757 133.19C217.432 133.967 212.955 137.401 211.952 138.122C211.534 138.423 209.56 139.88 209.249 139.618L201.656 112.714L194.182 125.439L215.705 205.382L206.528 255.991L194.946 269.466C193.283 270.25 186.393 270.431 185.591 271.556C185.316 271.941 185.133 272.823 185.049 273.324C184.046 279.167 183.65 285.168 182.794 291.035C182.375 293.917 181.85 296.83 181.32 299.694L158.155 309.738L160.907 290.014L163.063 279.373L148.187 243.138C150.096 223.904 154.57 204.816 157.168 185.589"/>
</mask>
<path d="M170.907 139.58L176.164 168.179C173.626 188.453 170.907 208.573 169.286 228.958L175.982 240.542L187.07 236.052L198.052 221.358C189.884 192.797 182.342 164.056 174.974 135.275C178.459 117.564 180.327 99.4261 184.749 81.9582L204.728 73.4604C207.959 60.1063 210.109 46.4856 212.909 33.0629L239.796 22.8771C232.396 59.6336 224.43 96.2756 217.757 133.19C217.432 133.967 212.955 137.401 211.952 138.122C211.534 138.423 209.56 139.88 209.249 139.618L201.656 112.714L194.182 125.439L215.705 205.382L206.528 255.991L194.946 269.466C193.283 270.25 186.393 270.431 185.591 271.556C185.316 271.941 185.133 272.823 185.049 273.324C184.046 279.167 183.65 285.168 182.794 291.035C182.375 293.917 181.85 296.83 181.32 299.694L158.155 309.738L160.907 290.014L163.063 279.373L148.187 243.138C150.096 223.904 154.57 204.816 157.168 185.589" fill="#2A1E0E"/>
<path d="M176.164 168.179L190.951 170.03C191.141 168.517 191.097 166.984 190.821 165.484L176.164 168.179ZM169.286 228.958L154.43 227.776C154.19 230.788 154.872 233.801 156.384 236.416L169.286 228.958ZM175.982 240.542L163.08 248C166.798 254.433 174.687 257.144 181.575 254.355L175.982 240.542ZM187.07 236.052L192.663 249.866C195.185 248.845 197.379 247.153 199.007 244.974L187.07 236.052ZM198.052 221.358L209.99 230.28C212.776 226.552 213.66 221.736 212.381 217.261L198.052 221.358ZM174.974 135.275L160.352 132.398C159.924 134.575 159.987 136.821 160.537 138.97L174.974 135.275ZM184.749 81.9582L178.916 68.2445C174.632 70.0669 171.445 73.7872 170.303 78.3009L184.749 81.9582ZM204.728 73.4604L210.561 87.1741C214.897 85.33 218.105 81.5444 219.213 76.9652L204.728 73.4604ZM212.909 33.0629L207.629 19.1267C202.87 20.9298 199.359 25.0374 198.32 30.0199L212.909 33.0629ZM239.796 22.8771L254.406 25.8183C255.476 20.5017 253.574 15.0232 249.439 11.5142C245.303 8.00521 239.588 7.01964 234.517 8.94092L239.796 22.8771ZM217.757 133.19L231.502 138.951C231.921 137.951 232.229 136.908 232.422 135.841L217.757 133.19ZM211.952 138.122L203.25 126.024L203.24 126.031L211.952 138.122ZM209.249 139.618L194.906 143.665C195.716 146.534 197.367 149.094 199.647 151.015L209.249 139.618ZM201.656 112.714L215.999 108.666C214.377 102.919 209.481 98.6955 203.559 97.9331C197.636 97.1708 191.83 100.017 188.806 105.166L201.656 112.714ZM194.182 125.439L181.332 117.891C179.308 121.338 178.753 125.453 179.792 129.313L194.182 125.439ZM215.705 205.382L230.369 208.041C230.763 205.869 230.669 203.638 230.096 201.507L215.705 205.382ZM206.528 255.991L217.83 265.705C219.558 263.694 220.719 261.259 221.192 258.65L206.528 255.991ZM194.946 269.466L201.3 282.947C203.196 282.053 204.882 280.77 206.248 279.18L194.946 269.466ZM185.591 271.556L197.727 280.206L197.727 280.205L185.591 271.556ZM185.049 273.324L199.737 275.847C199.74 275.83 199.743 275.812 199.746 275.795L185.049 273.324ZM182.794 291.035L168.048 288.884L168.047 288.891L182.794 291.035ZM181.32 299.694L187.248 313.366C191.8 311.393 195.071 307.283 195.974 302.404L181.32 299.694ZM158.155 309.738L143.395 307.678C142.65 313.015 144.844 318.338 149.134 321.6C153.423 324.862 159.139 325.554 164.083 323.411L158.155 309.738ZM160.907 290.014L146.301 287.054C146.241 287.353 146.19 287.653 146.148 287.954L160.907 290.014ZM163.063 279.373L177.669 282.333C178.255 279.442 177.97 276.442 176.849 273.713L163.063 279.373ZM148.187 243.138L133.357 241.666C133.116 244.093 133.475 246.542 134.401 248.798L148.187 243.138ZM170.907 139.58L156.25 142.275L161.507 170.873L176.164 168.179L190.821 165.484L185.564 136.886L170.907 139.58ZM176.164 168.179L161.377 166.327C158.865 186.393 156.086 206.963 154.43 227.776L169.286 228.958L184.141 230.14C185.729 210.184 188.387 190.512 190.951 170.03L176.164 168.179ZM169.286 228.958L156.384 236.416L163.08 248L175.982 240.542L188.884 233.083L182.188 221.5L169.286 228.958ZM175.982 240.542L181.575 254.355L192.663 249.866L187.07 236.052L181.478 222.239L170.389 226.728L175.982 240.542ZM187.07 236.052L199.007 244.974L209.99 230.28L198.052 221.358L186.115 212.437L175.133 227.131L187.07 236.052ZM198.052 221.358L212.381 217.261C204.269 188.898 196.768 160.314 189.412 131.579L174.974 135.275L160.537 138.97C167.917 167.799 175.499 196.696 183.724 225.456L198.052 221.358ZM174.974 135.275L189.597 138.151C191.401 128.978 192.806 119.59 194.219 110.922C195.662 102.069 197.151 93.6943 199.196 85.6154L184.749 81.9582L170.303 78.3009C167.926 87.69 166.27 97.1184 164.802 106.129C163.303 115.324 162.032 123.86 160.352 132.398L174.974 135.275ZM184.749 81.9582L190.582 95.6719L210.561 87.1741L204.728 73.4604L198.895 59.7467L178.916 68.2445L184.749 81.9582ZM204.728 73.4604L219.213 76.9652C222.477 63.4738 224.933 48.4 227.497 36.106L212.909 33.0629L198.32 30.0199C195.285 44.5712 193.441 56.7389 190.243 69.9556L204.728 73.4604ZM212.909 33.0629L218.188 46.9991L245.076 36.8132L239.796 22.8771L234.517 8.94092L207.629 19.1267L212.909 33.0629ZM239.796 22.8771L225.187 19.9358C217.849 56.3849 209.799 93.4382 203.092 130.54L217.757 133.19L232.422 135.841C239.061 99.113 246.944 62.8822 254.406 25.8183L239.796 22.8771ZM217.757 133.19L204.013 127.43C204.383 126.548 204.769 125.873 205.027 125.454C205.298 125.014 205.545 124.668 205.721 124.432C206.063 123.976 206.347 123.66 206.472 123.524C206.615 123.368 206.716 123.268 206.748 123.236C206.786 123.199 206.795 123.191 206.767 123.217C206.708 123.272 206.583 123.383 206.383 123.553C206.189 123.718 205.96 123.908 205.703 124.117C205.188 124.537 204.632 124.973 204.147 125.347C203.907 125.532 203.696 125.692 203.528 125.817C203.445 125.88 203.377 125.931 203.325 125.969C203.271 126.009 203.248 126.026 203.25 126.024L211.952 138.122L220.653 150.221C221.437 149.657 223.044 148.433 224.514 147.237C225.249 146.639 226.136 145.897 226.941 145.157C227.329 144.801 227.879 144.279 228.44 143.667C228.548 143.549 230.345 141.71 231.502 138.951L217.757 133.19ZM211.952 138.122L203.24 126.031C203.044 126.172 202.981 126.22 202.828 126.327C202.764 126.372 202.709 126.41 202.663 126.441C202.616 126.473 202.598 126.484 202.606 126.479C202.608 126.478 202.683 126.43 202.817 126.355C202.928 126.292 203.241 126.118 203.7 125.915C204.012 125.776 205.158 125.272 206.777 124.978C207.607 124.827 209.13 124.624 211.034 124.843C212.976 125.067 216.006 125.824 218.851 128.221L209.249 139.618L199.647 151.015C202.531 153.445 205.612 154.221 207.618 154.452C209.585 154.679 211.183 154.47 212.097 154.305C213.886 153.98 215.239 153.402 215.787 153.159C217.032 152.607 218.052 151.976 218.514 151.684C219.096 151.316 219.614 150.96 219.966 150.712C220.152 150.582 220.314 150.466 220.439 150.376C220.501 150.331 220.555 150.292 220.595 150.263C220.617 150.247 220.63 150.237 220.644 150.227C220.65 150.223 220.655 150.22 220.658 150.217C220.662 150.215 220.663 150.214 220.663 150.214L211.952 138.122ZM209.249 139.618L223.591 135.57L215.999 108.666L201.656 112.714L187.314 116.761L194.906 143.665L209.249 139.618ZM201.656 112.714L188.806 105.166L181.332 117.891L194.182 125.439L207.032 132.986L214.506 120.261L201.656 112.714ZM194.182 125.439L179.792 129.313L201.315 209.256L215.705 205.382L230.096 201.507L208.572 121.564L194.182 125.439ZM215.705 205.382L201.042 202.723L191.865 253.332L206.528 255.991L221.192 258.65L230.369 208.041L215.705 205.382ZM206.528 255.991L195.226 246.277L183.645 259.752L194.946 269.466L206.248 279.18L217.83 265.705L206.528 255.991ZM194.946 269.466L188.593 255.986C189.286 255.659 189.837 255.475 190.106 255.39C190.402 255.297 190.61 255.246 190.687 255.228C190.821 255.197 190.796 255.208 190.51 255.255C189.828 255.365 189.204 255.439 187.883 255.624C186.879 255.764 185.25 255.999 183.694 256.37C182.932 256.553 181.683 256.883 180.321 257.462C179.622 257.76 178.625 258.234 177.538 258.96C176.499 259.653 174.885 260.9 173.454 262.908L185.591 271.556L197.727 280.205C196.396 282.073 194.93 283.186 194.081 283.752C193.184 284.351 192.419 284.706 191.989 284.889C191.53 285.084 191.174 285.2 190.986 285.258C190.787 285.319 190.657 285.351 190.62 285.36C190.562 285.374 190.644 285.352 190.934 285.304C191.209 285.257 191.556 285.206 192.009 285.142C192.525 285.07 192.875 285.025 193.498 284.939C194.026 284.866 194.653 284.778 195.282 284.676C195.888 284.577 196.68 284.437 197.513 284.241C197.938 284.141 198.466 284.005 199.046 283.823C199.599 283.649 200.399 283.371 201.3 282.947L194.946 269.466ZM185.591 271.556L173.455 262.907C171.66 265.426 171.001 268.002 170.874 268.466C170.602 269.459 170.439 270.34 170.353 270.854L185.049 273.324L199.746 275.795C199.743 275.808 199.714 275.997 199.624 276.327C199.577 276.496 199.467 276.881 199.266 277.392C199.107 277.794 198.649 278.912 197.727 280.206L185.591 271.556ZM185.049 273.324L170.362 270.802C169.779 274.194 169.389 277.536 169.056 280.515C168.709 283.621 168.43 286.264 168.048 288.884L182.794 291.035L197.541 293.187C198.015 289.939 198.361 286.649 198.677 283.826C199.006 280.877 199.316 278.298 199.737 275.847L185.049 273.324ZM182.794 291.035L168.047 288.891C167.672 291.465 167.193 294.133 166.666 296.983L181.32 299.694L195.974 302.404C196.506 299.527 197.078 296.37 197.542 293.18L182.794 291.035ZM181.32 299.694L175.391 286.021L152.226 296.065L158.155 309.738L164.083 323.411L187.248 313.366L181.32 299.694ZM158.155 309.738L172.914 311.798L175.667 292.074L160.907 290.014L146.148 287.954L143.395 307.678L158.155 309.738ZM160.907 290.014L175.513 292.974L177.669 282.333L163.063 279.373L148.458 276.414L146.301 287.054L160.907 290.014ZM163.063 279.373L176.849 273.713L161.973 237.479L148.187 243.138L134.401 248.798L149.277 285.033L163.063 279.373ZM148.187 243.138L163.017 244.611C163.912 235.594 165.421 226.488 167.098 216.938C168.747 207.545 170.587 197.572 171.936 187.584L157.168 185.589L142.4 183.593C141.151 192.833 139.456 202.018 137.741 211.784C136.054 221.393 134.372 231.449 133.357 241.666L148.187 243.138Z" fill="url(#paint0_linear_242_147)" mask="url(#path-1-outside-1_242_147)"/>
<path d="M79.812 105.006C81.512 104.467 83.3534 104.555 84.9996 105.262L86.0511 105.712C87.5001 106.334 88.7148 107.399 89.52 108.755L104.794 134.467C106.18 136.8 106.188 139.702 104.815 142.043L92.0018 163.883C91.7003 164.439 91.3259 164.967 90.8732 165.447C88.2362 168.244 83.9044 168.576 80.8722 166.213L71.408 158.839L65.5741 165.62C59.7167 195.576 54.6328 225.686 50.2108 255.92L51.586 257.778L79.6619 234.196C81.9963 232.235 85.2904 231.895 87.977 233.335C90.6634 234.777 92.2007 237.709 91.8586 240.738L87.5424 278.961C87.3676 280.509 86.7122 281.964 85.6684 283.12L62.8142 308.428C61.6809 309.683 60.1545 310.515 58.4856 310.788L36.5873 314.366C33.9375 314.799 31.2596 313.772 29.5777 311.679C27.1196 308.621 24.5082 305.638 21.7742 302.516C19.0757 299.434 16.2552 296.213 13.5703 292.865L13.5685 292.862C13.2456 292.459 12.2055 291.196 11.3037 289.98C10.8538 289.373 10.3204 288.622 9.86543 287.867C9.6407 287.494 9.3544 286.988 9.09955 286.41C8.91924 286.001 8.40184 284.802 8.34009 283.248L8.33955 283.241C8.26794 281.396 8.69517 279.889 8.87252 279.257C8.9615 278.94 8.98993 278.838 9.01211 278.758C9.68709 270.994 10.2515 261.449 11.0029 253.41L11.003 253.409C13.7467 224.078 18.6343 195.004 23.3819 166.302L23.4551 165.923C23.6476 165.044 23.9979 164.206 24.4901 163.451C30.1093 154.825 36.147 146.539 42.0755 138.435C48.041 130.281 53.888 122.321 59.3339 114.11L59.5021 113.868C60.3659 112.671 61.5672 111.755 62.9553 111.241L79.4738 105.122L79.812 105.006Z" fill="#2A1E0E" stroke="url(#paint1_linear_242_147)" stroke-width="14.9026" stroke-linejoin="round"/>
<path d="M332.02 53.8116C333.102 53.6711 334.204 53.769 335.247 54.1023L335.262 54.1072L335.546 54.2046C338.45 55.2625 340.412 58.0142 340.445 61.1255L340.63 78.3101C340.638 79.075 340.528 79.8369 340.304 80.5684L331.395 109.716C331.092 110.708 330.585 111.627 329.906 112.411C327.67 114.998 324.771 115.305 323.551 115.332C322.473 115.356 321.165 115.141 321.449 115.178C317.525 114.689 313.591 113.926 309.899 113.186C308.531 112.911 307.2 112.643 305.898 112.384L301.027 139.552L301.993 139.271C304.46 138.549 307.125 139.15 309.044 140.861C310.963 142.572 311.864 145.151 311.428 147.685L306.627 175.617C306.078 178.811 303.526 181.284 300.316 181.734L294.561 182.539L289.978 211.203L311.547 201.344C313.985 200.23 316.834 200.511 319.007 202.08C321.18 203.649 322.343 206.265 322.053 208.929L318.059 245.542C317.952 246.52 317.652 247.467 317.178 248.329L316.844 248.934C315.741 250.936 313.78 252.322 311.524 252.692L263.837 260.51C261.41 260.908 258.942 260.082 257.243 258.303C255.544 256.524 254.832 254.022 255.341 251.615C258.683 235.819 260.178 220.884 263.036 204.235L255.18 170.571C254.945 169.562 254.923 168.514 255.115 167.495L273.528 69.9521L273.586 69.673C274.241 66.8079 276.526 64.5843 279.428 64.02L331.557 53.8857L332.02 53.8116Z" fill="#2A1E0E" stroke="url(#paint2_linear_242_147)" stroke-width="14.9026" stroke-linejoin="round"/>
<path d="M273.871 65.2075C275.024 64.9147 276.261 64.8922 277.491 65.1965C281.3 66.1394 283.725 69.8754 283.037 73.7382C281.108 84.5575 279.128 95.1653 277.264 105.895L277.264 105.896C276.813 108.493 276.454 111.124 276.058 113.948C275.669 116.718 275.247 119.652 274.687 122.589C274.614 122.972 274.514 123.565 274.368 124.409C274.23 125.207 274.065 126.156 273.885 127.101C273.707 128.033 273.499 129.049 273.272 129.968C273.104 130.642 272.744 132.065 272.089 133.301L272.084 133.312C271.731 133.975 271.349 134.441 271.274 134.534C271.128 134.714 270.999 134.858 270.921 134.944C270.76 135.119 270.606 135.273 270.499 135.379C270.275 135.601 270.016 135.845 269.769 136.074C269.262 136.543 268.626 137.113 268.003 137.663C267.378 138.215 266.729 138.778 266.19 139.234C265.924 139.46 265.658 139.681 265.424 139.87C265.375 139.909 265.121 140.117 264.79 140.353C264.764 140.374 264.736 140.398 264.706 140.422C264.514 140.573 264.19 140.817 263.762 141.067C262.794 141.633 261.564 142.078 260.125 142.146C258.817 142.207 257.742 141.936 257.033 141.694C256.944 141.664 256.857 141.628 256.769 141.594L272.634 200.733C272.904 201.743 272.96 202.798 272.796 203.83L265.288 251.173C265.055 252.647 264.384 254.017 263.362 255.105L255.056 263.955C253.942 265.143 252.47 265.932 250.864 266.203L211.732 272.812C209.365 273.212 206.95 272.446 205.245 270.755C203.54 269.065 202.754 266.657 203.133 264.286L214.926 190.629C215.457 187.313 218.14 184.762 221.479 184.399C223.904 184.136 226.239 185.076 227.807 186.807L215.135 149.33C214.766 148.236 214.655 147.07 214.813 145.926C217.243 128.302 220.906 110.616 223.911 93.5792C224.066 92.6982 224.38 91.8525 224.835 91.0824L235.093 73.7238L235.323 73.3608C236.515 71.5845 238.42 70.4004 240.556 70.125C251.961 68.6547 262.997 67.3301 273.871 65.2075Z" fill="#2A1E0E" stroke="url(#paint3_linear_242_147)" stroke-width="14.9026" stroke-linejoin="round"/>
<path d="M414.07 62.2796C417.679 62.5107 420.602 65.2992 421.001 68.8932C421.043 69.2724 421.053 69.6493 421.038 70.0209C421.006 72.0258 421.453 74.3914 422.113 77.8614C422.698 80.9413 423.513 85.177 423.175 89.2749L423.174 89.2788C422.628 95.8659 421.45 102.565 420.297 108.918C419.123 115.394 417.979 121.486 417.323 127.385C417.231 128.217 416.999 129.027 416.638 129.782L403.134 157.968C403.439 158.186 403.769 158.422 404.129 158.673C405.754 159.805 408.214 161.454 410.16 163.307C410.89 164.002 411.471 164.838 411.869 165.763L412.196 166.525C412.685 167.663 412.883 168.906 412.771 170.14L410.252 197.89C409.62 206.226 408.295 214.509 407.182 222.269C407.132 222.62 407.133 223.014 407.102 224.345C407.079 225.324 407.034 227.162 406.531 229.005L406.532 229.006C406.266 229.984 405.781 230.961 405.608 231.316C405.321 231.904 404.967 232.587 404.587 233.297C403.822 234.727 402.848 236.465 401.869 238.175C400.038 241.373 397.777 245.19 396.856 246.446L396.852 246.45C396.882 246.41 396.895 246.388 396.787 246.551C396.713 246.661 396.521 246.953 396.29 247.262C395.799 247.92 394.895 248.997 393.43 249.863C392.845 250.208 392.216 250.471 391.56 250.646L358.981 259.331C356.583 259.971 354.024 259.375 352.155 257.741C352.148 257.734 352.059 257.657 352 257.604C351.93 257.543 351.788 257.415 351.624 257.254C351.307 256.941 350.624 256.23 350.076 255.135C349.485 253.957 349.304 252.856 349.257 252.061C349.219 251.428 349.266 250.89 349.282 250.713C349.606 246.941 349.856 243.154 350.114 239.283C350.37 235.437 350.632 231.507 350.971 227.572C351.031 226.878 351.15 226.284 351.256 225.839C351.358 225.414 351.473 225.026 351.526 224.845C351.543 224.788 351.556 224.745 351.567 224.709C354.954 186.603 359.28 148.476 364.071 110.548C365.296 100.839 366.203 89.992 367.941 79.6989L367.99 79.4369C368.544 76.7441 370.541 74.5662 373.193 73.789L411.433 62.5844C412.277 62.3289 413.168 62.2219 414.066 62.2794L414.07 62.2796Z" fill="#2A1E0E" stroke="url(#paint4_linear_242_147)" stroke-width="14.9026" stroke-linejoin="round"/>
<path d="M160.441 83.625C163.398 82.4174 166.795 83.229 168.888 85.6424C170.456 87.451 171.028 89.8572 170.537 92.1097C161.202 141.077 155.659 190.629 149.103 240.541C148.956 241.655 148.56 242.723 147.942 243.662L124.759 278.936C124.425 279.444 124.03 279.908 123.583 280.32C122.187 281.608 120.536 282.255 119.859 282.513C118.927 282.868 117.948 283.155 117.121 283.375C115.643 283.768 113.559 284.216 113.145 284.316L113.144 284.315C109.254 285.256 105.312 285.93 101.685 286.541C100.527 286.736 99.3398 286.655 98.2194 286.304C96.9251 285.898 96.0606 285.232 95.8453 285.068C95.493 284.798 95.2232 284.546 95.0665 284.393C94.7461 284.082 94.4749 283.773 94.2948 283.562C93.9145 283.117 93.506 282.593 93.1276 282.092C92.3509 281.065 91.4117 279.753 90.508 278.469C88.6897 275.885 86.8417 273.159 86.3532 272.429L86.3522 272.428C86.1992 272.2 84.3041 269.492 83.3064 267.974C82.6855 267.029 82.0095 265.959 81.4574 264.955C81.1837 264.457 80.877 263.861 80.6136 263.232C80.4176 262.765 79.9486 261.607 79.8433 260.179C79.8094 259.72 79.8186 259.258 79.8699 258.8C84.4863 217.637 89.4016 176.106 97.7085 135.158C97.9805 133.817 98.6168 132.577 99.5468 131.573L100.442 130.607L100.621 130.421C101.526 129.509 102.654 128.846 103.895 128.498L120.305 123.895C122.767 123.204 125.412 123.824 127.31 125.537C129.209 127.25 130.096 129.817 129.661 132.337L120.817 183.54L113.826 233.699L116.851 229.411L121.362 192.527L121.411 192.192L137.495 96.806L137.539 96.568C138.031 94.1295 139.712 92.0911 142.025 91.1464L160.441 83.625Z" fill="#2A1E0E" stroke="url(#paint5_linear_242_147)" stroke-width="14.9026" stroke-linejoin="round"/>
<path d="M523.994 25.1896C526.289 24.4344 528.807 24.838 530.75 26.2729L531.85 27.0841L532.1 27.2772C532.673 27.7391 533.175 28.2842 533.589 28.8942L545.933 47.0814C547.156 48.882 547.53 51.1272 546.957 53.2267L541.69 72.5332C540.965 75.1911 538.833 77.2324 536.145 77.8401L517.342 82.0918L513.494 103.783L516.948 103.019C519.373 102.482 521.907 103.189 523.703 104.904C525.5 106.62 526.324 109.119 525.899 111.567L520.644 141.876C520.146 144.75 518.016 147.069 515.195 147.81L505.837 150.265L502.325 172.17L510.953 168.874C513.617 167.856 516.627 168.447 518.708 170.397C520.788 172.346 521.574 175.311 520.732 178.035L512.958 203.184C512.335 205.198 510.888 206.854 508.977 207.742L471.604 225.096C469.205 226.21 466.394 225.968 464.22 224.461C462.046 222.954 460.834 220.407 461.036 217.769L463.205 189.427L463.24 189.079C464.541 178.575 465.724 168.02 466.92 157.408C468.114 146.811 469.319 136.161 470.656 125.541L470.657 125.54C474.123 98.0313 478.111 70.5471 482.348 43.1787L482.393 42.9203C482.899 40.2683 484.805 38.0886 487.382 37.2402L523.994 25.1896Z" fill="#2A1E0E" stroke="url(#paint6_linear_242_147)" stroke-width="14.9026" stroke-linejoin="round"/>
<path d="M336.966 89.732C340.449 89.8834 343.362 92.4299 343.978 95.8615L348.154 119.159L357.505 97.8108C359.001 94.3957 362.791 92.6119 366.376 93.6357C369.961 94.6595 372.238 98.1757 371.704 101.866C371.231 105.143 371.196 107.358 370.735 111.43L370.734 111.433C366.766 146.351 365.893 181.666 363.981 217.333L363.856 219.582C363.207 230.768 362.261 241.124 362.135 251.835C362.098 255.021 360.039 257.83 357.013 258.826L345.971 262.459C343.746 263.191 341.307 262.834 339.385 261.495C337.463 260.157 336.282 257.992 336.197 255.651L335.743 243.154L330.856 268.524C330.142 272.228 326.774 274.814 323.012 274.547C319.25 274.28 316.28 271.245 316.096 267.478L313.432 212.874L301.939 216.511C299.453 217.298 296.735 216.727 294.775 215.007C292.816 213.287 291.898 210.667 292.355 208.1L309.202 113.556L309.268 113.227C310.022 109.866 312.997 107.442 316.471 107.411C320.056 107.379 323.156 109.905 323.849 113.423L324.134 114.878L329.45 95.2308L329.542 94.9186C330.556 91.725 333.592 89.5855 336.966 89.732Z" fill="#2A1E0E" stroke="url(#paint7_linear_242_147)" stroke-width="14.9026" stroke-linejoin="round"/>
<path d="M440.392 53.759C442.429 53.0555 444.688 53.2642 446.574 54.3632L446.581 54.3666C449.134 55.8542 450.566 58.7104 450.233 61.6461C450.209 61.8537 450.176 62.0587 450.136 62.2612L445.78 90.3469C445.75 90.6014 445.735 90.9262 445.712 91.6382C445.691 92.2693 445.66 93.3228 445.51 94.4298L445.508 94.4395C441.636 122.611 438.039 150.722 435.696 178.831L435.472 181.551C435.448 181.859 435.426 182.168 435.403 182.478L463.569 169.427C465.995 168.303 468.836 168.565 471.016 170.113C473.196 171.66 474.379 174.258 474.117 176.918L469.92 219.566C469.629 222.515 467.619 225.012 464.8 225.925L406.631 244.769C404.223 245.549 401.583 245.052 399.622 243.451C397.661 241.85 396.647 239.363 396.93 236.847C397.207 234.387 397.221 231.854 397.239 228.824C397.256 225.936 397.278 222.572 397.699 219.152L397.698 219.152C398.724 210.785 400.373 202.343 401.903 194.243C403.358 186.549 404.716 179.117 405.513 171.812C405.248 171.593 404.96 171.349 404.666 171.081C402.957 169.521 402.068 167.256 402.263 164.949C405.026 132.252 409.997 99.402 413.735 67.2886L413.772 67.0169C413.98 65.6655 414.556 64.3955 415.44 63.3474L416.125 62.5341L416.3 62.3339C417.194 61.3481 418.336 60.6177 419.609 60.2217L440.392 53.759Z" fill="#2A1E0E" stroke="url(#paint8_linear_242_147)" stroke-width="14.9026" stroke-linejoin="round"/>
</g>
<defs>
<filter id="filter0_n_242_147" x="0.880859" y="7.97412" width="553.79" height="316.667" filterUnits="userSpaceOnUse" color-interpolation-filters="sRGB">
<feFlood flood-opacity="0" result="BackgroundImageFix"/>
<feBlend mode="normal" in="SourceGraphic" in2="BackgroundImageFix" result="shape"/>
<feTurbulence type="fractalNoise" baseFrequency="1.2035462856292725 1.2035462856292725" stitchTiles="stitch" numOctaves="3" result="noise" seed="2387" />
<feColorMatrix in="noise" type="luminanceToAlpha" result="alphaNoise" />
<feComponentTransfer in="alphaNoise" result="coloredNoise1">
<feFuncA type="discrete" tableValues="0 0 0 0 0 0 0 0 0 0 0 0 1 1 1 1 1 1 1 1 1 1 1 1 1 1 1 1 1 1 1 1 1 1 1 1 1 1 0 0 0 0 0 0 0 0 0 0 0 0 0 0 0 0 0 0 0 0 0 0 0 0 0 0 0 0 0 0 0 0 0 0 0 0 0 0 0 0 0 0 0 0 0 0 0 0 0 0 0 0 0 0 0 0 0 0 0 0 0 0 "/>
</feComponentTransfer>
<feComposite operator="in" in2="shape" in="coloredNoise1" result="noise1Clipped" />
<feFlood flood-color="rgba(203, 118, 118, 0.25)" result="color1Flood" />
<feComposite operator="in" in2="noise1Clipped" in="color1Flood" result="color1" />
<feMerge result="effect1_noise_242_147">
<feMergeNode in="shape" />
<feMergeNode in="color1" />
</feMerge>
</filter>
<linearGradient id="paint0_linear_242_147" x1="201.201" y1="20.4061" x2="182.577" y2="311.301" gradientUnits="userSpaceOnUse">
<stop stop-color="#FF2600"/>
<stop offset="1" stop-color="#FF6E2B"/>
</linearGradient>
<linearGradient id="paint1_linear_242_147" x1="63.4601" y1="110.918" x2="50.8422" y2="308.002" gradientUnits="userSpaceOnUse">
<stop stop-color="#FF2600"/>
<stop offset="1" stop-color="#FF6E2B"/>
</linearGradient>
<linearGradient id="paint2_linear_242_147" x1="301.932" y1="59.2127" x2="289.406" y2="254.871" gradientUnits="userSpaceOnUse">
<stop stop-color="#FF2600"/>
<stop offset="1" stop-color="#FF6E2B"/>
</linearGradient>
<linearGradient id="paint3_linear_242_147" x1="249.383" y1="70.745" x2="236.809" y2="267.149" gradientUnits="userSpaceOnUse">
<stop stop-color="#FF2600"/>
<stop offset="1" stop-color="#FF6E2B"/>
</linearGradient>
<linearGradient id="paint4_linear_242_147" x1="392.734" y1="68.38" x2="380.872" y2="253.656" gradientUnits="userSpaceOnUse">
<stop stop-color="#FF2600"/>
<stop offset="1" stop-color="#FF6E2B"/>
</linearGradient>
<linearGradient id="paint5_linear_242_147" x1="130.813" y1="88.4459" x2="118.526" y2="280.351" gradientUnits="userSpaceOnUse">
<stop stop-color="#FF2600"/>
<stop offset="1" stop-color="#FF6E2B"/>
</linearGradient>
<linearGradient id="paint6_linear_242_147" x1="510.745" y1="31.2696" x2="498.645" y2="220.27" gradientUnits="userSpaceOnUse">
<stop stop-color="#FF2600"/>
<stop offset="1" stop-color="#FF6E2B"/>
</linearGradient>
<linearGradient id="paint7_linear_242_147" x1="335.732" y1="97.1185" x2="324.843" y2="267.198" gradientUnits="userSpaceOnUse">
<stop stop-color="#FF2600"/>
<stop offset="1" stop-color="#FF6E2B"/>
</linearGradient>
<linearGradient id="paint8_linear_242_147" x1="444.645" y1="60.9175" x2="433.21" y2="239.528" gradientUnits="userSpaceOnUse">
<stop stop-color="#FF2600"/>
<stop offset="1" stop-color="#FF6E2B"/>
</linearGradient>
</defs>
</svg>
