<svg width="608" height="374" viewBox="0 0 608 374" fill="none" xmlns="http://www.w3.org/2000/svg">
<path d="M383.829 57.5606C383.829 57.5606 428.108 74.4964 433.214 75.6697L583.068 18.9654L548.445 134.865L537.09 148.563L551.661 150.59L541.098 154.673L607.669 178.885L513.06 165.575L528.165 211.796L518.784 208.048L540.496 327.65L450.811 257.949L445.133 272.607L428.42 251.161L421.843 262.962L329.338 236.412L303.792 267.503L281.088 220.969L207.179 286.793L216.141 263.526L178.645 251.161L55.1676 373.232L62.7354 251.161L0.668945 0.239258L156.414 90.5866L176.618 46.331C176.618 46.331 201.615 92.6665 201.051 90.1524L232.374 82.7853L228.487 13.1145C228.487 13.1145 326.808 94.9139 326.084 92.9788C325.359 91.0437 326.084 67.5941 326.084 67.5941L337.622 85.4442L369.905 84.3319L383.829 57.5758V57.5606Z" fill="#E7397F"/>
<path d="M242.701 76.1525L241.261 57.5635L330.024 118.565L334.764 127.752H321.61L316.519 127.471L316.87 135.531L316.199 243.622L307.328 251.172L286.393 211.868L306.444 193.157L293.717 158.379L283.436 157.083L280.037 136.544L261.716 135.95L265.465 119.974L269.672 101.415L252.167 78.2248L247.739 82.1787L242.701 76.1525Z" fill="#86BAA7"/>
<path d="M434.426 87.7602L453.822 93.9159L461.168 95.5387L470.619 100.087L475.763 138.164L457.823 159.343L453.402 164.059L454.972 186.038L462.586 202.822L475.42 210.936L477.973 229.304L463.203 236.389L453.463 247.489L453.684 252.182L523.463 305.062L527.884 300.338L488.094 119.796L531.344 138.705L538.134 128.405L563.711 43.1846L434.426 87.7602Z" fill="#86BAA7"/>
<path d="M359.724 96.5077C359.724 96.5077 353.855 84.9428 344.519 103.608L350.99 112.202V149.951L326.808 145.235V203.341L326.084 211.173L339.33 225.983L370.607 204.278L390.704 126.631C390.704 126.631 386.459 99.0599 359.731 96.5153L359.724 96.5077ZM360.57 167.337L349.115 173.911L346.57 170.308L349.542 129.168C349.542 122.807 362.696 123.233 362.696 123.233L369.905 128.322L360.57 167.344V167.337Z" fill="#86BAA7"/>
<path d="M453.913 210.596L435.668 172.922L464.522 140.612L456.458 107.106L387.48 75.665L383.059 80.3809L380.659 91.2296L383.661 93.477L395.116 102.81L404.414 123.928L372.207 217.323L368 230.099L414.672 247.492L420.997 236.415L404.277 203.389L413.186 189.82L443.731 233.504L462.136 229.969L471.48 225.391L467.059 218.656L453.905 210.596H453.913ZM411.059 154.189L413.605 131.272L417.423 123.227H430.577C436.095 124.492 436.941 131.272 436.941 131.272L414.245 154.189H411.059Z" fill="#86BAA7"/>
<path d="M174.042 104.483L156.414 102.579L151.994 107.302L173.272 121.137L173.516 139.01L188.217 124.946L208.642 137.281L199.413 118.318L211.721 101.405L189.932 102.944L181.534 72.3408L177.113 77.0643L174.042 104.483Z" fill="#86BAA7"/>
<path d="M145.234 115.942L29.8047 32.4893L24.165 46.3244L76.7889 250.05L80.3861 329.853L165.598 250.522L171.238 236.687L177.807 202.038L145.234 115.934V115.942ZM154.585 200.987C153.9 201.421 126.037 215.119 126.037 215.119L105.117 134.721L132.103 146.698L138.467 150.941C138.467 150.941 156.887 199.532 154.585 200.987Z" fill="#86BAA7"/>
<path d="M287.17 171.153L225.652 154.186L231.696 132.801L238.982 135.049L236.368 146.446L249.255 151.642L260.473 107.15L244.743 90.1455L213.878 117.397L216.195 134.934L208.33 122.295L198.087 131.339L208.52 171.495L259.948 190.945V194.618L226.224 213.077L229.638 226.196L218.016 230.95L188.461 139.826L178.638 150.103L191.891 188.066L179.834 235.62L223.031 256.769L293.115 193.345L287.17 171.153Z" fill="#86BAA7"/>
<path d="M247.114 74.5984L241.261 57.5635L334.444 113.841L341.654 139.713H328.5L325.954 130.381L321.29 130.807L316.199 243.622L294.792 204.127L306.444 193.157L293.717 158.379L288.001 157.662L284.457 131.821L266.136 131.234L269.672 101.415L247.114 74.5984Z" fill="#F9F8D4"/>
<path d="M433.214 88.0886L452.61 94.2367L459.956 95.8594L468.088 101.543L475.763 138.165L457.822 159.344L462.586 202.823L475.42 210.936L477.973 229.304L463.203 236.39L463.424 241.075L527.884 300.339L492.514 115.081L538.134 128.406L568.131 38.4619L433.214 88.0886Z" fill="#F9F8D4"/>
<g filter="url(#filter0_d_242_138)">
<path d="M150.874 102.107L29.8047 32.4893L84.8902 245.745L88.1673 311.333L171.245 236.695L184.254 190.321L150.882 102.107H150.874ZM154.585 190.252C153.9 190.687 131.394 213.565 131.394 213.565L103.981 122.471L132.103 135.963L138.467 140.207C138.467 140.207 156.887 188.797 154.585 190.252Z" fill="#F9F8D4"/>
</g>
<path d="M364.144 91.7866C364.144 91.7866 344.207 84.9985 334.871 103.664L343.353 111.724L348.444 145.23H326.808V203.336L341.654 217.331L372.931 195.626L395.116 121.902C395.116 121.902 390.871 94.3311 364.144 91.7866ZM364.989 162.615L353.535 169.19L350.989 165.587L353.962 124.447C353.962 118.086 367.116 118.512 367.116 118.512L374.325 123.601L364.989 162.623V162.615Z" fill="#F9F8D4"/>
<path d="M458.333 205.88L440.088 168.207L468.942 135.897L460.879 102.391L387.48 75.6729L383.661 93.4848L395.116 102.817L402.326 123.174L372.199 217.331L420.99 236.415L408.689 198.665L417.598 185.097L448.144 228.781L471.48 225.391V213.94L458.326 205.88H458.333ZM415.48 149.473L418.025 126.557L421.843 118.511H434.997C440.515 119.776 441.361 126.557 441.361 126.557L418.665 149.473H415.48Z" fill="#F9F8D4"/>
<path d="M178.454 99.7597L156.414 102.579L177.685 116.414L177.944 134.866L192.645 120.802L213.062 132.557L203.833 113.595L216.133 96.6894L194.352 98.2207L181.533 72.3408L178.454 99.7597Z" fill="#F9F8D4"/>
<path d="M291.591 166.43L230.073 149.471L233.891 135.05H238.982L237.077 143.529L250.01 148.618L261.891 101.544L249.164 85.4229L213.733 116.704L216.134 134.867L207.987 121.771L202.5 126.616L212.94 166.78L264.368 186.223V189.902L224.54 211.425L227.954 224.536L222.436 226.235L192.882 135.11L176.618 149.471L191.891 188.066L184.255 230.897L235.164 245.746L297.535 189.339L291.591 166.43Z" fill="#F9F8D4"/>
<defs>
<filter id="filter0_d_242_138" x="25.8047" y="32.4893" width="162.45" height="286.844" filterUnits="userSpaceOnUse" color-interpolation-filters="sRGB">
<feFlood flood-opacity="0" result="BackgroundImageFix"/>
<feColorMatrix in="SourceAlpha" type="matrix" values="0 0 0 0 0 0 0 0 0 0 0 0 0 0 0 0 0 0 127 0" result="hardAlpha"/>
<feOffset dy="4"/>
<feGaussianBlur stdDeviation="2"/>
<feComposite in2="hardAlpha" operator="out"/>
<feColorMatrix type="matrix" values="0 0 0 0 0 0 0 0 0 0 0 0 0 0 0 0 0 0 0.25 0"/>
<feBlend mode="normal" in2="BackgroundImageFix" result="effect1_dropShadow_242_138"/>
<feBlend mode="normal" in="SourceGraphic" in2="effect1_dropShadow_242_138" result="shape"/>
</filter>
</defs>
</svg>
