<svg width="499" height="358" viewBox="0 0 499 358" fill="none" xmlns="http://www.w3.org/2000/svg">
<g filter="url(#filter0_n_242_140)">
<path d="M260.064 352.784C258.908 352.784 257.741 352.528 256.693 352.05C253.908 350.771 251.763 347.597 249.735 341.751C248.52 338.253 247.541 334.277 247.147 332.067C245.331 321.896 245.386 311.642 245.435 301.722C245.435 301.19 245.44 300.654 245.445 300.118C224.084 302.263 201.744 305.166 180.664 312.03C172.51 314.683 164.106 318.299 154.205 323.407C153.639 323.697 152.921 324.145 152.158 324.618C149.432 326.31 146.047 328.421 142.1 328.421C140.236 328.421 138.479 327.944 136.88 327.004C133.337 324.918 131.275 316.779 131.546 313.339C131.836 309.698 133.942 308.133 135.202 307.518C151.524 298.425 167.348 291.526 183.562 286.418C185.078 285.941 187.13 285.454 189.506 284.893C190.687 284.612 192.277 284.238 193.837 283.835C166.433 267.154 135.423 261.564 112.109 260.024C112.129 265.259 112.207 270.584 112.576 275.74C127.127 271.883 141.864 269.762 154.589 268.187L155.007 268.138L155.431 268.158C158.044 268.286 159.638 270.19 160.164 270.815C161.286 272.153 165.095 278.024 164.622 281.675C164.022 286.349 158.545 288.406 157.453 288.77C153.881 289.966 148.679 291.014 142.657 292.23C134.031 293.972 120.991 296.604 117.566 299.497C117.517 299.552 117.32 299.822 117.172 300.019C116.67 300.698 115.982 301.628 114.899 302.484C113.457 303.621 111.494 304.925 109.102 304.925C107.454 304.925 106.234 304.32 105.417 303.754C105.343 303.779 105.274 303.798 105.21 303.818C104.074 304.172 102.514 304.664 100.747 304.664C98.7001 304.664 96.8499 304.029 95.2507 302.78C92.0867 300.304 91.4667 295.266 91.3831 292.481C91.2945 289.636 91.6193 284.45 94.7931 281.635C96.0331 280.533 97.4503 280.007 98.6804 279.623L97.6077 259.866C84.5729 260.349 71.2969 262.007 58.9263 264.703C52.7853 266.042 47.4464 267.538 43.0473 269.152C42.2993 269.427 40.7788 270.136 39.3125 270.82C33.88 273.354 31.0703 274.545 28.7724 274.545C28.674 274.545 28.5854 274.545 28.4919 274.54C27.119 274.481 26.1349 274.102 25.4805 273.846L25.3427 273.792C21.9523 272.498 11.988 262.056 11.0235 260.816C10.1771 259.729 8.78951 257.401 7.85459 255.664C5.82235 251.88 5.23679 249.863 5.62552 247.944C6.0979 245.596 7.8349 242.816 14.7681 236.843C19.2853 232.95 24.0682 229.412 24.5997 229.019C32.9451 222.863 45.9259 214.188 61.7016 206.625C60.9044 205.567 60.3484 204.578 59.9941 203.953C58.5474 201.399 55.8607 196.641 58.1045 192.34C59.8071 189.087 64.5309 186.032 76.1683 180.663L76.7342 180.402C81.1579 178.355 85.7243 176.569 90.1431 174.847C91.6045 174.276 93.0364 173.72 94.4437 173.159C94.1534 172.967 93.9074 172.81 93.7155 172.692C87.5794 168.868 83.7363 167.166 82.4127 166.861C81.9846 166.994 81.2662 167.294 80.7593 167.505C79.0617 168.214 76.9507 169.095 74.6577 169.095C73.5063 169.095 72.4139 168.873 71.41 168.44C68.4921 167.176 67.2914 164.425 66.4205 162.412C66.0121 161.468 65.3921 160.046 64.9492 159.829C63.0744 158.914 56.584 157.546 53.0953 156.813C51.688 156.517 50.4726 156.262 49.4983 156.035C46.5705 155.361 43.5147 154.775 40.5574 154.214C37.1917 153.575 33.7078 152.911 30.2683 152.084L29.5154 151.902L28.856 151.498C24.7128 148.974 25.2541 142.449 25.6822 139.762C25.9922 137.799 28.2163 131.584 28.6543 130.359C31.6116 122.151 32.4038 121.3 33.6586 120.395C34.9921 119.43 36.5963 118.943 38.4169 118.943C39.278 118.943 40.0358 119.046 40.6509 119.13L41.0052 119.179C45.9259 119.804 50.6103 121.33 55.1374 122.806C60.8749 124.676 66.2925 126.442 72.0202 126.442C72.5713 126.442 73.1224 126.427 73.6637 126.393C74.2296 126.359 75.8682 126.044 77.0639 125.812C79.9523 125.256 81.9649 124.887 83.574 124.887C84.3022 124.887 84.9468 124.966 85.5373 125.123C86.7478 125.453 88.1207 126.329 88.9916 127.667C111.637 115.533 134.385 99.8361 159.894 78.7854C171.792 68.9638 185.619 57.1443 197.95 43.9077L198.649 43.1597L199.589 42.7513C200.219 42.4758 201.39 41.9689 202.886 41.9689C205.257 41.9837 207.688 43.332 214.297 47.6523C215.158 48.2133 215.975 48.7496 216.496 49.0695C216.575 49.0891 216.654 49.1039 216.727 49.1236C217.554 49.3204 218.942 49.6452 220.054 50.9393C221.112 52.1646 222.288 56.1602 222.234 57.3952C222.15 59.2454 221.314 61.1202 216.782 66.7593C214.366 69.7658 211.822 72.674 210.97 73.6138C206 79.0856 200.499 84.2129 195.18 89.1681C191.091 92.9816 186.893 96.8886 182.977 100.933C185.319 102.252 187.494 104.029 188.97 106.213C189.132 105.948 189.3 105.711 189.462 105.5C191.612 102.705 194.712 102.1 196.622 101.755C197.207 100.54 197.98 98.3008 198.526 96.7115C200.017 92.3813 201.419 88.2873 203.919 85.9106C207.334 82.658 213.194 81.5016 217.18 81.5016C218.15 81.5016 219.06 81.5705 219.891 81.7034C221.968 82.038 228.547 86.2157 229.226 86.8406C233.743 90.9887 232.739 96.3326 232.139 99.531C231.972 100.417 231.8 101.332 231.79 101.927C231.918 102.311 232.247 103.059 232.474 103.571C232.966 104.673 233.473 105.82 233.778 106.996C234.909 111.365 232.306 113.496 231.48 114.042L230.446 114.731L230.087 114.765C228.773 123.77 228.276 132.829 228.178 141.249C243.934 113.629 261.816 83.3026 281.385 54.4084L281.798 53.7982L282.374 53.3357C283.309 52.5828 284.928 51.6873 287.339 51.6873C289.75 51.6873 292.393 52.5189 295.64 54.2263C301.801 57.4641 305.113 62.6751 304.488 68.1666L304.429 68.6734L304.266 69.1557C302.652 74.0271 300.379 78.6034 298.179 83.0271C296.26 86.8849 294.435 90.5557 293.082 94.2954C293.544 94.3692 294.017 94.4381 294.474 94.507C296.994 94.876 299.852 95.2943 302.234 96.8296C302.308 96.8788 302.382 96.928 302.46 96.9772C305.191 87.1703 308.739 76.0545 313.035 65.9375L313.173 65.6128C317.842 54.5708 320.608 50.4915 324.121 49.4533C324.918 49.2171 325.819 49.1039 326.872 49.1039C331.074 49.1039 343.371 51.5495 343.676 59.0289L343.715 60.0032L343.381 60.9185C341.683 65.5537 339.867 70.2185 338.116 74.7259C335.631 81.1129 333.092 87.6476 330.828 94.2413C340.856 83.8439 348.985 74.6422 356.253 65.5094C356.79 64.8353 357.331 64.1612 357.872 63.4821C360.603 60.077 363.428 56.5538 365.74 53.006C367.034 51.023 368.127 48.7988 369.288 46.4369C370.351 44.2718 371.453 42.0329 372.738 39.9711C373.431 38.8591 375.537 35.4736 379.823 35.4736C381.078 35.4736 382.392 35.7787 383.839 36.4086C385.738 37.2352 389.443 40.3599 390.949 41.6688C396.111 46.1466 397.159 47.9672 397.366 49.9404C397.493 51.2001 397.346 52.3269 395.397 57.1984C394.551 59.3242 393.473 61.8386 393.006 62.7982C391.756 65.3569 390.25 67.7582 388.592 70.0512L397.828 64.3826L398.458 64.1956C399.23 63.9693 400.003 63.8512 400.756 63.8512C404.934 63.8512 406.857 67.1382 407.674 68.5455C407.817 68.7866 408.029 69.1507 408.117 69.259C408.772 70.002 409.539 70.7204 410.346 71.4831C412.369 73.3825 414.455 75.3508 415.346 78.2589C416.433 81.8166 415.296 85.4677 411.975 89.109C408.718 92.6765 404.284 96.1899 399.585 99.9099C392.779 105.298 385.069 111.405 382.362 117.044C382.062 117.674 381.9 118.111 381.816 118.397C382.057 118.54 382.441 118.741 383.027 118.978L385.349 119.917L386.353 123.962L386.196 124.951C386.137 125.33 386.082 125.758 386.023 126.206C385.669 128.932 385.084 133.484 382.136 136.293C382.205 136.298 382.279 136.303 382.348 136.308C413.929 138.823 468.031 164.961 486.144 191.887C489.22 196.459 495.233 209.183 493.073 217.239C492.463 219.512 487.202 227.528 485.77 228.871C481.017 233.354 471.589 236.282 457.757 237.571C454.121 237.91 450.307 238.225 446.272 238.555C423.662 240.415 395.525 242.733 377.22 251.767C376.989 251.88 376.433 252.303 376.025 252.608C374.524 253.745 372.496 255.27 369.795 255.453C369.938 260.506 370.317 266.367 370.922 272.271C371.04 273.428 371.36 275.312 371.694 277.305C373.303 286.837 374.268 293.898 372.014 297.992C370.622 300.526 368.132 302.101 365.514 302.101C363.373 302.101 361.395 301.048 360.086 299.212C358.108 296.437 358.748 293.598 359.053 292.235C359.097 292.038 359.156 291.772 359.176 291.639C358.896 286.128 358.069 280.228 357.188 273.984C356.396 268.345 355.574 262.509 355.185 256.904C355.112 255.876 355.126 254.513 355.146 252.933C355.166 251.058 355.215 246.684 354.816 244.248C353.719 244.519 352.386 245.011 351.244 245.513C351.259 245.685 351.269 245.862 351.278 246.049C351.5 253.465 351.677 261.352 351.229 269.112C351.215 269.368 351.244 270.111 351.269 270.657C351.416 274.156 351.584 278.117 348.685 280.395C346.87 281.822 344.621 281.975 343.74 281.975C340.64 281.975 338.17 280.336 337.304 277.699L337.132 277.172L337.077 276.621C336.949 275.263 336.954 272.965 336.979 269.019C336.999 265.392 337.043 258.307 336.703 253.627C335.985 254.281 335.321 254.926 334.883 255.349C333.943 256.255 333.2 256.973 332.531 257.48C329.672 259.635 327.216 260.654 324.81 260.678L328.009 272.104L327.915 273.024C327.32 279.023 323.044 281.124 320.214 282.511L319.683 282.777C316.858 284.184 313.935 285.331 311.111 286.438C308.961 287.279 306.933 288.077 304.97 288.967C304.822 289.036 304.458 289.277 304.193 289.449C303.046 290.207 301.309 291.359 298.947 291.359C297.86 291.359 296.359 291.098 294.794 290.04C294.213 293.765 292.604 298.267 287.457 299.606C286.07 299.965 283.378 300.442 276.061 300.447C271.869 300.447 267.509 300.3 264.325 300.186C263.553 300.162 262.859 300.137 262.268 300.118C261.575 300.098 260.905 300.029 260.275 299.95C260.275 301.5 260.266 303.045 260.256 304.571C260.192 315.076 260.128 325.936 262.992 335.286C263.12 335.704 263.754 337.042 264.173 337.928C266.279 342.376 267.942 345.895 266.377 349.034C265.221 351.347 262.81 352.784 260.079 352.784H260.064ZM195.259 189.963C201.897 212.967 211.064 237.015 223.262 263.429C223.4 263.724 223.902 264.654 224.35 265.471C227.248 270.805 229.128 274.259 228.68 277.079L244.441 274.84L244.465 271.533L243.973 266.44C243.053 266.185 242.049 265.653 241.173 264.595C240.573 264.684 239.943 264.738 239.264 264.738C238.132 264.738 237.011 264.585 235.825 264.275C232.902 263.508 227.75 258.592 227.218 257.962C223.07 253.041 225.437 247.407 227.002 243.677C227.558 242.359 228.129 240.991 228.232 240.154C228.581 237.374 228.557 234.097 228.532 230.633C228.513 227.518 228.488 224.3 228.744 221.21C229.497 212.141 230.835 202.998 232.508 194.087C230.815 197.236 229.103 200.046 227.405 202.221C225.988 204.041 224.045 206.531 220.177 206.531C219.286 206.531 218.361 206.398 217.259 206.118C210.39 204.356 208.19 202.226 207.447 196.616C207.339 195.799 207.231 194.958 206.989 193.929C206.694 192.67 206.251 191.311 205.779 189.875C205.248 188.241 204.692 186.558 204.288 184.797C203.299 180.506 202.512 176.441 201.921 172.544L198.511 180.698L195.263 189.973L195.259 189.963ZM276.947 273.305C279.314 273.305 281.454 273.383 283.486 273.551C285.386 273.703 287.152 273.846 288.737 274.249L283.905 256.373L283.865 255.949C283.511 252.092 286.488 249.941 288.077 248.918C287.831 247.383 287.349 245.158 287.019 243.653C286.513 241.315 286.03 239.106 285.833 237.423C285.174 231.666 284.908 225.815 284.672 220.127C278.571 224.462 269.743 231.42 268.208 232.837C261.383 239.136 259.203 241.532 258.701 249.927C258.248 257.559 258.799 265.52 259.336 273.221C259.355 273.472 259.37 273.723 259.39 273.974C261.614 273.91 263.872 273.792 266.215 273.669C269.713 273.487 273.33 273.3 276.937 273.3L276.947 273.305ZM111.154 229.127C134.67 231.208 158.235 236.483 181.412 244.863C180.688 243.131 179.96 241.355 179.301 239.524C178.942 238.53 178.263 236.346 177.323 233.319C176.181 229.653 174.06 222.843 172.801 219.364L168.21 219.143L169.484 206L161.444 179.202C158.068 179.649 152.439 180.998 147.764 182.287C149.186 184.457 150.451 186.681 151.691 188.866C153.143 191.42 154.51 193.836 156.075 196.065C156.617 196.837 158.078 198.525 159.49 200.164C165.572 207.205 168.067 210.384 168.234 213.479C168.269 214.109 168.377 216.033 167.245 217.952L166.866 218.597L166.31 219.099C165.636 219.709 164.239 222.076 163.309 223.645C161.449 226.794 159.84 229.516 157.709 231.016C155.249 232.753 150.884 233.216 148.699 233.216C147.061 233.216 145.732 232.995 144.649 232.537C141.923 231.39 139.862 228.295 136.161 222.469C135.148 220.875 133.696 218.592 132.864 217.519C132.244 217.43 131.034 217.322 128.859 217.322C127.358 217.322 126.02 217.376 125.355 217.406C121.38 217.598 114.023 218.316 111.779 218.976C110.795 220.28 111.021 225.83 111.12 228.226C111.135 228.531 111.145 228.832 111.154 229.127ZM90.1381 228.231C91.6439 228.231 93.1496 228.241 94.6553 228.246C95.2212 228.246 95.7871 228.251 96.353 228.256V224.831C94.5372 225.678 92.1113 226.922 89.6953 228.231C89.8429 228.231 89.9905 228.231 90.1381 228.231ZM314.772 206.088C314.752 212.751 315.973 219.384 317.257 226.342C321.843 217.977 327.704 209.464 335.134 200.311C335.616 199.721 336.61 198.604 338.332 196.685C339.41 195.479 341.063 193.639 342.554 191.936C342.313 191.828 342.072 191.715 341.831 191.607C338.967 190.293 336.059 188.959 333.175 187.483C334.194 190.421 335.04 194.49 334.159 197.049L333.746 198.245L331.005 200.73L314.767 206.083L314.772 206.088ZM380.542 170.157C382.677 170.157 389.168 170.157 390.801 175.491C392.829 182.129 386.402 187.483 382.146 191.026C381.383 191.661 380.665 192.261 380.242 192.67C379.164 193.708 378.072 194.761 376.969 195.814C372.334 200.267 367.59 204.819 363.113 209.41C372.546 207.141 382.057 205.591 391.2 204.263C400.672 202.89 410.287 201.93 419.592 201C426.58 200.302 433.803 199.583 440.85 198.697C441.356 198.633 441.844 198.569 442.301 198.51C434.694 191.725 424.538 185.461 411.522 179.497C391.899 170.507 371.901 165.055 352.09 163.293L344.242 162.796C353.803 167.51 365.48 169.198 377.014 170.207C377.023 170.207 377.127 170.217 377.407 170.217C377.766 170.217 378.175 170.207 378.613 170.192C379.218 170.177 379.868 170.157 380.532 170.157H380.542ZM314.723 182.233C317.149 181.618 319.781 180.993 322.119 180.673C319.653 178.783 317.375 176.751 315.18 174.685L314.728 182.233H314.723ZM117.005 149.545C118.353 150.426 119.662 151.341 120.902 152.266C123.392 154.121 125.606 156.148 127.747 158.112C128.805 159.081 129.823 160.016 130.852 160.907L168.795 151.833C165.129 151.513 161.626 150.8 158.334 149.692L156.69 149.141L155.755 147.68C154.22 145.279 154.614 142.095 155.627 136.387C154.353 136.776 153.083 137.159 151.829 137.538C140.113 141.076 128.042 144.723 117.005 149.545ZM352.322 122.875C350.609 123.957 348.985 125.005 347.647 125.871L346.077 126.885C342.648 129.094 338.386 131.948 334.022 135.354C339.193 134.871 344.581 134.635 350.24 134.635C350.422 134.635 350.609 134.635 350.791 134.635L352.42 133.833C351.643 132.239 350.855 129.09 352.322 122.875Z" fill="black"/>
<path d="M379.809 40.3902C380.39 40.3902 381.059 40.5674 381.861 40.9167C383.49 41.6253 392.303 48.9374 392.455 50.4382C392.558 51.4224 389.267 59.202 388.568 60.6339C383.219 71.5726 372.27 79.9328 365.509 89.9759L399.826 68.9154C400.161 68.817 400.461 68.7727 400.732 68.7727C402.705 68.7727 403.182 71.1297 404.393 72.5026C408.418 77.069 414.136 79.4112 408.314 85.7933C400.382 94.4931 383.022 104.226 377.9 114.919C375.735 119.431 376.64 121.709 381.152 123.54L381.31 124.18C380.837 127.127 380.69 132.432 377.339 133.553C376.497 133.834 369.17 135.753 368.723 135.763C368.708 135.763 368.693 135.763 368.683 135.763C366.868 135.763 358.001 133.347 357.105 132.097C354.714 128.761 359.103 115.593 362.06 112.375C362.109 112.148 361.903 112.075 361.686 112.075C361.553 112.075 361.42 112.099 361.337 112.139C356.495 114.176 348.1 119.736 343.411 122.753C334.563 128.451 325.859 134.848 318.768 142.637C329.249 140.393 339.637 139.562 350.241 139.562C352.696 139.562 355.161 139.606 357.641 139.69L356.662 137.239C357.243 136.954 357.774 136.835 358.271 136.835C360.072 136.835 361.465 138.376 363.418 139.089C370.204 141.569 375.164 140.693 381.94 141.235C412.197 143.646 464.863 169.115 482.046 194.653C485.264 199.436 489.816 210.355 488.305 215.985C487.985 217.18 483.36 224.389 482.38 225.314C477.12 230.269 464.307 232.041 457.285 232.695C432.588 234.998 397.45 236.312 375.031 247.379C373.21 248.279 371.306 250.577 369.244 250.577C368.536 250.577 367.812 250.306 367.064 249.613C366.956 248.574 366.804 247.334 367.099 246.335C367.896 243.649 381.275 240.037 384.218 238.856L410.293 232.71C409.146 232.651 408 232.621 406.858 232.621C401.175 232.621 395.535 233.271 389.872 233.679C383.992 234.103 378.092 234.196 372.241 235.239C369.141 235.79 367.566 235.785 366.139 238.979C363.62 244.613 365.288 265.723 366.016 272.799C366.543 277.906 369.849 291.724 367.694 295.645C367.212 296.526 366.351 297.205 365.505 297.205C364.998 297.205 364.501 296.964 364.082 296.379C362.98 294.834 364.171 293.22 364.082 291.502C363.541 280.549 360.879 268.036 360.082 256.585C359.836 253.072 360.879 241.675 357.927 239.55C357.518 239.254 356.913 239.127 356.195 239.127C353.036 239.127 347.588 241.552 345.881 242.871C345.753 244.028 346.314 245.051 346.348 246.207C346.575 253.746 346.737 261.383 346.304 268.843C346.201 270.668 346.895 275.549 345.635 276.534C345.231 276.853 344.464 277.065 343.726 277.065C342.928 277.065 342.176 276.814 341.964 276.174C341.561 271.933 342.815 248.486 339.932 246.69C339.686 246.537 339.4 246.463 339.095 246.463C336.276 246.463 331.198 252.324 329.554 253.564C327.453 255.148 325.942 255.773 324.702 255.773C321.966 255.773 320.52 252.757 316.805 250.41L323 272.553C322.65 276.066 320.19 277.031 317.469 278.389C312.794 280.716 307.677 282.335 302.918 284.505C301.516 285.14 300.315 286.459 298.933 286.459C298.288 286.459 297.599 286.168 296.836 285.386L288.762 255.512C288.565 253.372 293.028 252.58 293.141 250.7C293.303 247.969 291.129 240.396 290.725 236.878C289.78 228.68 289.672 220.261 289.244 212.033C289.19 211.974 289.106 211.95 288.993 211.95C286.282 211.95 266.756 227.509 264.877 229.241C257.614 235.948 254.41 239.387 253.795 249.652C253.215 259.395 254.189 269.261 254.799 278.955C255.237 278.959 255.675 278.964 256.113 278.964C262.987 278.964 270.004 278.241 276.947 278.241C279.004 278.241 281.051 278.305 283.088 278.472C289.829 279.018 290.666 279.319 290.223 286.085C290.011 289.293 289.785 293.933 286.203 294.863C284.185 295.385 280.249 295.542 276.042 295.542C270.895 295.542 265.349 295.306 262.402 295.217C260.492 295.158 258.583 294.607 256.615 294.607C256.177 294.607 255.734 294.637 255.286 294.701C255.596 308.321 254.233 323.57 258.273 336.743C258.957 338.977 262.707 345.349 261.959 346.85C261.6 347.573 260.842 347.878 260.064 347.878C259.607 347.878 259.144 347.775 258.746 347.593C255.493 346.102 252.614 334.711 251.989 331.217C249.839 319.166 250.43 306.899 250.366 294.706C226.461 297.008 202.015 299.917 179.134 307.367C169.701 310.437 160.745 314.511 151.942 319.048C149.192 320.465 145.57 323.516 142.096 323.516C141.171 323.516 140.256 323.3 139.375 322.778C138.115 322.035 134.769 312.961 137.436 311.918C152.69 303.41 168.343 296.384 185.039 291.123C189.01 289.873 198.989 288.117 201.828 286.262C202.748 285.661 203.545 285.022 202.911 283.865C175.261 264.832 140.526 256.3 107.174 254.838C107.189 261.949 107.159 269.148 107.676 276.243C107.755 277.336 108.188 281.705 108.935 281.882C124.012 277.434 139.596 275.013 155.195 273.089C156.627 273.158 159.924 279.663 159.746 281.061C159.574 282.399 157.124 283.708 155.894 284.121C146.48 287.27 121.129 290.056 114.388 295.759C113.408 296.585 112.926 297.786 111.853 298.637C110.535 299.675 109.703 300.025 109.103 300.025C107.961 300.025 107.656 298.765 106.436 298.632C106.337 298.622 106.239 298.618 106.136 298.618C104.6 298.618 102.667 299.764 100.747 299.764C99.911 299.764 99.0794 299.548 98.2822 298.923C95.8859 297.048 95.4676 287.635 98.0559 285.337C99.6059 283.964 103.38 284.151 103.744 282.143L102.258 254.838C87.5109 255.065 72.301 256.767 57.8785 259.916C52.3969 261.112 46.6151 262.623 41.3549 264.552C38.5796 265.57 30.9821 269.645 28.7727 269.645C28.7481 269.645 28.7235 269.645 28.7038 269.645C28.0789 269.62 27.6607 269.433 27.1095 269.221C25.3676 268.557 16.3726 259.685 14.9063 257.81C13.868 256.477 10.1873 250.223 10.4481 248.938C11.1567 245.435 24.1325 235.5 27.518 233.005C50.2613 216.24 78.9686 201.542 107.09 196.942C112.523 196.051 117.497 195.775 122.925 195.308C123.555 194.614 117.606 187.947 115.864 187.947C114.107 187.956 108.498 190.166 106.436 190.874C98.2822 193.684 89.6514 197.576 81.7537 201.129C79.3967 202.187 72.0649 206.557 69.8702 206.557C69.7964 206.557 69.7325 206.557 69.6734 206.542C67.1737 206.143 65.481 203.683 64.2803 201.557C63.2372 199.712 61.4756 196.543 62.4695 194.644C64.0737 191.573 75.2289 186.549 78.8013 184.891C87.1123 181.043 95.9547 178.159 104.221 174.4C104.231 173.775 97.4309 169.228 96.314 168.535C93.6027 166.847 85.4589 161.926 82.3097 161.926C82.1916 161.926 82.0784 161.931 81.9751 161.946C79.8494 162.241 76.9855 164.194 74.6581 164.194C74.2054 164.194 73.7674 164.121 73.3639 163.944C70.8544 162.856 70.8987 157.281 67.1048 155.426C63.9457 153.886 54.5866 152.178 50.6009 151.263C44.2483 149.797 37.7579 148.842 31.4151 147.321C30.0275 146.475 30.2981 142.071 30.5393 140.56C30.8345 138.7 35.5633 125.114 36.5326 124.416C37.0936 124.012 37.7431 123.894 38.4123 123.894C39.0816 123.894 39.7557 124.012 40.3806 124.091C50.7977 125.41 60.639 131.393 72.0156 131.393C72.6603 131.393 73.3098 131.374 73.9642 131.334C75.9768 131.211 81.3256 129.838 83.5694 129.838C83.845 129.838 84.0713 129.858 84.2435 129.907C84.5437 129.991 85.2031 130.508 84.8439 130.886C84.3813 133.234 82.1719 133.603 80.617 135.035C81.1829 135.669 81.9702 136.201 82.8165 136.201C83.0626 136.201 83.3086 136.156 83.5596 136.058C112.208 121.695 138.366 102.952 163.019 82.6146C176.462 71.5234 189.649 60.0631 201.548 47.2989C201.971 47.1168 202.419 46.9249 202.881 46.9249H202.891C204.608 46.9347 212.157 52.2786 214.292 53.5235C214.912 53.8827 216.167 54.0008 216.324 54.1878C216.428 54.3059 217.318 57.0467 217.313 57.2042C217.235 58.951 209.066 68.4184 207.324 70.3325C197.286 81.3795 185.108 90.9108 175.163 102.14L175.089 103.291C179.149 103.887 185.644 107.439 185.944 111.888C186.185 115.495 184.788 116.41 183.936 119.274C181.146 128.662 180.768 138.08 176.496 147.016C175.419 147.085 174.336 147.125 173.254 147.125C168.722 147.125 164.175 146.485 159.904 145.048C158.88 143.444 161.321 134.129 161.336 131.565C161.336 130.64 161.168 129.902 160.125 129.888C143.769 134.985 126.261 139.616 110.791 147.002C109.91 147.42 108.566 147.966 107.818 148.448C107.341 148.753 106.933 148.394 107.189 149.541C110.84 151.396 114.688 153.792 117.97 156.238C122.108 159.318 125.587 163.082 129.602 166.296L178.041 154.712L179.055 153.266C181.924 144.074 184.315 134.715 187.268 125.557C188.419 121.985 191.529 110.928 193.369 108.532C195.062 106.327 198.713 106.893 199.737 105.919C202.35 103.439 204.195 92.4805 207.315 89.5084C209.401 87.5205 213.815 86.4576 217.181 86.4576C217.879 86.4576 218.534 86.5019 219.109 86.5954C219.646 86.684 225.408 90.0497 225.895 90.4975C229.556 93.8632 226.663 98.7249 226.884 102.44C227.002 104.467 230.23 108.994 228.759 109.969L225.826 110.239C223.036 126.443 222.923 142.972 223.563 159.392C243.157 124.691 263.105 90.1924 285.46 57.1943C285.957 56.7958 286.611 56.6334 287.34 56.6334C289.347 56.6334 291.921 57.8537 293.353 58.6066C296.713 60.3731 300.064 63.5519 299.602 67.636C296.571 76.7934 290.858 85.1635 287.891 94.3061C287.541 95.3788 287.138 96.4023 287.256 97.5685C292.403 100.875 302.682 97.5685 301.516 106.46C301.063 109.89 297.885 117.35 296.777 121.404C290.577 144.157 288.821 161.641 285.75 184.679C285.145 189.236 284.801 194.176 279.777 195.923C279.235 196.11 278.758 196.199 278.34 196.199C274.9 196.199 275.279 190.382 274.344 187.346C274.196 186.864 274.211 185.968 273.626 185.968C273.591 185.968 273.552 185.968 273.512 185.978L265.634 208.604L275.146 202.62L289.667 194.998C290.548 179.572 293.909 164.431 296.654 149.28C297.048 147.198 294.686 146.633 294.273 144.782C294.13 144.143 293.668 139.571 293.751 139.094C294.15 136.831 299.71 132.427 300.443 129.996C301.388 126.861 301.477 121.636 302.274 118.048C305.827 102.027 311.17 82.9492 317.562 67.8919C318.733 65.1314 322.951 54.9603 325.519 54.2026C325.859 54.0992 326.321 54.0549 326.867 54.0549C330.676 54.0549 338.638 56.3726 338.756 59.261C333.446 73.7475 327.212 87.9535 322.955 102.819C322.183 105.51 321.184 108.404 320.982 111.179C334.711 97.6669 348.085 83.6922 360.092 68.6054C363.408 64.4376 366.941 60.191 369.849 55.7329C372.585 51.5405 374.431 46.5804 376.901 42.6094C377.816 41.1431 378.643 40.4296 379.809 40.4296M212.481 284.348L249.317 279.117L249.381 271.318L248.166 258.755L247.423 258.273C247.649 259.887 246.887 260.797 245.676 261.708C245.617 261.722 245.563 261.727 245.509 261.727C244.476 261.727 244.092 259.459 243.969 258.77C242.202 259.311 240.859 259.823 239.255 259.823C238.585 259.823 237.877 259.734 237.07 259.523C235.987 259.237 231.77 255.744 230.968 254.799C227.627 250.838 232.548 245.228 233.104 240.77C233.822 235.008 233.124 227.839 233.64 221.624C235.584 198.142 241.489 174.07 247.905 151.504C245.199 155.234 243.157 159.913 241.09 164.121C236.401 173.652 229.551 191.475 223.518 199.2C222.273 200.799 221.609 201.616 220.167 201.616C219.7 201.616 219.149 201.528 218.47 201.355C211.207 199.495 213.096 198.467 211.768 192.803C211.069 189.821 209.77 186.731 209.071 183.69C206.591 172.929 205.041 162.123 205.583 151.007L193.901 178.932L190.087 189.821C197.468 215.763 207.487 241.031 218.785 265.496C219.597 267.258 224.463 275.412 223.735 276.425C221.703 276.474 221.304 278.413 220.315 279.156C217.865 280.992 214.553 281.936 212.476 284.352M377.418 175.138C378.274 175.138 379.391 175.084 380.542 175.084C383.002 175.084 385.606 175.34 386.098 176.939C387.446 181.343 379.548 186.515 376.827 189.137C369.062 196.622 360.643 204.534 353.454 212.511C351.648 214.513 350.073 216.87 348.292 218.907C362.365 213.869 377.132 211.285 391.909 209.14C408.378 206.748 424.986 205.661 441.47 203.589C442.858 203.417 452.064 202.266 452.108 201.449C442.095 189.841 427.446 181.382 413.58 175.035C394.31 166.207 373.678 160.278 352.47 158.398L329.106 156.922C328.555 157.394 330.671 159.254 331.065 159.633C342.997 171.049 360.914 173.75 376.591 175.123C376.822 175.143 377.103 175.153 377.413 175.153M309.675 188.448C311.372 188.448 320.534 185.378 324.889 185.378C325.45 185.378 325.928 185.427 326.306 185.545C328.181 186.121 330.14 193.645 329.52 195.456L328.486 196.39L309.985 202.492C309.227 213.529 312.071 224.197 313.783 234.973C314.108 237.025 314.093 239.254 314.349 241.306C314.408 241.794 314.512 242.325 314.826 242.325C314.954 242.325 315.112 242.241 315.319 242.04C320.908 227.755 329.347 215.261 338.957 203.427C340.399 201.656 350.305 190.997 350.25 190.126C342.796 186.49 335.011 183.469 328.058 178.878C321.642 174.641 316.509 168.982 310.905 163.806L309.424 188.404C309.463 188.439 309.547 188.458 309.675 188.458M148.699 228.291C147.809 228.291 147.036 228.203 146.554 228.001C143.877 226.879 137.554 214.238 135.36 213.116C134.238 212.545 131.389 212.402 128.854 212.402C127.354 212.402 125.966 212.452 125.115 212.491C121.685 212.653 113.212 213.367 110.205 214.312C104.025 216.255 106.82 228.724 106.19 233.674C134.951 235.707 163.196 242.62 189.841 253.357C188.36 248.013 185.801 243.068 183.932 237.867C182.834 234.811 177.131 215.345 176.073 214.725C175.704 214.508 175.281 214.459 174.853 214.459C174.504 214.459 174.144 214.494 173.81 214.494C173.741 214.494 173.677 214.494 173.608 214.494L174.479 205.528L165.272 174.853C164.775 174.247 164.116 174.105 163.422 174.105C162.984 174.105 162.536 174.164 162.108 174.198C157.227 174.592 147.026 177.303 142.111 178.819C141.323 179.06 140.285 179.311 139.655 179.803C144.861 185.442 147.701 192.705 152.046 198.905C154.142 201.892 163.181 211.197 163.319 213.76C163.353 214.356 163.319 214.936 163.004 215.463C160.44 217.786 157.301 225.295 154.87 227.007C153.802 227.76 150.889 228.306 148.695 228.306M71.7499 234.157C77.8467 233.291 83.9877 233.153 90.1385 233.153C93.1303 233.153 96.122 233.187 99.1138 233.187C99.8372 233.187 100.556 233.187 101.274 233.182V223.587C101.274 222.529 99.9651 219.045 98.5529 218.907C98.5233 218.907 98.4889 218.907 98.4495 218.907C96.1762 218.907 85.3507 224.98 82.9149 226.397C79.1556 228.586 74.7171 231.071 71.745 234.167M379.814 30.5489C376.615 30.5489 372.064 31.7298 368.555 37.364C367.138 39.6374 365.987 41.9894 364.87 44.2628C363.777 46.482 362.749 48.5782 361.617 50.3103C359.432 53.6564 356.682 57.0861 354.025 60.4026C353.478 61.0817 352.937 61.7607 352.396 62.4398C349.857 65.6284 347.209 68.8268 344.415 72.0892C345.625 68.9597 346.836 65.7858 348.002 62.612L348.676 60.7766L348.597 58.8231C348.469 55.6542 346.88 49.8182 337.693 46.3344C334.18 45.0009 330.036 44.1742 326.877 44.1742C325.347 44.1742 323.989 44.3563 322.729 44.7303C317.016 46.423 313.567 52.1752 309 62.8531C308.41 60.4863 307.283 58.2228 305.649 56.1462C303.194 53.0216 300.099 51.009 297.934 49.8724C293.963 47.786 290.499 46.7674 287.34 46.7674C284.181 46.7674 281.514 47.7122 279.289 49.5033L278.138 50.4284L277.311 51.6487C261.821 74.5151 247.398 98.2525 234.25 120.838C234.368 119.795 234.487 118.796 234.615 117.852C237.552 115.686 240.017 111.469 238.536 105.761C238.128 104.192 237.513 102.804 236.972 101.579C236.927 101.476 236.878 101.362 236.824 101.244C236.873 100.979 236.927 100.688 236.972 100.442C237.301 98.6855 237.754 96.2793 237.547 93.5975C237.242 89.533 235.51 85.9409 232.548 83.2198C231.967 82.6884 231.367 82.1372 227.45 79.8639C223.942 77.8317 222.549 77.1526 220.669 76.8475C219.582 76.6704 218.406 76.5818 217.176 76.5818C216.428 76.5818 215.64 76.6162 214.828 76.6802C215.877 75.514 218.307 72.7092 220.615 69.8405C224.995 64.3884 226.978 61.3326 227.145 57.6224C227.233 55.7083 226.786 54.3354 226.22 52.5984C225.644 50.8368 225.152 49.3163 223.784 47.7319C221.939 45.5914 219.744 44.8238 218.44 44.4793C217.997 44.1939 217.456 43.8396 216.984 43.5345C209.824 38.855 206.754 37.0835 202.975 37.054H202.94H202.881C200.362 37.054 198.443 37.8905 197.626 38.2448L195.746 39.0616L194.349 40.5624C182.209 53.5875 168.535 65.279 156.76 74.9973C132.663 94.8818 111.086 109.924 89.735 121.67C88.8345 121.099 87.8553 120.661 86.822 120.381C85.8034 120.105 84.7405 119.972 83.5694 119.972C81.5175 119.972 79.2884 120.376 76.1244 120.986C75.1895 121.168 73.792 121.439 73.2999 121.493C72.8768 121.517 72.4487 121.532 72.0156 121.532C67.0753 121.532 62.0168 119.884 56.6582 118.137C51.9098 116.587 47.0038 114.988 41.6157 114.309C41.5173 114.294 41.414 114.284 41.3106 114.269C40.6316 114.176 39.6031 114.033 38.4074 114.033C34.8301 114.033 32.2812 115.327 30.7754 116.415C28.1921 118.275 26.9914 120.459 24.0194 128.697C22.9713 131.6 21.1604 136.801 20.8111 139.001C20.2304 142.666 19.6006 151.632 26.2829 155.706L27.6065 156.513L29.1172 156.872C32.6699 157.724 36.2079 158.398 39.6327 159.047C42.6736 159.628 45.5473 160.174 48.3866 160.829C49.4051 161.065 50.6402 161.326 52.0721 161.626C54.3553 162.108 59.1973 163.127 61.6822 163.875C61.761 164.052 61.8348 164.224 61.8987 164.372C62.9616 166.822 64.7429 170.916 69.4471 172.953C71.0709 173.657 72.8177 174.011 74.6482 174.011C77.8368 174.011 80.5038 172.939 82.477 172.112C82.6443 172.186 82.8264 172.269 83.0232 172.358C80.243 173.475 77.4382 174.646 74.663 175.935L74.102 176.196C61.1803 182.155 56.0431 185.654 53.7403 190.062C50.8469 195.598 52.9874 201.198 54.7342 204.588C40.7939 211.704 29.3288 219.419 21.6771 225.063C20.7865 225.723 16.1118 229.197 11.5553 233.118C4.53347 239.166 1.62043 242.92 0.79868 246.97C0.0704199 250.582 1.30059 253.869 3.51981 257.997C4.55316 259.921 6.07857 262.48 7.14635 263.848C8.83907 266.013 13.5629 270.55 14.0993 271.062C20.0631 276.765 21.9281 277.759 23.5962 278.394L23.7192 278.443C24.5508 278.768 26.1057 279.363 28.2856 279.456C28.443 279.461 28.6054 279.466 28.7777 279.466C32.2467 279.466 35.6617 277.956 41.3943 275.279C42.5752 274.728 44.1892 273.975 44.7453 273.773C48.9328 272.238 54.0601 270.806 59.9846 269.512C70.5493 267.209 81.793 265.679 92.9679 265.014L93.5928 276.47C92.9039 276.868 92.2101 277.355 91.5409 277.951C87.1024 281.887 86.3348 288.107 86.4775 292.629C86.6153 297.082 87.7274 303.125 92.2347 306.653C94.6852 308.567 97.6327 309.581 100.762 309.581C102.347 309.581 103.749 309.325 104.905 309.03C106.062 309.497 107.469 309.842 109.118 309.842C113.069 309.842 116.056 307.844 117.96 306.338C119.471 305.147 120.44 303.883 121.04 303.071C121.754 302.662 123.776 301.688 128.672 300.369C133.219 299.149 138.519 298.076 143.636 297.043C144.104 296.949 144.566 296.856 145.024 296.762C141.028 298.755 137.013 300.871 132.968 303.12C129.337 304.916 126.999 308.518 126.65 312.942C126.379 316.391 127.339 319.998 128.19 322.419C130.227 328.201 132.574 330.169 134.395 331.237C136.757 332.629 139.355 333.333 142.111 333.333C147.464 333.333 151.859 330.597 154.767 328.786C155.411 328.383 156.08 327.969 156.469 327.768C166.129 322.783 174.302 319.265 182.195 316.696C201.06 310.555 221.092 307.637 240.509 305.561C240.49 314.487 240.657 323.654 242.315 332.92C242.758 335.395 243.792 339.582 245.1 343.351C248.309 352.597 251.891 355.235 254.652 356.504C256.339 357.277 258.214 357.69 260.079 357.69C264.69 357.69 268.789 355.21 270.782 351.215C273.414 345.935 270.978 340.788 268.621 335.808C268.301 335.129 267.819 334.115 267.662 333.712C265.098 325.258 265.113 315.043 265.172 305.128C268.267 305.231 272.213 305.354 276.056 305.354C282.138 305.354 286.036 305.049 288.693 304.355C291.242 303.696 295.641 301.772 298.126 296.241C298.411 296.261 298.687 296.27 298.947 296.27C302.795 296.27 305.576 294.425 306.914 293.539C307.008 293.475 307.131 293.397 307.219 293.338C309 292.536 310.9 291.793 312.907 291.005C315.83 289.859 318.857 288.673 321.878 287.167C322.05 287.083 322.217 287 322.385 286.916C325.062 285.602 330.233 283.058 332.162 276.794C332.172 276.893 332.177 276.986 332.187 277.08L332.29 278.177L332.634 279.225C334.165 283.88 338.524 286.887 343.745 286.887C345.477 286.887 348.814 286.547 351.732 284.254C352.376 283.752 352.927 283.206 353.405 282.64C353.779 285.632 354.079 288.51 354.236 291.261C353.828 293.077 352.898 297.599 356.086 302.067C358.33 305.216 361.77 307.017 365.519 307.017C369.928 307.017 374.071 304.468 376.33 300.359C379.356 294.858 378.382 287.329 376.551 276.479C376.227 274.565 375.922 272.759 375.818 271.76C375.494 268.611 375.105 263.897 374.869 259.109C376.655 258.288 378.038 257.244 378.987 256.526C379.189 256.374 379.45 256.177 379.607 256.068C397.081 247.536 424.567 245.272 446.671 243.452C450.721 243.117 454.544 242.802 458.21 242.463C473.371 241.051 483.493 237.773 489.141 232.444C489.712 231.903 490.78 230.899 493.9 226.013C497.192 220.846 497.556 219.493 497.822 218.504C500.651 207.954 493.093 193.399 490.224 189.132C478.173 171.221 454.475 157.242 441.426 150.5C423.662 141.328 404.978 134.764 389.877 132.284C390.452 130.257 390.703 128.318 390.895 126.832C390.949 126.404 391.003 126 391.048 125.725L391.368 123.742L390.885 121.793L390.728 121.153L389.522 116.292L388.888 116.036C392.18 112.04 397.868 107.538 402.641 103.759C407.503 99.9107 412.089 96.2793 415.612 92.4165C421.31 86.1673 421.177 80.4839 420.055 76.8131C418.786 72.6551 415.981 70.0127 413.722 67.8919C413.107 67.3113 412.522 66.7601 412.039 66.2484C412 66.1844 411.961 66.1155 411.926 66.0565C411.414 65.1806 410.642 63.852 409.358 62.553C407.05 60.2107 403.994 58.9215 400.756 58.9215C400.505 58.9215 400.249 58.9313 399.994 58.9461C401.898 54.1681 402.528 52.003 402.262 49.4197C401.834 45.2715 399.201 42.2994 394.177 37.9397C390.477 34.7314 387.662 32.6943 385.807 31.8873C383.726 30.9819 381.772 30.5439 379.829 30.5439L379.814 30.5489ZM126.97 150.82C134.38 148.03 142.14 145.614 149.807 143.291C149.772 145.885 150.23 148.178 151.613 150.333L151.918 150.815L132.21 155.529C131.836 155.19 131.457 154.84 131.074 154.491C129.755 153.28 128.407 152.045 126.97 150.825V150.82ZM378.367 201.301C379.036 200.657 379.701 200.017 380.365 199.377C381.472 198.314 382.569 197.261 383.652 196.218C383.947 195.933 384.661 195.337 385.291 194.816C387.259 193.177 389.709 191.135 391.776 188.65C394.925 184.861 395.993 181.348 396.087 178.43C400.564 180.093 405.027 181.943 409.476 183.981C417.285 187.558 424.002 191.224 429.7 195.037C426.142 195.416 422.589 195.77 419.096 196.12C409.741 197.055 400.067 198.014 390.492 199.407C386.506 199.987 382.451 200.607 378.362 201.311L378.367 201.301ZM155.392 185.408C156.292 185.196 157.168 184.999 158 184.822L160.78 194.083C160.48 193.719 160.238 193.418 160.115 193.241C158.684 191.199 157.37 188.886 155.977 186.436C155.785 186.096 155.593 185.757 155.397 185.412L155.392 185.408ZM200.421 190.107L200.554 189.728C200.736 190.309 200.918 190.869 201.095 191.406C201.533 192.739 201.941 193.999 202.192 195.057C202.369 195.805 202.453 196.435 202.551 197.148C201.813 194.791 201.105 192.449 200.421 190.117V190.107ZM220.861 246.011C214.573 231.44 209.253 217.564 204.805 204.141C205.253 204.829 205.794 205.513 206.453 206.178C208.943 208.682 212.083 209.873 216.034 210.887C217.525 211.271 218.883 211.458 220.177 211.458C222.013 211.458 223.577 211.113 224.921 210.567C224.488 213.977 224.124 217.397 223.843 220.812C223.568 224.118 223.592 227.45 223.617 230.673C223.641 233.93 223.661 237.011 223.366 239.461C223.253 239.914 222.78 241.036 222.47 241.784C221.954 243.019 221.353 244.441 220.876 246.02L220.861 246.011ZM319.806 209.612L322.567 208.702C321.696 209.932 320.849 211.157 320.033 212.373C319.939 211.448 319.86 210.528 319.801 209.612H319.806ZM115.952 223.208C118.664 222.839 122.615 222.46 125.592 222.318C126.212 222.288 127.462 222.239 128.859 222.239C129.361 222.239 129.799 222.244 130.178 222.254C130.788 223.179 131.472 224.256 132.009 225.103C132.432 225.772 132.84 226.412 133.234 227.022C127.472 226.042 121.705 225.25 115.938 224.645C115.938 224.148 115.938 223.661 115.952 223.203V223.208ZM162.295 233.571C164.357 231.544 165.917 228.906 167.546 226.146C167.885 225.57 168.343 224.793 168.776 224.099L169.233 224.118C170.38 227.583 171.782 232.085 172.619 234.777C172.86 235.549 173.077 236.248 173.273 236.883C169.622 235.702 165.956 234.6 162.29 233.571H162.295ZM271.534 236.474C272.597 235.525 276.243 232.612 280.219 229.566C280.397 232.366 280.628 235.175 280.953 237.985C281.174 239.914 281.681 242.236 282.217 244.702C282.355 245.322 282.517 246.089 282.68 246.867C282.635 246.911 282.586 246.955 282.542 247C279.914 249.568 278.645 252.904 278.965 256.398L279.043 257.244L279.265 258.066L282.089 268.523C280.465 268.429 278.768 268.385 276.942 268.385C273.207 268.385 269.527 268.577 265.964 268.764C265.295 268.798 264.631 268.833 263.976 268.867C263.553 262.446 263.258 256.29 263.617 250.228C264.011 243.624 265.211 242.31 271.529 236.474H271.534ZM330.893 264.212C331.296 264.03 331.685 263.838 332.064 263.636C332.069 265.413 332.064 267.066 332.054 268.36L330.893 264.212ZM117.183 269.522C117.133 268.134 117.104 266.741 117.079 265.349C121.414 265.738 125.69 266.249 129.898 266.884C125.705 267.647 121.449 268.518 117.183 269.522ZM232.774 271.524C232.385 270.412 231.943 269.472 231.618 268.793C231.401 268.331 231.17 267.858 230.929 267.386C232.258 268.223 233.379 268.724 234.565 269.034C236.165 269.458 237.7 269.659 239.26 269.659C239.284 269.659 239.309 269.659 239.338 269.659L239.427 270.58L232.774 271.524ZM168.013 286.636C168.751 285.396 169.293 283.959 169.504 282.305C169.716 280.662 169.558 279.009 168.987 277.109C172.993 278.669 176.861 280.372 180.59 282.202C176.378 283.56 172.191 285.036 168.013 286.636Z" fill="white"/>
<path d="M273.202 48.2884C269.428 48.2884 265.9 48.0178 262.711 47.4814C257.397 46.5858 250.503 41.7488 251.389 34.9977C251.861 31.4203 254.922 28.9206 258.834 28.9206C261.314 28.9206 263.504 29.9786 264.69 31.7451C264.872 32.0108 265.014 32.2765 265.132 32.5373C264.567 27.8774 268.228 24.4477 269.876 22.9026C282.571 11.0192 307.731 5.60645 325.74 5.60645C328.009 5.60645 330.189 5.6901 332.211 5.86232C332.349 5.87216 345.91 7.09741 349.581 14.631C351.008 17.5588 350.708 20.8212 348.745 23.8179C343.819 31.3317 322.842 38.6291 322.635 38.698C309.182 43.0725 289.687 48.2884 273.197 48.2884H273.202ZM280.214 32.9703C280.145 33.0392 280.037 33.1622 279.914 33.3C285.435 33.054 289.632 32.247 296.059 30.8102C307.913 28.1628 319.412 25.299 329.5 20.0634C328.117 19.965 326.646 19.9109 325.111 19.9109C310.905 19.9109 290.366 24.4871 280.214 32.9654V32.9703Z" fill="black"/>
<path d="M325.745 10.5298C327.88 10.5298 329.908 10.6086 331.802 10.7709C336.423 11.1597 349.029 14.4172 344.63 21.124C341.579 25.779 326.616 32.23 321.114 34.0211C307.538 38.435 288.923 43.3704 273.202 43.3704C269.816 43.3704 266.569 43.1441 263.533 42.6323C260.487 42.1206 255.797 39.2518 256.27 35.64C256.437 34.3558 257.697 33.844 258.833 33.844C259.611 33.844 260.334 34.0851 260.605 34.4935C260.93 34.9758 260.516 35.9648 261.407 36.885C262.642 38.1496 266.175 38.3907 269.437 38.3907C271.425 38.3907 273.31 38.3021 274.52 38.3021C274.599 38.3021 274.678 38.3021 274.747 38.3021C275.2 38.3071 275.647 38.312 276.08 38.312C284.106 38.312 288.958 37.4459 297.121 35.6253C312.242 32.2497 327.738 28.3378 340.413 19.1263C341.924 17.0202 331.276 15.2832 330.321 15.2045C328.673 15.0716 326.926 15.0027 325.105 15.0027C309.408 15.0027 288.067 19.948 276.981 29.2629C275.933 30.1437 273.3 34.0064 271.519 34.0064C270.943 34.0064 270.456 33.6029 270.141 32.5646C269.403 30.1338 271.622 28.013 273.231 26.5073C284.741 15.731 308.537 10.5397 325.735 10.5397M325.745 0.688477C315.746 0.688477 304.733 2.21389 294.735 4.98915C286.365 7.31171 274.673 11.6813 266.519 19.3132C265.54 20.2285 263.902 21.7637 262.563 23.8206C262.43 24.0223 262.307 24.2241 262.184 24.4307C261.117 24.1503 259.99 24.0026 258.833 24.0026C252.481 24.0026 247.299 28.3574 246.512 34.3607C245.853 39.3748 247.969 44.3054 252.318 47.8925C255.059 50.156 258.553 51.775 261.899 52.3359C265.353 52.9165 269.157 53.2118 273.207 53.2118C286.96 53.2118 304.109 49.9051 324.165 43.3803C327.324 42.3519 332.894 40.1179 338.219 37.441C348.119 32.4613 351.249 28.9922 352.867 26.522C355.781 22.0787 356.199 16.9612 354.014 12.4833C352.051 8.45331 348.188 5.34344 342.524 3.24231C339.38 2.07611 335.68 1.22483 332.629 0.968955C330.469 0.78689 328.151 0.693397 325.75 0.693397L325.745 0.688477Z" fill="white"/>
</g>
<defs>
<filter id="filter0_n_242_140" x="0.588867" y="0.688477" width="497.855" height="357.002" filterUnits="userSpaceOnUse" color-interpolation-filters="sRGB">
<feFlood flood-opacity="0" result="BackgroundImageFix"/>
<feBlend mode="normal" in="SourceGraphic" in2="BackgroundImageFix" result="shape"/>
<feTurbulence type="fractalNoise" baseFrequency="2.1232471466064453 2.1232471466064453" stitchTiles="stitch" numOctaves="3" result="noise" seed="8432" />
<feColorMatrix in="noise" type="luminanceToAlpha" result="alphaNoise" />
<feComponentTransfer in="alphaNoise" result="coloredNoise1">
<feFuncA type="discrete" tableValues="1 1 1 1 1 1 1 1 1 1 1 1 1 1 1 1 1 1 1 1 1 1 1 1 1 1 1 1 1 1 1 1 1 1 1 1 1 1 1 1 1 1 1 1 1 1 1 1 1 1 1 0 0 0 0 0 0 0 0 0 0 0 0 0 0 0 0 0 0 0 0 0 0 0 0 0 0 0 0 0 0 0 0 0 0 0 0 0 0 0 0 0 0 0 0 0 0 0 0 0 "/>
</feComponentTransfer>
<feComposite operator="in" in2="shape" in="coloredNoise1" result="noise1Clipped" />
<feFlood flood-color="rgba(0, 0, 0, 0.25)" result="color1Flood" />
<feComposite operator="in" in2="noise1Clipped" in="color1Flood" result="color1" />
<feMerge result="effect1_noise_242_140">
<feMergeNode in="shape" />
<feMergeNode in="color1" />
</feMerge>
</filter>
</defs>
</svg>
