<svg width="452" height="364" viewBox="0 0 452 364" fill="none" xmlns="http://www.w3.org/2000/svg">
<path d="M111.752 278.074C111.612 276.877 84.3109 301.746 84.0079 301.272C83.8524 301.031 82.7644 301.054 82.2904 300.588C79.5704 297.922 77.4099 293.034 74.8764 290.485C74.5422 290.151 74.4723 289.498 73.7651 289.684C62.8695 305.748 53.3261 323.296 40.1612 337.697C35.2341 343.082 29.7241 349.587 21.6495 348.032C15.2613 346.805 3.37877 333.212 1.28047 327.119C-2.46539 316.239 3.87615 310.807 8.47687 302.181C21.5951 277.615 26.0249 251.954 22.0692 224.241C20.9579 216.454 15.9608 202.838 20.1108 196.201C27.8123 183.883 44.3578 200.864 51.4221 206.156C51.391 204.804 51.5076 203.436 51.4221 202.084C50.9713 194.849 46.5261 182.904 51.9117 177.122C56.7689 171.907 64.7657 175.436 70.4 177.348C85.2124 182.383 98.9758 190.567 110.299 201.323L124.863 188.158C117.783 181.365 110.198 174.938 103.499 167.765C99.3644 163.335 94.7869 158.657 92.6964 152.875C90.5981 155.642 89.6033 159.193 87.8081 162.139C83.8602 168.62 78.7155 172.016 70.9674 169.086C66.9884 167.579 60.81 162.294 57.8801 159.131C44.0158 144.179 54.2509 134.084 60.6235 119.116C66.0868 106.293 70.1591 92.9337 74.3557 79.6523C59.9707 70.2021 43.2154 60.41 41.8243 41.261C41.0783 30.9483 46.2618 22.6484 57.344 27.1792C71.4103 36.1786 86.8522 44.1831 100.631 53.5011C105.1 56.5242 108.939 60.0604 113.034 63.5576C124.148 52.219 134.818 40.4219 144.734 28.0186C148.379 23.4645 151.845 17.6825 155.599 13.4393C161.311 6.99671 166.417 6.45255 170.124 13.0816C180.67 31.9275 174.142 57.418 181.742 52.0402C186.351 48.7761 204.396 45.4188 213.628 54.0762C216.815 57.0682 227.399 24.9333 238.287 16.711C239.585 15.7318 241.163 14.1152 241.769 13.68C255.307 3.84134 272.63 -4.47409 288.569 3.81808C293.861 6.56918 297.382 11.2398 301.827 15.0323C328.141 2.20933 362.048 4.75835 385.487 22.5861C400.338 33.8859 417.016 50.7111 414.273 70.9714C411.296 92.9491 386.816 113.816 366.804 120.717C367.877 122.147 370.263 122.287 371.933 123.025C381.259 127.144 393.888 139.228 395.077 149.805C397.393 170.408 378.998 183.114 363.167 191.235C362.67 191.492 362.258 190.986 362.483 192.23L392.505 202.683L414.335 171.364C418.663 166.343 426.163 166.918 430.888 171.115C434.921 174.697 439.996 179.461 443.043 183.922C448.995 192.657 454.28 203.071 446.26 212.397C445.288 213.532 440.618 216.982 440.773 217.845C442.118 220.176 444.542 220.293 446.509 221.738C459.005 230.932 443.61 254.332 431.37 255.591C425.386 256.205 420.466 254.184 414.855 252.754L404.255 275.051L404.488 275.758C410.721 270.869 414.513 263.766 423.451 267.839C424.632 268.375 432.302 274.911 433.056 275.991C438.426 283.669 427.29 296.08 422.262 301.683C410.876 314.359 391.121 332.87 372.905 322.705C369.952 321.058 368.063 318.555 365.118 317.032C361.971 319.371 359.064 321.742 354.805 321.361C363.657 336.818 360.494 351.685 340.171 350.636C317.797 349.478 295.493 346.836 272.94 348.219C271.806 348.25 270.757 348.701 269.622 348.74C254.04 349.253 238.559 350.146 223.04 351.6C204.59 353.333 179.333 358.78 161.575 357.374C151.946 356.612 143.273 348.849 136.629 342.484C132.339 350.885 129.86 364.034 117.892 363.622C112.218 363.428 106.18 356.651 102.535 352.563C94.5461 343.595 89.4247 333.857 94.8647 321.835M294.335 28.5392C292.781 6.9034 272.886 4.9139 256.566 13.5791C227.788 28.8578 217.359 64.2257 211.794 94.0993C198.225 105.554 182.939 119.877 167.272 128.302C158.902 132.801 154.744 131.558 156.788 121.167L157.262 120.833C158.358 121.245 159.469 121.284 160.635 121.191C179.939 119.59 203.355 96.7184 209.735 79.0772C215.33 63.6042 208.01 53.1436 191.231 57.2081C178.307 60.34 163.852 72.8676 155.614 83.0405C147.796 92.6927 142.939 103.853 137.6 114.942L115.288 97.9075C129.37 86.9963 143.949 75.4711 156.329 62.6326C162.989 55.7238 171.561 47.4005 170.435 36.9945C170.178 34.6553 165.064 18.5374 163.774 17.7058C163.254 17.3716 162.92 17.6125 162.453 17.8534C161.288 18.4518 153.881 29.0831 152.226 31.1659C140.095 46.398 126.417 61.3349 112.894 75.3624C107.952 80.4916 102.714 85.3565 97.7557 90.4701C97.88 85.745 100.631 80.9966 101.968 76.4348C103.126 72.4791 105.131 67.5598 102.038 64.1171L55.6109 35.1761C47.7773 30.4666 49.4559 40.8259 50.6216 45.4422C53.3572 56.2523 64.7579 63.2388 73.563 69.0674C75.8556 70.5828 82.9821 73.4816 83.0675 76.2871C78.8787 92.3119 73.9672 108.243 67.3692 123.437C63.0793 133.306 53.2562 144.466 64.245 153.271C72.8947 160.204 74.0449 155.409 77.7752 147.761C81.5055 140.114 84.4587 131.247 88.6397 124.058C91.1266 119.776 90.9556 120.375 95.2998 122.217C101.245 124.735 107.967 128.535 113.695 131.667C124.21 137.418 136.458 146.728 146.794 151.375C149.832 152.743 151.884 153.132 155.241 152.735C165.181 151.577 185.371 136.586 193.283 129.817C197.207 126.46 201.272 121.447 205.056 118.549C205.538 118.176 205.663 117.616 206.494 117.833C205.647 129.475 204.015 143.969 213.947 152.385C230.959 166.802 250.924 140.285 259.022 127.392C260.77 124.602 273.515 101.894 272.264 100.55C271.308 100.55 270.368 101.428 269.638 102.003C260.094 109.425 242.554 127.936 229.506 124.828C227.532 124.354 225.635 122.1 224.983 120.227C224.252 118.144 223.63 110.762 224.983 109.192C225.729 108.321 235.995 106.938 238.093 106.464C253.799 102.866 267.617 94.8766 278.007 82.5354C280.891 79.1082 285.313 73.9557 284.022 69.3239L299.138 62.1431C299.27 62.827 298.983 63.3244 298.757 63.9228C296.496 69.969 292.214 77.2352 289.455 83.4213C282.562 98.8866 275.723 115.222 269.979 131.154C267.912 136.889 262.402 150.707 262.309 156.131C262.13 166.405 272.521 159.8 276.344 155.766C285.476 146.129 290.255 130.765 297.211 119.504C298.221 118.875 303.42 120.181 305.114 120.258C335.594 121.696 374.599 107.404 392.94 82.2712C407.838 61.8555 400.191 46.6934 383.148 31.6634C361.807 12.8408 328.996 10.043 303.925 23.0214C302.923 23.5421 294.693 28.9744 294.335 28.547V28.5392ZM97.5147 134.154V142.073C97.5147 156.629 124.334 174.262 133.046 185.267C134.841 187.536 134.864 188.733 133.302 191.305L113.913 208.876C112.584 210.843 109.219 222.717 110.975 223.906C113.182 223.821 115.195 221.847 116.943 220.549C129.191 211.426 141.105 200.981 153.252 191.569C161.653 185.057 169.999 178.389 178.882 172.553L170.131 190.683C163.137 207.555 176.232 217.332 191.573 208.286C202.352 201.929 211.289 191.033 221.369 183.604C218.804 189.082 215.237 194.064 212.486 199.434C210.03 204.221 203.829 214.239 209.409 218.373C214.561 222.197 221.516 218.373 226.327 215.669C234.479 211.068 241.536 204.664 248.025 198.004C248.406 204.486 243.067 212.443 250.636 216.508C263.824 223.58 276.399 207.672 285.219 200.405C286.043 201.416 275.668 219.865 276.064 224.652C276.461 229.44 285.421 224.334 287.597 222.694C291.561 219.71 293.799 214.293 295.874 209.848C298.493 204.237 300.312 198.136 303.226 192.735C324.38 204.486 346.249 215.257 368.429 224.971C370.776 225.997 386.676 231.911 386.956 232.883C380.785 247.143 374.739 261.427 369.928 276.232L360.828 284.415C360.579 282.985 361.357 281.019 361.792 279.62C362.693 276.714 363.843 273.597 364.9 270.73C366.525 266.331 374.086 250.213 373.465 246.856C371.498 236.286 351.106 245.9 346.194 249.855C345.876 249.521 349.42 244.485 349.925 243.747C351.759 241.066 358.466 233.232 358.194 230.458C357.898 227.489 348.891 223.821 346.194 223.207C343.498 222.593 340.148 223.852 338.625 226.207C334.957 237.118 331.739 249.583 326.735 259.92C324.193 265.165 315.225 271.818 310.414 275.765C304.71 280.444 295.517 288.394 289.082 291.402C279.818 295.731 277.712 289.218 277.541 281.058C294.327 283.615 310.974 269.455 320.175 256.725C326.672 247.734 340.599 222.197 325.553 215.521C316.507 211.503 304.679 216.353 296.776 221.334C277.425 233.528 264.438 255.902 259.286 277.809L254.258 282.014L253.131 280.724C255.835 266.891 269.342 247.827 267.936 233.784C266.871 223.168 256.146 224.326 248.895 228.181C239.197 233.333 230.112 244.913 223.762 253.702L222.807 253.461C223.436 250.43 223.801 246.18 221.392 243.848C215.828 238.447 206.603 247.438 201.21 249.389C201.575 233.613 188.301 230.815 175.921 236.823C166.269 241.509 160.013 250.664 153.205 258.505C157.013 246.086 172.696 224.427 159.189 213.392C149.296 205.309 138.424 213.337 130.007 219.228C121.591 225.119 114.301 231.709 106.382 237.849C105.892 238.229 103.646 240.118 103.273 239.776C101.906 229.961 102.092 219.64 100.258 209.902C98.6105 201.167 96.6133 199.519 89.3081 194.934C82.4692 190.644 73.2833 186.564 65.5973 184.085C60.4215 182.414 56.8621 179.803 57.1652 187.233C57.5227 195.921 60.2505 204.773 60.0873 213.594L58.6185 240.258C57.4139 240.343 57.7947 240.374 57.6704 239.535C56.9088 234.414 55.9839 224.031 53.3416 219.85C50.6993 215.669 33.6953 200.918 29.4599 200.04C28.7216 199.885 27.9833 199.807 27.2372 199.994C26.1181 200.382 25.9471 202.923 26.0093 203.942C26.2968 209.179 28.8848 216.663 29.7319 222.337C33.6642 248.651 30.035 276.558 18.2301 300.448C12.9999 311.04 2.74927 318.952 12.5413 330.251C15.6266 333.811 17.8027 336.251 22.0847 333.104C42.3839 318.182 57.8258 280.732 74.9386 260.673C75.8789 259.57 76.796 258.326 78.055 257.541C78.9565 257.316 79.1507 270.59 79.2595 271.693C79.4926 274.203 80.7905 289.125 83.8136 289.133L124.381 258.023C119.252 275.68 114.977 293.749 108.418 310.947C106.514 315.944 103.934 320.747 102.077 325.728C99.613 332.311 99.8928 335.295 103.833 341.225C105.263 343.385 111.48 350.993 113.951 350.605C116.905 349.338 118.342 345.616 119.663 342.841C121.606 338.769 123.238 334.052 124.87 329.801C130.155 316.03 134.297 301.784 140.227 288.27C141.494 288.332 140.227 290.151 140.227 290.43V298.59C140.227 305.258 149.483 313.675 155.956 314.545C174.087 317.001 182.356 302.391 192.684 290.438C193.088 289.972 196.562 286.91 197.806 287.228C196.22 292.7 190.555 303.782 189.77 309.276C189.242 312.999 194.091 305.95 194.992 302.997C225.643 202.504 217.584 284.78 212.338 311.18C218.159 298.676 223.871 286.078 231.239 274.39C234.277 269.564 237.743 263.906 242.243 260.432C242.049 265.523 240.238 270.8 238.769 275.68C236.08 284.571 232.614 293.236 229.537 301.994C229.443 308.351 233.889 312.035 240.207 310.729C242.647 310.224 248.546 304.831 250.644 302.927C254.063 299.818 257.079 296.22 260.483 293.08C261.361 292.7 261.54 295.528 261.928 296.43C267.811 310.17 281.108 309.665 292.727 303.238C301.128 298.59 307.966 291.107 314.728 284.439C315.396 284.765 314.642 285.659 314.487 286.117C312.901 290.873 310.313 295.497 309.078 300.393C308.409 303.044 306.871 307.38 311.308 306.984C313.251 306.813 321.644 303.673 322.864 302.181C325.064 299.5 327.83 291.612 329.758 287.951C331.872 283.949 336.876 274.584 340.164 271.95C343.21 269.51 346.863 269.105 346.653 274.087C346.505 277.592 344.073 284.547 342.938 288.169C341.803 291.79 338.571 298.272 338.198 301.707C337.708 306.214 341.897 308.864 345.946 308.927C355.132 309.074 360.23 299.803 366.322 294.51V301.474C366.322 302.398 367.473 306.525 367.97 307.504C370.682 312.789 377.07 313.325 382.27 312.144C394.859 309.284 413.542 290.368 420.194 279.504C422.37 275.952 421.826 274.297 417.327 275.198C409.687 280.607 401.504 289.459 392.715 292.832C381.788 297.021 384.974 285.192 386.831 278.789C390.911 264.738 399.406 251.487 405.716 238.385C412.283 240.351 418.034 244.563 425.269 242.822C430.305 241.61 437.82 232.805 437.742 227.544C437.727 226.316 436.919 223.953 435.784 223.324C432.023 221.241 423.956 220.448 419.596 219.143C420.715 217.961 421.624 216.5 422.712 215.304C426.326 211.293 432.458 206.187 435.442 202.107C437.051 199.9 437.851 197.989 436.989 195.276C435.978 192.09 426.365 176.881 423.583 176.034C422.572 175.731 421.244 175.762 420.552 176.648L396.258 211.503C388.868 210.135 333.589 191.297 332.26 188.158C332.159 187.917 332.027 186.914 332.548 186.976C348.534 183.106 375.687 171.224 380.583 153.955C384.539 140.013 374.312 130.563 361.621 127.594C343.77 123.421 318.435 130.314 304.625 142.321C299.472 146.806 291.258 155.284 301.508 159.372C300.327 161.548 299.076 163.747 298.073 166.009C296.356 169.91 294.397 176.5 292.128 179.741C289.136 184.008 274.262 197.732 269.684 200.025C268.161 200.786 265.907 202.139 264.508 200.701C263.273 199.131 265.41 194.942 266.21 193.193C271.643 181.342 279.927 170.718 286.634 159.613C285.328 158.618 272.536 165.885 270.158 166.895C267.78 167.905 262.06 169.226 260.568 170.143C259.449 170.827 255.548 176.026 254.242 177.379C246.968 184.894 238.932 193.784 229.032 197.53C233.827 188.196 242.002 179.22 245.919 169.537C248.087 164.167 247.73 160.88 240.821 161.043C229.614 161.307 225.433 169.156 217.763 174.503C217.351 174.791 217.289 175.171 216.558 174.977C216.279 168.636 213.613 164.649 209.603 160.087C206.828 156.94 199.508 149.401 195.233 150.031C190.959 150.66 185.705 162.17 183.669 162.97C182.799 163.312 181.61 159.706 180.569 159.364C177.561 157.064 174.134 154.631 170.131 156.147C168.896 156.613 165.445 159.73 164.233 160.81C158.272 166.11 152.956 172.335 146.716 177.371C143.452 171.636 143.079 164.517 138.991 159.178C135.502 154.616 120.34 146.402 114.635 143.215C109.001 140.06 103.157 137.301 97.5069 134.177L97.5147 134.154ZM344.593 336.577C346.552 334.751 346.047 331.254 345.573 328.938C344.609 324.291 340.972 317.281 336.13 315.82C333.519 315.035 327.768 314.755 324.846 314.623C304.314 313.69 282.398 314.771 261.936 315.594C225.161 317.071 184.392 318.649 148.247 324.796C146.063 325.169 137.281 326.513 136.178 327.609C134.81 328.961 136.294 331.441 137.375 332.637C140.973 336.616 150.524 344.419 155.832 344.901C168.795 346.082 186.319 342.025 199.593 340.619C240.875 336.251 281.924 334.067 323.385 336.243C328.196 336.492 333.527 337.557 338.252 337.697C340.148 337.751 343.148 337.922 344.601 336.57L344.593 336.577Z" fill="#FFC3CA"/>
<path d="M111.752 278.074C111.612 276.877 84.3109 301.746 84.0079 301.272C83.8524 301.031 82.7644 301.054 82.2904 300.588C79.5704 297.922 77.4099 293.034 74.8764 290.485C74.5422 290.151 74.4723 289.498 73.7651 289.684C62.8695 305.748 53.3261 323.296 40.1612 337.697C35.2341 343.082 29.7241 349.587 21.6495 348.032C15.2613 346.805 3.37877 333.212 1.28047 327.119C-2.46539 316.239 3.87615 310.807 8.47687 302.181C21.5951 277.615 26.0249 251.954 22.0692 224.241C20.9579 216.454 15.9608 202.838 20.1108 196.201C27.8123 183.883 44.3578 200.864 51.4221 206.156C51.391 204.804 51.5076 203.436 51.4221 202.084C50.9713 194.849 46.5261 182.904 51.9117 177.122C56.7689 171.907 64.7657 175.436 70.4 177.348C85.2124 182.383 98.9758 190.567 110.299 201.323L124.863 188.158C117.783 181.365 110.198 174.938 103.499 167.765C99.3644 163.335 94.7869 158.657 92.6964 152.875C90.5981 155.642 89.6033 159.193 87.8081 162.139C83.8602 168.62 78.7155 172.016 70.9674 169.086C66.9884 167.579 60.81 162.294 57.8801 159.131C44.0158 144.179 54.2509 134.084 60.6235 119.116C66.0868 106.293 70.1591 92.9337 74.3557 79.6523C59.9707 70.2021 43.2154 60.41 41.8243 41.261C41.0783 30.9483 46.2618 22.6484 57.344 27.1792C71.4103 36.1786 86.8522 44.1831 100.631 53.5011C105.1 56.5242 108.939 60.0604 113.034 63.5576C124.148 52.219 134.818 40.4219 144.734 28.0186C148.379 23.4645 151.845 17.6825 155.599 13.4393C161.311 6.99671 166.417 6.45255 170.124 13.0816C180.67 31.9275 174.142 57.418 181.742 52.0402C186.351 48.7761 204.396 45.4188 213.628 54.0762C216.815 57.0682 227.399 24.9333 238.287 16.711C239.585 15.7318 241.163 14.1152 241.769 13.68C255.307 3.84134 272.63 -4.47409 288.569 3.81808C293.861 6.56918 297.382 11.2398 301.827 15.0323C328.141 2.20933 362.048 4.75835 385.487 22.5861C400.338 33.8859 417.016 50.7111 414.273 70.9714C411.296 92.9491 386.816 113.816 366.804 120.717C367.877 122.147 370.263 122.287 371.933 123.025C381.259 127.144 393.888 139.228 395.077 149.805C397.393 170.408 378.998 183.114 363.167 191.235C362.67 191.492 362.258 190.986 362.483 192.23L392.505 202.683L414.335 171.364C418.663 166.343 426.163 166.918 430.888 171.115C434.921 174.697 439.996 179.461 443.043 183.922C448.995 192.657 454.28 203.071 446.26 212.397C445.288 213.532 440.618 216.982 440.773 217.845C442.118 220.176 444.542 220.293 446.509 221.738C459.005 230.932 443.61 254.332 431.37 255.591C425.386 256.205 420.466 254.184 414.855 252.754L404.255 275.051L404.488 275.758C410.721 270.869 414.513 263.766 423.451 267.839C424.632 268.375 432.302 274.911 433.056 275.991C438.426 283.669 427.29 296.08 422.262 301.683C410.876 314.359 391.121 332.87 372.905 322.705C369.952 321.058 368.063 318.555 365.118 317.032C361.971 319.371 359.064 321.742 354.805 321.361C363.657 336.818 360.494 351.685 340.171 350.636C317.797 349.478 295.493 346.836 272.94 348.219C271.806 348.25 270.757 348.701 269.622 348.74C254.04 349.253 238.559 350.146 223.04 351.6C204.59 353.333 179.333 358.78 161.575 357.374C151.946 356.612 143.273 348.849 136.629 342.484C132.339 350.885 129.86 364.034 117.892 363.622C112.218 363.428 106.18 356.651 102.535 352.563C94.5461 343.595 89.4247 333.857 94.8647 321.835M294.335 28.5392C292.781 6.9034 272.886 4.9139 256.566 13.5791C227.788 28.8578 217.359 64.2257 211.794 94.0993C198.225 105.554 182.939 119.877 167.272 128.302C158.902 132.801 154.744 131.558 156.788 121.167L157.262 120.833C158.358 121.245 159.469 121.284 160.635 121.191C179.939 119.59 203.355 96.7184 209.735 79.0772C215.33 63.6042 208.01 53.1436 191.231 57.2081C178.307 60.34 163.852 72.8676 155.614 83.0405C147.796 92.6927 142.939 103.853 137.6 114.942L115.288 97.9075C129.37 86.9963 143.949 75.4711 156.329 62.6326C162.989 55.7238 171.561 47.4005 170.435 36.9945C170.178 34.6553 165.064 18.5374 163.774 17.7058C163.254 17.3716 162.92 17.6125 162.453 17.8534C161.288 18.4518 153.881 29.0831 152.226 31.1659C140.095 46.398 126.417 61.3349 112.894 75.3624C107.952 80.4916 102.714 85.3565 97.7557 90.4701C97.88 85.745 100.631 80.9966 101.968 76.4348C103.126 72.4791 105.131 67.5598 102.038 64.1171L55.6109 35.1761C47.7773 30.4666 49.4559 40.8259 50.6216 45.4422C53.3572 56.2523 64.7579 63.2388 73.563 69.0674C75.8556 70.5828 82.9821 73.4816 83.0675 76.2871C78.8787 92.3119 73.9672 108.243 67.3692 123.437C63.0793 133.306 53.2562 144.466 64.245 153.271C72.8947 160.204 74.0449 155.409 77.7752 147.761C81.5055 140.114 84.4587 131.247 88.6397 124.058C91.1266 119.776 90.9556 120.375 95.2998 122.217C101.245 124.735 107.967 128.535 113.695 131.667C124.21 137.418 136.458 146.728 146.794 151.375C149.832 152.743 151.884 153.132 155.241 152.735C165.181 151.577 185.371 136.586 193.283 129.817C197.207 126.46 201.272 121.447 205.056 118.549C205.538 118.176 205.663 117.616 206.494 117.833C205.647 129.475 204.015 143.969 213.947 152.385C230.959 166.802 250.924 140.285 259.022 127.392C260.77 124.602 273.515 101.894 272.264 100.55C271.308 100.55 270.368 101.428 269.638 102.003C260.094 109.425 242.554 127.936 229.506 124.828C227.532 124.354 225.635 122.1 224.983 120.227C224.252 118.144 223.63 110.762 224.983 109.192C225.729 108.321 235.995 106.938 238.093 106.464C253.799 102.866 267.617 94.8766 278.007 82.5354C280.891 79.1082 285.313 73.9557 284.022 69.3239L299.138 62.1431C299.27 62.827 298.983 63.3244 298.757 63.9228C296.496 69.969 292.214 77.2352 289.455 83.4213C282.562 98.8866 275.723 115.222 269.979 131.154C267.912 136.889 262.402 150.707 262.309 156.131C262.13 166.405 272.521 159.8 276.344 155.766C285.476 146.129 290.255 130.765 297.211 119.504C298.221 118.875 303.42 120.181 305.114 120.258C335.594 121.696 374.599 107.404 392.94 82.2712C407.838 61.8555 400.191 46.6934 383.148 31.6634C361.807 12.8408 328.996 10.043 303.925 23.0214C302.923 23.5421 294.693 28.9744 294.335 28.547V28.5392ZM97.5147 134.154V142.073C97.5147 156.629 124.334 174.262 133.046 185.267C134.841 187.536 134.864 188.733 133.302 191.305L113.913 208.876C112.584 210.843 109.219 222.717 110.975 223.906C113.182 223.821 115.195 221.847 116.943 220.549C129.191 211.426 141.105 200.981 153.252 191.569C161.653 185.057 169.999 178.389 178.882 172.553L170.131 190.683C163.137 207.555 176.232 217.332 191.573 208.286C202.352 201.929 211.289 191.033 221.369 183.604C218.804 189.082 215.237 194.064 212.486 199.434C210.03 204.221 203.829 214.239 209.409 218.373C214.561 222.197 221.516 218.373 226.327 215.669C234.479 211.068 241.536 204.664 248.025 198.004C248.406 204.486 243.067 212.443 250.636 216.508C263.824 223.58 276.399 207.672 285.219 200.405C286.043 201.416 275.668 219.865 276.064 224.652C276.461 229.44 285.421 224.334 287.597 222.694C291.561 219.71 293.799 214.293 295.874 209.848C298.493 204.237 300.312 198.136 303.226 192.735C324.38 204.486 346.249 215.257 368.429 224.971C370.776 225.997 386.676 231.911 386.956 232.883C380.785 247.143 374.739 261.427 369.928 276.232L360.828 284.415C360.579 282.985 361.357 281.019 361.792 279.62C362.693 276.714 363.843 273.597 364.9 270.73C366.525 266.331 374.086 250.213 373.465 246.856C371.498 236.286 351.106 245.9 346.194 249.855C345.876 249.521 349.42 244.485 349.925 243.747C351.759 241.066 358.466 233.232 358.194 230.458C357.898 227.489 348.891 223.821 346.194 223.207C343.498 222.593 340.148 223.852 338.625 226.207C334.957 237.118 331.739 249.583 326.735 259.92C324.193 265.165 315.225 271.818 310.414 275.765C304.71 280.444 295.517 288.394 289.082 291.402C279.818 295.731 277.712 289.218 277.541 281.058C294.327 283.615 310.974 269.455 320.175 256.725C326.672 247.734 340.599 222.197 325.553 215.521C316.507 211.503 304.679 216.353 296.776 221.334C277.425 233.528 264.438 255.902 259.286 277.809L254.258 282.014L253.131 280.724C255.835 266.891 269.342 247.827 267.936 233.784C266.871 223.168 256.146 224.326 248.895 228.181C239.197 233.333 230.112 244.913 223.762 253.702L222.807 253.461C223.436 250.43 223.801 246.18 221.392 243.848C215.828 238.447 206.603 247.438 201.21 249.389C201.575 233.613 188.301 230.815 175.921 236.823C166.269 241.509 160.013 250.664 153.205 258.505C157.013 246.086 172.696 224.427 159.189 213.392C149.296 205.309 138.424 213.337 130.007 219.228C121.591 225.119 114.301 231.709 106.382 237.849C105.892 238.229 103.646 240.118 103.273 239.776C101.906 229.961 102.092 219.64 100.258 209.902C98.6105 201.167 96.6133 199.519 89.3081 194.934C82.4692 190.644 73.2833 186.564 65.5973 184.085C60.4215 182.414 56.8621 179.803 57.1652 187.233C57.5227 195.921 60.2505 204.773 60.0873 213.594L58.6185 240.258C57.4139 240.343 57.7947 240.374 57.6704 239.535C56.9088 234.414 55.9839 224.031 53.3416 219.85C50.6993 215.669 33.6953 200.918 29.4599 200.04C28.7216 199.885 27.9833 199.807 27.2372 199.994C26.1181 200.382 25.9471 202.923 26.0093 203.942C26.2968 209.179 28.8848 216.663 29.7319 222.337C33.6642 248.651 30.035 276.558 18.2301 300.448C12.9999 311.04 2.74927 318.952 12.5413 330.251C15.6266 333.811 17.8027 336.251 22.0847 333.104C42.3839 318.182 57.8258 280.732 74.9386 260.673C75.8789 259.57 76.796 258.326 78.055 257.541C78.9565 257.316 79.1507 270.59 79.2595 271.693C79.4926 274.203 80.7905 289.125 83.8136 289.133L124.381 258.023C119.252 275.68 114.977 293.749 108.418 310.947C106.514 315.944 103.934 320.747 102.077 325.728C99.613 332.311 99.8928 335.295 103.833 341.225C105.263 343.385 111.48 350.993 113.951 350.605C116.905 349.338 118.342 345.616 119.663 342.841C121.606 338.769 123.238 334.052 124.87 329.801C130.155 316.03 134.297 301.784 140.227 288.27C141.494 288.332 140.227 290.151 140.227 290.43V298.59C140.227 305.258 149.483 313.675 155.956 314.545C174.087 317.001 182.356 302.391 192.684 290.438C193.088 289.972 196.562 286.91 197.806 287.228C196.22 292.7 190.555 303.782 189.77 309.276C189.242 312.999 194.091 305.95 194.992 302.997C225.643 202.504 217.584 284.78 212.338 311.18C218.159 298.676 223.871 286.078 231.239 274.39C234.277 269.564 237.743 263.906 242.243 260.432C242.049 265.523 240.238 270.8 238.769 275.68C236.08 284.571 232.614 293.236 229.537 301.994C229.443 308.351 233.889 312.035 240.207 310.729C242.647 310.224 248.546 304.831 250.644 302.927C254.063 299.818 257.079 296.22 260.483 293.08C261.361 292.7 261.54 295.528 261.928 296.43C267.811 310.17 281.108 309.665 292.727 303.238C301.128 298.59 307.966 291.107 314.728 284.439C315.396 284.765 314.642 285.659 314.487 286.117C312.901 290.873 310.313 295.497 309.078 300.393C308.409 303.044 306.871 307.38 311.308 306.984C313.251 306.813 321.644 303.673 322.864 302.181C325.064 299.5 327.83 291.612 329.758 287.951C331.872 283.949 336.876 274.584 340.164 271.95C343.21 269.51 346.863 269.105 346.653 274.087C346.505 277.592 344.073 284.547 342.938 288.169C341.803 291.79 338.571 298.272 338.198 301.707C337.708 306.214 341.897 308.864 345.946 308.927C355.132 309.074 360.23 299.803 366.322 294.51V301.474C366.322 302.398 367.473 306.525 367.97 307.504C370.682 312.789 377.07 313.325 382.27 312.144C394.859 309.284 413.542 290.368 420.194 279.504C422.37 275.952 421.826 274.297 417.327 275.198C409.687 280.607 401.504 289.459 392.715 292.832C381.788 297.021 384.974 285.192 386.831 278.789C390.911 264.738 399.406 251.487 405.716 238.385C412.283 240.351 418.034 244.563 425.269 242.822C430.305 241.61 437.82 232.805 437.742 227.544C437.727 226.316 436.919 223.953 435.784 223.324C432.023 221.241 423.956 220.448 419.596 219.143C420.715 217.961 421.624 216.5 422.712 215.304C426.326 211.293 432.458 206.187 435.442 202.107C437.051 199.9 437.851 197.989 436.989 195.276C435.978 192.09 426.365 176.881 423.583 176.034C422.572 175.731 421.244 175.762 420.552 176.648L396.258 211.503C388.868 210.135 333.589 191.297 332.26 188.158C332.159 187.917 332.027 186.914 332.548 186.976C348.534 183.106 375.687 171.224 380.583 153.955C384.539 140.013 374.312 130.563 361.621 127.594C343.77 123.421 318.435 130.314 304.625 142.321C299.472 146.806 291.258 155.284 301.508 159.372C300.327 161.548 299.076 163.747 298.073 166.009C296.356 169.91 294.397 176.5 292.128 179.741C289.136 184.008 274.262 197.732 269.684 200.025C268.161 200.786 265.907 202.139 264.508 200.701C263.273 199.131 265.41 194.942 266.21 193.193C271.643 181.342 279.927 170.718 286.634 159.613C285.328 158.618 272.536 165.885 270.158 166.895C267.78 167.905 262.06 169.226 260.568 170.143C259.449 170.827 255.548 176.026 254.242 177.379C246.968 184.894 238.932 193.784 229.032 197.53C233.827 188.196 242.002 179.22 245.919 169.537C248.087 164.167 247.73 160.88 240.821 161.043C229.614 161.307 225.433 169.156 217.763 174.503C217.351 174.791 217.289 175.171 216.558 174.977C216.279 168.636 213.613 164.649 209.603 160.087C206.828 156.94 199.508 149.401 195.233 150.031C190.959 150.66 185.705 162.17 183.669 162.97C182.799 163.312 181.61 159.706 180.569 159.364C177.561 157.064 174.134 154.631 170.131 156.147C168.896 156.613 165.445 159.73 164.233 160.81C158.272 166.11 152.956 172.335 146.716 177.371C143.452 171.636 143.079 164.517 138.991 159.178C135.502 154.616 120.34 146.402 114.635 143.215C109.001 140.06 103.157 137.301 97.5069 134.177L97.5147 134.154ZM344.593 336.577C346.552 334.751 346.047 331.254 345.573 328.938C344.609 324.291 340.972 317.281 336.13 315.82C333.519 315.035 327.768 314.755 324.846 314.623C304.314 313.69 282.398 314.771 261.936 315.594C225.161 317.071 184.392 318.649 148.247 324.796C146.063 325.169 137.281 326.513 136.178 327.609C134.81 328.961 136.294 331.441 137.375 332.637C140.973 336.616 150.524 344.419 155.832 344.901C168.795 346.082 186.319 342.025 199.593 340.619C240.875 336.251 281.924 334.067 323.385 336.243C328.196 336.492 333.527 337.557 338.252 337.697C340.148 337.751 343.148 337.922 344.601 336.57L344.593 336.577Z" fill="#FFC3CA"/>
<path d="M97.5143 134.154C103.156 137.278 109.001 140.037 114.643 143.192C120.355 146.386 135.509 154.593 138.999 159.155C143.086 164.494 143.459 171.605 146.723 177.348C152.956 172.312 158.28 166.087 164.24 160.787C165.453 159.706 168.903 156.598 170.139 156.124C174.149 154.608 177.568 157.041 180.576 159.341C181.625 159.683 182.806 163.289 183.677 162.947C185.713 162.147 190.912 150.645 195.241 150.008C199.569 149.37 206.844 156.916 209.61 160.064C213.62 164.626 216.286 168.605 216.566 174.954C217.288 175.148 217.358 174.768 217.77 174.48C225.448 169.133 229.622 161.284 240.828 161.02C247.737 160.857 248.095 164.152 245.926 169.514C242.01 179.197 233.834 188.173 229.039 197.507C238.94 193.761 246.976 184.87 254.25 177.355C255.555 176.003 259.457 170.812 260.576 170.12C262.068 169.203 267.78 167.882 270.166 166.872C272.551 165.861 285.335 158.595 286.641 159.59C279.934 170.695 271.65 181.319 266.218 193.17C265.417 194.911 263.28 199.108 264.516 200.678C265.907 202.115 268.161 200.763 269.692 200.001C274.269 197.709 289.144 183.985 292.136 179.718C294.413 176.477 296.363 169.879 298.081 165.986C299.083 163.724 300.334 161.525 301.516 159.349C291.265 155.261 299.48 146.782 304.632 142.298C318.442 130.291 343.777 123.398 361.628 127.571C374.319 130.54 384.554 139.99 380.591 153.932C375.687 171.2 348.533 183.083 332.555 186.953C332.042 186.891 332.167 187.893 332.268 188.134C333.596 191.274 388.875 210.112 396.266 211.48L420.559 176.625C421.259 175.747 422.588 175.708 423.59 176.011C426.372 176.858 435.986 192.067 436.996 195.253C437.859 197.965 437.066 199.877 435.45 202.084C432.465 206.164 426.334 211.27 422.72 215.28C421.64 216.477 420.723 217.938 419.603 219.119C423.963 220.425 432.03 221.218 435.791 223.3C436.926 223.93 437.734 226.293 437.75 227.52C437.828 232.774 430.313 241.587 425.277 242.799C418.034 244.54 412.283 240.328 405.724 238.362C399.405 251.464 390.919 264.715 386.839 278.766C384.981 285.169 381.787 296.997 392.722 292.809C401.511 289.444 409.695 280.584 417.334 275.175C421.834 274.273 422.37 275.929 420.202 279.48C413.549 290.353 394.867 309.269 382.277 312.121C377.086 313.302 370.69 312.766 367.977 307.481C367.472 306.502 366.33 302.375 366.33 301.45V294.487C360.237 299.78 355.131 309.051 345.953 308.903C341.896 308.841 337.708 306.191 338.205 301.684C338.578 298.249 341.795 291.837 342.946 288.146C344.096 284.454 346.513 277.569 346.66 274.064C346.87 269.082 343.217 269.486 340.171 271.927C336.892 274.553 331.879 283.926 329.765 287.928C327.83 291.581 325.071 299.477 322.872 302.158C321.644 303.65 313.251 306.789 311.316 306.96C306.878 307.357 308.417 303.02 309.085 300.37C310.321 295.474 312.909 290.85 314.494 286.094C314.65 285.628 315.403 284.734 314.735 284.415C307.974 291.091 301.135 298.567 292.734 303.215C281.116 309.642 267.819 310.139 261.936 296.407C261.555 295.505 261.376 292.676 260.49 293.057C257.086 296.189 254.071 299.795 250.651 302.904C248.553 304.808 242.655 310.201 240.214 310.706C233.888 312.02 229.451 308.328 229.544 301.971C232.614 293.213 236.088 284.547 238.777 275.657C240.253 270.776 242.056 265.499 242.25 260.409C237.751 263.891 234.285 269.541 231.246 274.367C223.886 286.055 214.483 312.222 212.346 311.157C204.302 311.367 214.25 281.276 214.732 274.079C216.146 252.778 193.259 326.708 189.777 309.253C188.915 304.917 197.051 290.26 196.298 288.721C196.111 288.332 195.458 289.148 195.046 289.614C184.718 301.567 174.087 316.978 155.956 314.522C149.49 313.644 140.226 305.235 140.226 298.567V290.407C140.226 290.135 141.493 288.309 140.226 288.247C134.289 301.761 130.155 316.006 124.87 329.777C123.238 334.028 121.606 338.746 119.663 342.818C118.342 345.585 116.904 349.315 113.951 350.582C111.48 350.97 105.263 343.362 103.833 341.202C99.8924 335.272 99.6126 332.288 102.076 325.705C103.941 320.724 106.514 315.929 108.418 310.924C114.977 293.726 119.251 275.657 124.38 258L83.8132 289.109C80.7901 289.109 79.5 274.18 79.2591 271.67C79.1581 270.566 78.9561 257.293 78.0546 257.518C76.7956 258.295 75.8864 259.547 74.9382 260.65C57.8177 280.708 42.3757 318.167 22.0844 333.08C17.8023 336.228 15.6263 333.788 12.541 330.228C2.74114 318.928 12.9918 311.009 18.2298 300.425C30.0346 276.535 33.6639 248.628 29.7315 222.313C28.8844 216.64 26.2965 209.156 26.0089 203.918C25.9545 202.9 26.1178 200.359 27.2369 199.97C27.9829 199.784 28.7134 199.862 29.4595 200.017C33.695 200.895 50.8078 215.816 53.3413 219.827C55.8748 223.837 56.9006 234.39 57.67 239.512C57.7944 240.343 57.4135 240.32 58.6181 240.234L60.0869 213.57C60.2501 204.758 57.5223 195.898 57.1649 187.21C56.8618 179.78 60.4133 182.391 65.5969 184.062C73.2907 186.541 82.4688 190.621 89.3077 194.911C96.6129 199.504 98.6179 201.144 100.258 209.879C102.092 219.609 101.905 229.937 103.273 239.753C103.638 240.087 105.892 238.198 106.382 237.825C114.301 231.686 121.769 224.971 130.007 219.205C138.245 213.438 149.296 205.286 159.189 213.369C172.696 224.404 157.013 246.063 153.205 258.482C160.013 250.64 166.269 241.478 175.921 236.799C188.301 230.784 201.575 233.582 201.209 249.366C206.603 247.415 215.827 238.432 221.392 243.825C223.801 246.164 223.436 250.415 222.806 253.438L223.762 253.679C230.111 244.89 239.188 233.318 248.895 228.158C256.146 224.303 266.863 223.145 267.935 233.761C269.35 247.804 255.835 266.867 253.13 280.701L254.257 281.991L259.286 277.786C264.438 255.878 277.424 233.512 296.775 221.311C304.679 216.329 316.507 211.48 325.553 215.498C340.599 222.174 326.664 247.718 320.175 256.702C310.981 269.424 294.327 283.584 277.541 281.035C277.712 289.187 279.818 295.707 289.081 291.379C295.516 288.371 304.71 280.421 310.414 275.742C315.225 271.794 324.193 265.142 326.734 259.896C331.739 249.56 334.956 237.095 338.625 226.184C340.148 223.829 343.497 222.562 346.194 223.184C348.891 223.806 357.898 227.474 358.193 230.435C358.465 233.209 351.758 241.043 349.924 243.724C349.419 244.462 345.875 249.49 346.194 249.832C351.098 245.877 371.498 236.263 373.464 246.832C374.086 250.19 366.524 266.3 364.9 270.706C363.843 273.582 362.693 276.691 361.791 279.597C361.356 280.996 360.579 282.962 360.828 284.392L369.928 276.209C374.739 261.404 380.777 247.12 386.955 232.859C386.676 231.888 370.775 225.974 368.428 224.948C346.248 215.234 324.372 204.462 303.226 192.712C300.311 198.113 298.493 204.221 295.874 209.825C293.799 214.27 291.561 219.687 287.597 222.671C285.421 224.311 276.476 229.557 276.064 224.629C275.652 219.702 286.043 201.393 285.219 200.382C276.398 207.656 263.824 223.557 250.636 216.485C243.059 212.42 248.398 204.462 248.025 197.981C241.535 204.641 234.479 211.053 226.327 215.646C221.516 218.358 214.561 222.174 209.408 218.35C203.828 214.208 210.03 204.198 212.486 199.411C215.245 194.041 218.812 189.059 221.368 183.58C211.289 191.01 202.352 201.906 191.573 208.263C176.232 217.309 163.129 207.532 170.131 190.66L178.882 172.529C169.999 178.366 161.652 185.034 153.251 191.546C141.112 200.957 129.191 211.402 116.943 220.526C115.194 221.832 113.174 223.805 110.975 223.883C109.226 222.694 112.591 210.819 113.912 208.853L133.302 191.282C134.864 188.71 134.841 187.513 133.046 185.243C124.334 174.239 97.5143 156.606 97.5143 142.05V134.13V134.154ZM333.596 148.694C331.77 148.881 324.496 150.381 323.385 151.445L311.525 176.081L311.844 177.34C321.481 174.224 332.361 171.294 340.762 165.465C354.035 156.248 348.572 147.194 333.589 148.694H333.596ZM198.178 167.851C194.021 169.11 185.519 186.013 184.275 190.427C183.482 193.264 181.983 197.344 186.513 195.541C192.762 193.046 203.704 178.902 203.02 171.97C202.74 169.11 201.341 166.887 198.178 167.851ZM284.255 265.204C292.703 264.349 301.881 260.075 307.282 253.43C309.823 250.306 312.676 245.503 311.184 241.4C310.849 241.004 310.414 240.802 309.909 240.724C304.951 239.947 296.356 250.244 292.905 253.462L284.255 265.204ZM181.874 260.028C174.965 261.412 164.823 275.859 162.235 282.162C159.647 288.464 156.166 305.437 167.932 301.303C177.794 297.837 185.091 283.195 186.684 273.489C187.298 269.727 188.2 258.762 181.874 260.028Z" fill="url(#paint0_linear_242_158)"/>
<path d="M294.336 28.5393C294.693 28.9667 302.923 23.5266 303.926 23.0137C328.997 10.0431 361.808 12.8331 383.148 31.6556C400.191 46.6857 407.838 61.8555 392.94 82.2634C374.592 107.396 335.595 121.688 305.115 120.251C303.421 120.173 298.222 118.867 297.211 119.497C290.256 130.758 285.476 146.13 276.345 155.758C272.521 159.792 262.123 166.398 262.309 156.124C262.403 150.699 267.913 136.889 269.98 131.146C275.723 115.222 282.562 98.8866 289.455 83.4136C292.214 77.2275 296.496 69.9613 298.758 63.9151C298.983 63.3167 299.271 62.8193 299.139 62.1354L284.023 69.3162C285.313 73.948 280.899 79.1005 278.008 82.5277C267.61 94.8688 253.8 102.858 238.093 106.456C235.995 106.938 225.729 108.321 224.983 109.184C223.631 110.754 224.252 118.137 224.983 120.219C225.636 122.092 227.532 124.346 229.506 124.82C242.547 127.929 260.095 109.417 269.638 101.995C270.369 101.428 271.309 100.55 272.265 100.542C273.524 101.886 260.778 124.595 259.022 127.385C250.924 140.278 230.959 166.794 213.948 152.378C204.016 143.961 205.648 129.467 206.495 117.826C205.663 117.608 205.539 118.168 205.057 118.541C201.28 121.44 197.216 126.452 193.283 129.809C185.372 136.578 165.174 151.577 155.242 152.728C151.877 153.116 149.833 152.728 146.794 151.368C136.458 146.72 124.21 137.418 113.695 131.659C107.968 128.527 101.245 124.727 95.3003 122.209C90.956 120.367 91.127 119.769 88.6402 124.051C84.4669 131.239 81.4593 140.215 77.7756 147.754C74.092 155.292 72.8951 160.196 64.2455 153.264C53.2566 144.451 63.0798 133.299 67.3696 123.429C73.9676 108.236 78.8869 92.3042 83.068 76.2794C82.9825 73.4739 75.856 70.5751 73.5635 69.0597C64.7584 63.2311 53.3576 56.2446 50.622 45.4345C49.4563 40.8182 47.7699 30.4588 55.6114 35.1684L102.038 64.1094C105.131 67.5599 103.126 72.4714 101.968 76.427C100.639 80.9889 97.8882 85.7295 97.7561 90.4624C102.714 85.3487 107.952 80.4838 112.895 75.3547C126.417 61.3271 140.095 46.3825 152.226 31.1582C153.882 29.0832 161.288 18.4441 162.454 17.8457C162.92 17.6048 163.254 17.3639 163.775 17.6981C165.073 18.5296 170.186 34.6476 170.435 36.9868C171.562 47.3928 162.99 55.7238 156.33 62.6249C143.95 75.4634 129.37 86.9963 115.289 97.8997L137.6 114.935C142.94 103.853 147.797 92.685 155.615 83.0328C163.853 72.8599 178.308 60.3323 191.232 57.2004C208.01 53.1359 215.331 63.5964 209.735 79.0695C203.355 96.7107 179.94 119.582 160.635 121.183C159.469 121.276 158.366 121.237 157.262 120.826L156.788 121.16C154.744 131.55 158.902 132.794 167.272 128.294C182.947 119.87 198.226 105.547 211.795 94.0916C217.359 64.218 227.789 28.8579 256.566 13.5714C272.886 4.90618 292.774 6.89568 294.336 28.5315V28.5393ZM230.011 89.5065C245.717 84.968 262.993 69.4561 266.265 53.0428C267.042 49.1337 267.913 43.9501 265.053 40.7871C261.579 39.1085 255.882 45.7765 253.761 48.2245C247.963 54.9313 242.313 64.0938 238.086 71.9119C237.083 73.7616 229.343 88.8071 230.011 89.5143V89.5065ZM304.415 104.381C320.417 102.065 342.853 94.9854 353.842 82.5277C368.025 66.4563 352.327 51.9857 334.864 56.8274L315.731 85.2244L304.408 104.381H304.415ZM157.527 109.184C166.378 107.055 174.771 102.524 181.75 96.6951C184.447 94.4414 191.542 87.7657 192.055 84.4395C193.454 75.2924 181.719 83.9499 178.898 86.1647C173.994 90.0116 169.961 94.8611 165.438 99.1044L157.527 109.192V109.184Z" fill="url(#paint1_linear_242_158)"/>
<path d="M344.593 336.576C343.14 337.936 340.14 337.765 338.244 337.703C333.519 337.563 328.188 336.498 323.377 336.25C281.924 334.074 240.867 336.25 199.585 340.625C186.312 342.032 168.787 346.088 155.824 344.907C150.508 344.425 140.965 336.623 137.367 332.644C136.287 331.455 134.802 328.968 136.17 327.616C137.274 326.52 146.055 325.175 148.239 324.802C184.392 318.655 225.153 317.077 261.928 315.601C282.398 314.777 304.306 313.697 324.838 314.629C327.768 314.762 333.519 315.034 336.122 315.826C340.964 317.287 344.601 324.297 345.565 328.945C346.047 331.253 346.544 334.758 344.586 336.584L344.593 336.576Z" fill="url(#paint2_linear_242_158)"/>
<path d="M333.596 148.691C348.572 147.191 354.043 156.245 340.77 165.462C332.369 171.291 321.488 174.221 311.852 177.337L311.533 176.078L323.392 151.442C324.496 150.378 331.77 148.878 333.604 148.691H333.596Z" fill="#FFC3CA"/>
<path d="M181.874 260.027C188.2 258.76 187.298 269.718 186.685 273.487C185.099 283.194 177.794 297.828 167.932 301.302C156.166 305.444 159.725 288.261 162.235 282.16C164.746 276.06 174.973 261.418 181.874 260.027ZM181.408 268.669C180.219 267.387 176.986 270.099 175.991 270.946C171.623 274.684 163.603 286.233 165.422 292.108C167.085 297.486 173.566 291.059 175.276 288.953C177.965 285.626 184.687 272.197 181.408 268.669Z" fill="#FFC3CA"/>
<path d="M284.256 265.205L292.906 253.463C296.356 250.245 304.951 239.948 309.91 240.725C310.415 240.803 310.85 241.005 311.184 241.401C312.676 245.505 309.824 250.307 307.283 253.432C301.882 260.076 292.703 264.351 284.256 265.205Z" fill="#FFC3CA"/>
<path d="M198.179 167.849C201.342 166.886 202.741 169.108 203.021 171.968C203.704 178.9 192.762 193.044 186.514 195.539C181.983 197.342 183.483 193.262 184.276 190.426C185.519 186.004 194.021 169.108 198.179 167.849Z" fill="#FFC3CA"/>
<path d="M304.415 104.381L315.738 85.2246L334.871 56.8276C352.334 51.9859 368.032 66.4565 353.849 82.5279C342.861 94.9856 320.424 102.065 304.423 104.381H304.415ZM342.208 64.1406C341.601 64.3116 337.133 68.9355 336.332 69.8137C334.234 72.114 321.201 88.5974 321.225 90.2294L321.893 91.4573C323.828 92.9495 330.768 89.6234 332.882 88.4421C338.104 85.5356 349.8 76.3573 349.979 70.0002C350.072 66.6429 345.277 63.2469 342.208 64.1251V64.1406Z" fill="#FFC3CA"/>
<path d="M230.011 89.5066C229.342 88.7994 237.083 73.7539 238.085 71.9042C242.313 64.0861 247.963 54.9236 253.76 48.2168C255.874 45.7688 261.578 39.1008 265.052 40.7794C267.912 43.9502 267.049 49.126 266.265 53.0351C262.985 69.4484 245.709 84.9602 230.011 89.4988V89.5066Z" fill="#FFC3CA"/>
<path d="M157.526 109.183L165.438 99.0955C169.961 94.8523 174.002 90.0028 178.898 86.1559C181.719 83.941 193.454 75.2836 192.055 84.4306C191.542 87.7568 184.447 94.4403 181.75 96.6863C174.771 102.515 166.37 107.046 157.526 109.175V109.183Z" fill="#FFC3CA"/>
<path d="M181.408 268.671C184.68 272.199 177.958 285.628 175.276 288.954C173.567 291.06 167.085 297.487 165.422 292.109C163.611 286.234 171.624 274.686 175.991 270.948C176.978 270.101 180.219 267.388 181.408 268.671Z" fill="#FFC3CA"/>
<path d="M342.207 64.1404C345.284 63.2622 350.071 66.6582 349.978 70.0155C349.807 76.3726 338.103 85.5429 332.881 88.4572C330.767 89.6307 323.827 92.9648 321.892 91.4726L321.224 90.2447C321.193 88.6127 334.233 72.1216 336.331 69.829C337.132 68.9508 341.601 64.3269 342.207 64.156V64.1404Z" fill="#FFC3CA"/>
<path d="M333.596 148.691C348.572 147.191 354.043 156.245 340.77 165.462C332.369 171.291 321.488 174.221 311.852 177.337L311.533 176.078L323.392 151.442C324.496 150.378 331.77 148.878 333.604 148.691H333.596Z" fill="#FFC3CA"/>
<path d="M181.874 260.027C188.2 258.76 187.298 269.718 186.685 273.487C185.099 283.194 177.794 297.828 167.932 301.302C156.166 305.444 159.725 288.261 162.235 282.16C164.746 276.06 174.973 261.418 181.874 260.027ZM181.408 268.669C180.219 267.387 176.986 270.099 175.991 270.946C171.623 274.684 163.603 286.233 165.422 292.108C167.085 297.486 173.566 291.059 175.276 288.953C177.965 285.626 184.687 272.197 181.408 268.669Z" fill="#FFC3CA"/>
<path d="M284.256 265.205L292.906 253.463C296.356 250.245 304.951 239.948 309.91 240.725C310.415 240.803 310.85 241.005 311.184 241.401C312.676 245.505 309.824 250.307 307.283 253.432C301.882 260.076 292.703 264.351 284.256 265.205Z" fill="#FFC3CA"/>
<path d="M198.179 167.849C201.342 166.886 202.741 169.108 203.021 171.968C203.704 178.9 192.762 193.044 186.514 195.539C181.983 197.342 183.483 193.262 184.276 190.426C185.519 186.004 194.021 169.108 198.179 167.849Z" fill="#FFC3CA"/>
<path d="M304.415 104.381L315.738 85.2246L334.871 56.8276C352.334 51.9859 368.032 66.4565 353.849 82.5279C342.861 94.9856 320.424 102.065 304.423 104.381H304.415ZM342.208 64.1406C341.601 64.3116 337.133 68.9355 336.332 69.8137C334.234 72.114 321.201 88.5974 321.225 90.2294L321.893 91.4573C323.828 92.9495 330.768 89.6234 332.882 88.4421C338.104 85.5356 349.8 76.3573 349.979 70.0002C350.072 66.6429 345.277 63.2469 342.208 64.1251V64.1406Z" fill="#FFC3CA"/>
<path d="M230.011 89.5066C229.342 88.7994 237.083 73.7539 238.085 71.9042C242.313 64.0861 247.963 54.9236 253.76 48.2168C255.874 45.7688 261.578 39.1008 265.052 40.7794C267.912 43.9502 267.049 49.126 266.265 53.0351C262.985 69.4484 245.709 84.9602 230.011 89.4988V89.5066Z" fill="#FFC3CA"/>
<path d="M157.526 109.183L165.438 99.0955C169.961 94.8523 174.002 90.0028 178.898 86.1559C181.719 83.941 193.454 75.2836 192.055 84.4306C191.542 87.7568 184.447 94.4403 181.75 96.6863C174.771 102.515 166.37 107.046 157.526 109.175V109.183Z" fill="#FFC3CA"/>
<path d="M181.408 268.671C184.68 272.199 177.958 285.628 175.276 288.954C173.567 291.06 167.085 297.487 165.422 292.109C163.611 286.234 171.624 274.686 175.991 270.948C176.978 270.101 180.219 267.388 181.408 268.671Z" fill="#FFC3CA"/>
<path d="M342.207 64.1404C345.284 63.2622 350.071 66.6582 349.978 70.0155C349.807 76.3726 338.103 85.5429 332.881 88.4572C330.767 89.6307 323.827 92.9648 321.892 91.4726L321.224 90.2447C321.193 88.6127 334.233 72.1216 336.331 69.829C337.132 68.9508 341.601 64.3269 342.207 64.156V64.1404Z" fill="#FFC3CA"/>
<defs>
<linearGradient id="paint0_linear_242_158" x1="223.104" y1="126.348" x2="223.104" y2="350.596" gradientUnits="userSpaceOnUse">
<stop stop-color="#FF475D"/>
<stop offset="0.668269" stop-color="#D0152B"/>
</linearGradient>
<linearGradient id="paint1_linear_242_158" x1="225.25" y1="8.77344" x2="225.25" y2="161.596" gradientUnits="userSpaceOnUse">
<stop stop-color="#FF475D"/>
<stop offset="0.668269" stop-color="#D0152B"/>
</linearGradient>
<linearGradient id="paint2_linear_242_158" x1="240.81" y1="314.27" x2="240.81" y2="345.12" gradientUnits="userSpaceOnUse">
<stop stop-color="#FF475D"/>
<stop offset="0.668269" stop-color="#D0152B"/>
</linearGradient>
</defs>
</svg>
