<svg width="506" height="356" viewBox="0 0 506 356" fill="none" xmlns="http://www.w3.org/2000/svg">
<g filter="url(#filter0_nn_242_340)">
<mask id="path-1-outside-1_242_340" maskUnits="userSpaceOnUse" x="0.197754" y="-0.307129" width="506" height="357" fill="black">
<rect fill="white" x="0.197754" y="-0.307129" width="506" height="357"/>
<path d="M381.983 147.506H439.597L468.284 168.767L462.415 201.167L453.251 207.156L434.686 177.511L417.797 204.88L386.056 265.668L439.597 287.228L392.375 316.727L370.485 328.79L349.463 287.228L366.472 242.346L402.945 174.336L362.891 197.274L361.082 150.096L366.472 134.908L381.983 147.506ZM242.186 142.2L270.41 176.311L270.608 176.551L270.462 176.827L223.389 265.523L223.318 265.658L223.181 265.724L111.127 320.284L110.942 320.374L110.75 320.296L94.0405 313.589L93.6372 313.427L93.77 313.013L105.329 277.08L105.406 276.839L105.649 276.772L131.093 269.774L146.226 220.093L146.227 220.089L162.756 167.305L162.843 167.027L163.132 166.984L186.362 163.479L186.68 163.431L186.838 163.711L192.4 173.551L236.209 144.788L236.232 144.773L236.257 144.76L241.618 142.081L241.95 141.915L242.186 142.2ZM315.261 137.157L355.021 152.792L355.304 152.904L355.316 153.208L358.734 239.242L358.738 239.346L358.697 239.443L335.879 292.984L335.797 293.177L335.598 293.244L309.068 302.167L308.996 302.192H256.884L256.745 302.009L232.522 270.555L232.348 270.329L232.47 270.071L277.284 175.671L261.577 157.553L261.135 157.043L261.768 156.81L314.929 137.154L315.096 137.091L315.261 137.157ZM314.161 173.411L294.756 192.456L294.682 192.529L294.646 192.627L274.462 247.486L274.348 247.798L274.606 248.008L292.932 262.981L293.135 263.147L293.382 263.06L319.914 253.717L320.161 253.629L320.215 253.373L325.066 230.195L325.076 230.148V182.091L324.911 181.952L314.79 173.387L314.464 173.113L314.161 173.411ZM226.97 28.8687L223.617 48.6323L223.562 48.9536L223.242 49.0132L205.383 52.3237L188.719 85.8335L188.605 86.062L188.352 86.0894L151.558 90.1304L144.915 106.798L185.215 98.7632L186.014 98.603L185.748 99.3735L177.363 123.569L177.281 123.807L177.036 123.869L133.559 134.827L116.477 183.39L125.148 179.055L125.462 178.898L125.701 179.157L136.661 191.075L137.024 191.469L136.582 191.775L47.4067 253.281L46.481 253.919L46.6821 252.813L55.9653 201.907L56.0142 201.641L56.2681 201.551L75.5024 194.723L100.061 149.114L37.9175 165.43L37.7612 165.471L37.6138 165.408L32.7622 163.311L32.1978 163.067L32.5854 162.589L71.5132 114.558L71.6538 114.385H111.972L119.81 92.2974L106.614 94.0532L106.344 94.0894L106.18 93.8726L84.7397 65.605L84.2642 64.978L85.0425 64.8618L196.757 48.1519V36.6411L197.098 36.5464L226.384 28.3413L227.094 28.1421L226.97 28.8687ZM226.914 176.546L208.048 185.291L207.888 185.365L207.817 185.527L184.161 239.667L183.875 240.321H186.49L186.63 240.145L233.165 181.752L233.457 181.386L233.088 181.095L227.399 176.604L227.174 176.426L226.914 176.546ZM207.678 62.9937L227.442 139.413L227.53 139.751L227.229 139.93L196.053 158.533L195.437 158.9L195.35 158.188L194.426 150.594L194.409 150.455L194.472 150.329L196.519 146.245V118.738L184.686 124.904L183.917 147.93L183.908 148.196L183.675 148.324L139.297 172.699L138.919 172.906L138.682 172.546L136.946 169.911L136.805 169.698L136.91 169.463L153.319 132.751L153.412 132.543L153.633 132.489L178.674 126.317L191.041 95.7583L171.618 99.3833L170.943 99.5093L171.074 98.8354L172.811 89.9116L172.879 89.5591L173.239 89.5356L190.153 88.4399L202.735 62.9048L202.864 62.644H207.587L207.678 62.9937ZM322.122 46.1763L314.755 70.7915L314.686 71.0239L314.455 71.1001L291.595 78.6401C291.407 79.1066 291.227 79.7809 291.06 80.5679C290.872 81.4531 290.709 82.448 290.575 83.3843C290.441 84.3197 290.337 85.192 290.266 85.8306C290.247 86.0006 290.231 86.1541 290.217 86.2876L317.781 82.6519L317.972 82.6265L318.125 82.7427L329.669 91.5474L330.503 92.1831L329.472 92.3765L315.131 95.0679L299.444 98.8726V101.498C299.672 101.464 299.971 101.421 300.333 101.368C301.251 101.233 302.58 101.038 304.224 100.8C307.513 100.324 312.064 99.6735 317.112 98.9722C327.205 97.5698 339.296 95.966 347.261 95.1665L347.909 95.1021L347.762 95.7358L343.243 115.349V115.351L338.359 136.223L338.239 136.739L337.742 136.554L314.316 127.814L256.3 151.861L255.953 152.005L255.739 151.696L251.4 145.442V145.441L247.254 139.639L246.898 139.141L247.473 138.93L260.875 134.016L275 128.719L290.483 98.9722H278.958L262.788 98.4331L261.834 98.4019L262.445 97.6685L287.74 67.2915H278.738L278.598 67.1021L269.615 54.9438L269.163 54.3315L269.914 54.2065L321.598 45.5825L322.336 45.4595L322.122 46.1763ZM397.091 27.3325L402.781 31.0464L403.107 31.2593L402.956 31.6187L392.278 56.9312L420.85 49.5737L421.509 49.4038L421.43 50.0796L420.089 61.436L420.052 61.7515L419.746 61.8325L380.238 72.2993L359.013 142.906L358.863 143.407L358.382 143.2L345.285 137.567L344.93 137.415L345.013 137.038L357.944 78.3267L332.579 85.3081L332.084 85.4438L331.996 84.939L328.641 65.894L328.557 65.4175L329.037 65.3511L360.641 60.9624L365.179 41.9292L365.232 41.7075L365.439 41.6128L396.641 27.2993L396.875 27.1919L397.091 27.3325ZM459.75 22.9009L482.208 45.1792L482.438 45.4077L482.304 45.7026L439.244 141.107L439.12 141.381H384.144L384.004 141.193L373.238 126.695L373.103 126.512L373.163 126.293L386.118 78.9399L386.181 78.7065L386.409 78.6245L422.559 65.4575L428.521 43.1567L398.742 50.479L397.626 50.7524L398.234 49.7788L402.129 43.5239L402.215 43.3872L402.367 43.3325L459.262 22.7925L459.54 22.6929L459.75 22.9009ZM258.427 41.936L272.997 70.2427L279.065 71.4536L279.903 71.6206L279.31 72.2358L260.479 91.7632L260.341 91.9058H254.846L254.707 91.7212L245.806 80.0298L232.482 88.7593C232.374 93.7107 233.135 100.581 233.935 106.271C234.341 109.158 234.756 111.733 235.069 113.585C235.225 114.512 235.357 115.258 235.449 115.772C235.468 115.881 235.486 115.979 235.501 116.067C235.523 116.061 235.546 116.055 235.569 116.048C235.925 115.947 236.439 115.794 237.068 115.592C238.327 115.188 240.043 114.584 241.873 113.792C243.704 113 245.64 112.022 247.344 110.869C249.052 109.713 250.5 108.4 251.385 106.947L251.51 106.743L251.749 106.724L281.813 104.449L282.629 104.387L282.267 105.121L273.104 123.686L273.015 123.866L272.825 123.925L256.261 129.092L256.252 129.095L256.244 129.097L233.013 135.351L232.557 135.474L232.44 135.017L213.677 61.7524L213.58 61.3706L213.94 61.2104L257.823 41.7231L258.226 41.5444L258.427 41.936ZM439.293 69.8149L423.934 76.3872L411.456 79.9536L411.22 80.021L411.142 80.2524L397.651 120.102L397.427 120.762L398.124 120.717L420.522 119.28L420.773 119.264L420.897 119.045L426.647 108.984L426.668 108.946L426.683 108.904L439.918 70.395L440.26 69.4009L439.293 69.8149Z"/>
</mask>
<path d="M381.983 147.506H439.597L468.284 168.767L462.415 201.167L453.251 207.156L434.686 177.511L417.797 204.88L386.056 265.668L439.597 287.228L392.375 316.727L370.485 328.79L349.463 287.228L366.472 242.346L402.945 174.336L362.891 197.274L361.082 150.096L366.472 134.908L381.983 147.506ZM242.186 142.2L270.41 176.311L270.608 176.551L270.462 176.827L223.389 265.523L223.318 265.658L223.181 265.724L111.127 320.284L110.942 320.374L110.75 320.296L94.0405 313.589L93.6372 313.427L93.77 313.013L105.329 277.08L105.406 276.839L105.649 276.772L131.093 269.774L146.226 220.093L146.227 220.089L162.756 167.305L162.843 167.027L163.132 166.984L186.362 163.479L186.68 163.431L186.838 163.711L192.4 173.551L236.209 144.788L236.232 144.773L236.257 144.76L241.618 142.081L241.95 141.915L242.186 142.2ZM315.261 137.157L355.021 152.792L355.304 152.904L355.316 153.208L358.734 239.242L358.738 239.346L358.697 239.443L335.879 292.984L335.797 293.177L335.598 293.244L309.068 302.167L308.996 302.192H256.884L256.745 302.009L232.522 270.555L232.348 270.329L232.47 270.071L277.284 175.671L261.577 157.553L261.135 157.043L261.768 156.81L314.929 137.154L315.096 137.091L315.261 137.157ZM314.161 173.411L294.756 192.456L294.682 192.529L294.646 192.627L274.462 247.486L274.348 247.798L274.606 248.008L292.932 262.981L293.135 263.147L293.382 263.06L319.914 253.717L320.161 253.629L320.215 253.373L325.066 230.195L325.076 230.148V182.091L324.911 181.952L314.79 173.387L314.464 173.113L314.161 173.411ZM226.97 28.8687L223.617 48.6323L223.562 48.9536L223.242 49.0132L205.383 52.3237L188.719 85.8335L188.605 86.062L188.352 86.0894L151.558 90.1304L144.915 106.798L185.215 98.7632L186.014 98.603L185.748 99.3735L177.363 123.569L177.281 123.807L177.036 123.869L133.559 134.827L116.477 183.39L125.148 179.055L125.462 178.898L125.701 179.157L136.661 191.075L137.024 191.469L136.582 191.775L47.4067 253.281L46.481 253.919L46.6821 252.813L55.9653 201.907L56.0142 201.641L56.2681 201.551L75.5024 194.723L100.061 149.114L37.9175 165.43L37.7612 165.471L37.6138 165.408L32.7622 163.311L32.1978 163.067L32.5854 162.589L71.5132 114.558L71.6538 114.385H111.972L119.81 92.2974L106.614 94.0532L106.344 94.0894L106.18 93.8726L84.7397 65.605L84.2642 64.978L85.0425 64.8618L196.757 48.1519V36.6411L197.098 36.5464L226.384 28.3413L227.094 28.1421L226.97 28.8687ZM226.914 176.546L208.048 185.291L207.888 185.365L207.817 185.527L184.161 239.667L183.875 240.321H186.49L186.63 240.145L233.165 181.752L233.457 181.386L233.088 181.095L227.399 176.604L227.174 176.426L226.914 176.546ZM207.678 62.9937L227.442 139.413L227.53 139.751L227.229 139.93L196.053 158.533L195.437 158.9L195.35 158.188L194.426 150.594L194.409 150.455L194.472 150.329L196.519 146.245V118.738L184.686 124.904L183.917 147.93L183.908 148.196L183.675 148.324L139.297 172.699L138.919 172.906L138.682 172.546L136.946 169.911L136.805 169.698L136.91 169.463L153.319 132.751L153.412 132.543L153.633 132.489L178.674 126.317L191.041 95.7583L171.618 99.3833L170.943 99.5093L171.074 98.8354L172.811 89.9116L172.879 89.5591L173.239 89.5356L190.153 88.4399L202.735 62.9048L202.864 62.644H207.587L207.678 62.9937ZM322.122 46.1763L314.755 70.7915L314.686 71.0239L314.455 71.1001L291.595 78.6401C291.407 79.1066 291.227 79.7809 291.06 80.5679C290.872 81.4531 290.709 82.448 290.575 83.3843C290.441 84.3197 290.337 85.192 290.266 85.8306C290.247 86.0006 290.231 86.1541 290.217 86.2876L317.781 82.6519L317.972 82.6265L318.125 82.7427L329.669 91.5474L330.503 92.1831L329.472 92.3765L315.131 95.0679L299.444 98.8726V101.498C299.672 101.464 299.971 101.421 300.333 101.368C301.251 101.233 302.58 101.038 304.224 100.8C307.513 100.324 312.064 99.6735 317.112 98.9722C327.205 97.5698 339.296 95.966 347.261 95.1665L347.909 95.1021L347.762 95.7358L343.243 115.349V115.351L338.359 136.223L338.239 136.739L337.742 136.554L314.316 127.814L256.3 151.861L255.953 152.005L255.739 151.696L251.4 145.442V145.441L247.254 139.639L246.898 139.141L247.473 138.93L260.875 134.016L275 128.719L290.483 98.9722H278.958L262.788 98.4331L261.834 98.4019L262.445 97.6685L287.74 67.2915H278.738L278.598 67.1021L269.615 54.9438L269.163 54.3315L269.914 54.2065L321.598 45.5825L322.336 45.4595L322.122 46.1763ZM397.091 27.3325L402.781 31.0464L403.107 31.2593L402.956 31.6187L392.278 56.9312L420.85 49.5737L421.509 49.4038L421.43 50.0796L420.089 61.436L420.052 61.7515L419.746 61.8325L380.238 72.2993L359.013 142.906L358.863 143.407L358.382 143.2L345.285 137.567L344.93 137.415L345.013 137.038L357.944 78.3267L332.579 85.3081L332.084 85.4438L331.996 84.939L328.641 65.894L328.557 65.4175L329.037 65.3511L360.641 60.9624L365.179 41.9292L365.232 41.7075L365.439 41.6128L396.641 27.2993L396.875 27.1919L397.091 27.3325ZM459.75 22.9009L482.208 45.1792L482.438 45.4077L482.304 45.7026L439.244 141.107L439.12 141.381H384.144L384.004 141.193L373.238 126.695L373.103 126.512L373.163 126.293L386.118 78.9399L386.181 78.7065L386.409 78.6245L422.559 65.4575L428.521 43.1567L398.742 50.479L397.626 50.7524L398.234 49.7788L402.129 43.5239L402.215 43.3872L402.367 43.3325L459.262 22.7925L459.54 22.6929L459.75 22.9009ZM258.427 41.936L272.997 70.2427L279.065 71.4536L279.903 71.6206L279.31 72.2358L260.479 91.7632L260.341 91.9058H254.846L254.707 91.7212L245.806 80.0298L232.482 88.7593C232.374 93.7107 233.135 100.581 233.935 106.271C234.341 109.158 234.756 111.733 235.069 113.585C235.225 114.512 235.357 115.258 235.449 115.772C235.468 115.881 235.486 115.979 235.501 116.067C235.523 116.061 235.546 116.055 235.569 116.048C235.925 115.947 236.439 115.794 237.068 115.592C238.327 115.188 240.043 114.584 241.873 113.792C243.704 113 245.64 112.022 247.344 110.869C249.052 109.713 250.5 108.4 251.385 106.947L251.51 106.743L251.749 106.724L281.813 104.449L282.629 104.387L282.267 105.121L273.104 123.686L273.015 123.866L272.825 123.925L256.261 129.092L256.252 129.095L256.244 129.097L233.013 135.351L232.557 135.474L232.44 135.017L213.677 61.7524L213.58 61.3706L213.94 61.2104L257.823 41.7231L258.226 41.5444L258.427 41.936ZM439.293 69.8149L423.934 76.3872L411.456 79.9536L411.22 80.021L411.142 80.2524L397.651 120.102L397.427 120.762L398.124 120.717L420.522 119.28L420.773 119.264L420.897 119.045L426.647 108.984L426.668 108.946L426.683 108.904L439.918 70.395L440.26 69.4009L439.293 69.8149Z" fill="#FEFFEA"/>
<path d="M381.983 147.506L369.623 162.723L375.025 167.11H381.983V147.506ZM439.597 147.506L451.27 131.757L446.07 127.903H439.597V147.506ZM468.284 168.767L487.573 172.261L489.745 160.272L479.956 153.018L468.284 168.767ZM462.415 201.167L473.139 217.577L480.2 212.962L481.704 204.662L462.415 201.167ZM453.251 207.156L436.637 217.561L447.245 234.499L463.976 223.566L453.251 207.156ZM434.686 177.511L451.3 167.106L434.563 140.381L418.003 167.217L434.686 177.511ZM417.797 204.88L401.115 194.586L400.746 195.184L400.42 195.807L417.797 204.88ZM386.056 265.668L368.679 256.595L358.666 275.772L378.734 283.853L386.056 265.668ZM439.597 287.228L449.983 303.854L482.666 283.438L446.92 269.044L439.597 287.228ZM392.375 316.727L401.836 333.896L402.306 333.637L402.76 333.353L392.375 316.727ZM370.485 328.79L352.992 337.637L362.158 355.761L379.946 345.959L370.485 328.79ZM349.463 287.228L331.132 280.281L328.069 288.363L331.97 296.076L349.463 287.228ZM366.472 242.346L349.196 233.081L348.593 234.206L348.141 235.399L366.472 242.346ZM402.945 174.336L420.221 183.601L452.534 123.348L393.203 157.325L402.945 174.336ZM362.891 197.274L343.302 198.025L344.543 230.372L372.633 214.285L362.891 197.274ZM361.082 150.096L342.607 143.539L341.348 147.086L341.493 150.848L361.082 150.096ZM366.472 134.908L378.832 119.691L357.283 102.189L347.998 128.351L366.472 134.908ZM242.186 142.2L257.29 129.703L257.285 129.697L257.28 129.691L242.186 142.2ZM270.41 176.311L285.53 163.834L285.522 163.824L285.513 163.814L270.41 176.311ZM270.608 176.551L287.941 185.709L294.046 174.154L285.728 164.074L270.608 176.551ZM270.462 176.827L287.778 186.017L287.787 186.001L287.795 185.985L270.462 176.827ZM223.389 265.523L206.073 256.333L206.067 256.345L206.061 256.357L223.389 265.523ZM223.318 265.658L231.883 283.291L237.649 280.49L240.646 274.824L223.318 265.658ZM223.181 265.724L214.616 248.091L214.608 248.095L214.599 248.099L223.181 265.724ZM111.127 320.284L119.671 337.928L119.69 337.918L119.709 337.909L111.127 320.284ZM110.942 320.374L103.645 338.568L111.687 341.793L119.485 338.017L110.942 320.374ZM110.75 320.296L103.447 338.489L103.453 338.491L110.75 320.296ZM94.0405 313.589L86.7296 331.778L86.738 331.782L94.0405 313.589ZM93.6372 313.427L74.9706 307.44L69.3982 324.812L86.3263 331.616L93.6372 313.427ZM93.77 313.013L75.1083 307.01L75.1058 307.018L75.1034 307.026L93.77 313.013ZM105.329 277.08L123.99 283.082L123.993 283.073L105.329 277.08ZM105.406 276.839L100.171 257.948L89.9759 260.773L86.7412 270.845L105.406 276.839ZM105.649 276.772L100.45 257.87L100.432 257.875L100.414 257.881L105.649 276.772ZM131.093 269.774L136.292 288.675L146.7 285.813L149.846 275.486L131.093 269.774ZM146.226 220.093L164.979 225.805L165.124 225.33L165.244 224.848L146.226 220.093ZM146.227 220.089L127.519 214.231L127.348 214.778L127.209 215.335L146.227 220.089ZM162.756 167.305L181.464 173.163L181.466 173.156L181.469 173.149L162.756 167.305ZM162.843 167.027L159.961 147.637L147.797 149.445L144.131 161.183L162.843 167.027ZM163.132 166.984L166.015 186.374L166.036 186.371L166.057 186.368L163.132 166.984ZM186.362 163.479L183.448 144.093L183.437 144.095L186.362 163.479ZM186.68 163.431L203.752 153.795L197.116 142.039L183.766 144.046L186.68 163.431ZM186.838 163.711L169.767 173.348L169.772 173.357L186.838 163.711ZM192.4 173.551L175.334 183.197L185.644 201.438L203.159 189.938L192.4 173.551ZM236.209 144.788L225.501 128.368L225.476 128.384L225.45 128.401L236.209 144.788ZM236.232 144.773L227.465 127.239L226.462 127.741L225.523 128.353L236.232 144.773ZM236.257 144.76L227.492 127.226L227.49 127.226L236.257 144.76ZM241.618 142.081L250.383 159.615L250.385 159.614L241.618 142.081ZM241.95 141.915L257.043 129.405L247.108 117.418L233.183 124.381L241.95 141.915ZM315.261 137.157L308.037 155.38L308.062 155.39L308.087 155.4L315.261 137.157ZM355.021 152.792L347.847 171.036L347.849 171.037L355.021 152.792ZM355.304 152.904L374.893 152.15L374.401 139.347L362.476 134.659L355.304 152.904ZM355.316 153.208L335.727 153.962L335.727 153.974L335.728 153.987L355.316 153.208ZM358.734 239.242L378.324 238.509L378.323 238.486L378.322 238.464L358.734 239.242ZM358.738 239.346L376.784 247.002L378.491 242.98L378.327 238.614L358.738 239.346ZM358.697 239.443L376.731 247.128L376.737 247.114L376.743 247.099L358.697 239.443ZM335.879 292.984L317.845 285.298L317.839 285.313L317.833 285.328L335.879 292.984ZM335.797 293.177L341.996 311.775L350.389 308.977L353.844 300.833L335.797 293.177ZM335.598 293.244L329.399 274.646L329.374 274.655L329.348 274.663L335.598 293.244ZM309.068 302.167L302.818 283.587L302.806 283.591L302.793 283.595L309.068 302.167ZM308.996 302.192V321.795H312.218L315.27 320.764L308.996 302.192ZM256.884 302.192L241.312 314.1L247.197 321.795H256.884V302.192ZM256.745 302.009L272.317 290.101L272.297 290.075L272.276 290.048L256.745 302.009ZM232.522 270.555L216.969 282.488L216.98 282.502L216.99 282.516L232.522 270.555ZM232.348 270.329L214.63 261.94L209.506 272.762L216.795 282.262L232.348 270.329ZM232.47 270.071L214.761 261.664L214.757 261.673L214.753 261.682L232.47 270.071ZM277.284 175.671L294.993 184.078L300.486 172.508L292.096 162.83L277.284 175.671ZM261.577 157.553L246.757 170.386L246.764 170.394L261.577 157.553ZM261.135 157.043L254.352 138.651L227.768 148.456L246.316 169.876L261.135 157.043ZM261.768 156.81L268.552 175.202L268.559 175.2L268.567 175.197L261.768 156.81ZM314.929 137.154L321.728 155.541L321.764 155.527L321.801 155.513L314.929 137.154ZM315.096 137.091L322.321 118.868L315.299 116.084L308.225 118.732L315.096 137.091ZM314.161 173.411L300.435 159.415L300.429 159.42L314.161 173.411ZM294.756 192.456L281.025 178.465L281.006 178.484L280.987 178.502L294.756 192.456ZM294.682 192.529L280.913 178.576L277.786 181.661L276.275 185.786L294.682 192.529ZM294.646 192.627L313.044 199.396L313.048 199.383L313.053 199.371L294.646 192.627ZM274.462 247.486L256.065 240.717L256.058 240.736L256.051 240.754L274.462 247.486ZM274.348 247.798L255.937 241.067L251.142 254.181L261.969 262.999L274.348 247.798ZM274.606 248.008L287.009 232.827L286.997 232.818L286.985 232.808L274.606 248.008ZM292.932 262.981L305.338 247.802L305.335 247.8L292.932 262.981ZM293.135 263.147L280.73 278.326L289.254 285.293L299.641 281.64L293.135 263.147ZM293.382 263.06L299.888 281.553L299.894 281.55L293.382 263.06ZM319.914 253.717L326.425 272.208L326.454 272.197L326.484 272.187L319.914 253.717ZM320.161 253.629L326.731 272.099L337.053 268.427L339.334 257.712L320.161 253.629ZM320.215 253.373L339.389 257.455L339.396 257.422L339.403 257.388L320.215 253.373ZM325.066 230.195L344.254 234.21L344.255 234.202L344.257 234.193L325.066 230.195ZM325.076 230.148L344.267 234.146L344.679 232.168V230.148H325.076ZM325.076 182.091H344.679V172.999L337.738 167.126L325.076 182.091ZM324.911 181.952L312.248 196.916L312.248 196.917L324.911 181.952ZM314.79 173.387L327.453 158.423L327.442 158.414L327.432 158.405L314.79 173.387ZM314.464 173.113L327.107 158.131L313.474 146.627L300.738 159.117L314.464 173.113ZM226.97 28.8687L207.646 25.5701L207.645 25.5796L207.643 25.5892L226.97 28.8687ZM223.617 48.6323L242.942 51.9218L242.944 51.9118L223.617 48.6323ZM223.562 48.9536L227.146 68.2265L240.592 65.7259L242.887 52.243L223.562 48.9536ZM223.242 49.0132L226.815 68.2882L226.826 68.2861L223.242 49.0132ZM205.383 52.3237L201.81 33.0487L192.188 34.8325L187.831 43.5949L205.383 52.3237ZM188.719 85.8335L206.253 94.6004L206.263 94.5814L206.272 94.5623L188.719 85.8335ZM188.605 86.062L190.712 105.552L201.352 104.402L206.139 94.8289L188.605 86.062ZM188.352 86.0894L186.245 66.5995L186.228 66.6013L186.212 66.6031L188.352 86.0894ZM151.558 90.1304L149.418 70.6442L137.709 71.9301L133.348 82.8721L151.558 90.1304ZM144.915 106.798L126.704 99.5401L113.334 133.084L148.748 126.023L144.915 106.798ZM185.215 98.7632L189.048 117.988L189.059 117.986L189.069 117.984L185.215 98.7632ZM186.014 98.603L204.54 105.013L215.738 72.6503L182.161 79.3821L186.014 98.603ZM185.748 99.3735L204.27 105.792L204.273 105.784L185.748 99.3735ZM177.363 123.569L158.84 117.15L158.834 117.169L158.827 117.188L177.363 123.569ZM177.281 123.807L182.053 142.821L192.358 140.234L195.817 130.188L177.281 123.807ZM177.036 123.869L172.263 104.855L172.254 104.857L172.245 104.86L177.036 123.869ZM133.559 134.827L128.768 115.818L118.56 118.391L115.066 128.322L133.559 134.827ZM116.477 183.39L97.9843 176.885L81.9081 222.589L125.243 200.924L116.477 183.39ZM125.148 179.055L133.914 196.589L133.915 196.589L125.148 179.055ZM125.462 178.898L139.884 165.619L129.891 154.766L116.696 161.364L125.462 178.898ZM125.701 179.157L140.13 165.887L140.122 165.878L125.701 179.157ZM136.661 191.075L122.231 204.344L122.24 204.353L136.661 191.075ZM137.024 191.469L148.168 207.597L166.719 194.779L151.445 178.19L137.024 191.469ZM136.582 191.775L147.712 207.912L147.718 207.908L147.725 207.903L136.582 191.775ZM47.4067 253.281L36.2765 237.144L36.2749 237.145L47.4067 253.281ZM46.481 253.919L27.1938 250.413L18.7474 296.868L57.6128 270.056L46.481 253.919ZM46.6821 252.813L27.3968 249.296L27.3949 249.306L46.6821 252.813ZM55.9653 201.907L36.685 198.363L36.6825 198.376L36.68 198.39L55.9653 201.907ZM56.0142 201.641L49.4749 183.161L38.7841 186.943L36.7338 198.097L56.0142 201.641ZM56.2681 201.551L62.8073 220.032L62.8168 220.028L62.8262 220.025L56.2681 201.551ZM75.5024 194.723L82.0606 213.197L89.1807 210.669L92.7627 204.017L75.5024 194.723ZM100.061 149.114L117.321 158.408L138.702 118.7L95.0827 130.153L100.061 149.114ZM37.9175 165.43L42.8947 184.391L42.8958 184.391L37.9175 165.43ZM37.7612 165.471L30.0103 183.477L36.21 186.146L42.7385 184.432L37.7612 165.471ZM37.6138 165.408L29.837 183.403L29.8499 183.408L29.8628 183.414L37.6138 165.408ZM32.7622 163.311L24.98 181.304L24.9854 181.306L32.7622 163.311ZM32.1978 163.067L16.9785 150.711L0.676015 170.791L24.4155 181.059L32.1978 163.067ZM32.5854 162.589L47.8047 174.945L47.8099 174.939L47.8151 174.932L32.5854 162.589ZM71.5132 114.558L56.3066 102.187L56.2951 102.201L56.2836 102.215L71.5132 114.558ZM71.6538 114.385V94.7819H62.3308L56.4472 102.014L71.6538 114.385ZM111.972 114.385V133.989H125.817L130.447 120.941L111.972 114.385ZM119.81 92.2974L138.285 98.8531L149.007 68.6363L117.224 72.8652L119.81 92.2974ZM106.614 94.0532L104.028 74.6211L104.019 74.6224L104.009 74.6236L106.614 94.0532ZM106.344 94.0894L90.7124 105.919L97.6137 115.039L108.949 113.519L106.344 94.0894ZM106.18 93.8726L121.812 82.043L121.806 82.0345L121.799 82.0259L106.18 93.8726ZM84.7397 65.605L100.359 53.7583L100.358 53.7575L84.7397 65.605ZM84.2642 64.978L81.3693 45.5896L48.6565 50.4739L68.6459 76.8255L84.2642 64.978ZM85.0425 64.8618L87.9374 84.2503L87.9424 84.2495L85.0425 64.8618ZM196.757 48.1519L199.657 67.5396L216.361 65.0411V48.1519H196.757ZM196.757 36.6411L191.508 17.7537L177.154 21.7431V36.6411H196.757ZM197.098 36.5464L202.348 55.4338L202.367 55.4284L202.387 55.4229L197.098 36.5464ZM226.384 28.3413L231.673 47.2178L231.681 47.2157L226.384 28.3413ZM227.094 28.1421L246.418 31.4407L251.632 0.896111L221.798 9.2677L227.094 28.1421ZM226.914 176.546L218.711 158.741L218.691 158.751L218.67 158.761L226.914 176.546ZM208.048 185.291L216.291 203.077L216.292 203.076L208.048 185.291ZM207.888 185.365L199.646 167.578L192.925 170.693L189.943 177.473L207.888 185.365ZM207.817 185.527L189.872 177.635L189.863 177.657L189.853 177.678L207.817 185.527ZM184.161 239.667L166.197 231.819L166.194 231.826L184.161 239.667ZM183.875 240.321L165.909 232.479L153.93 259.924H183.875V240.321ZM186.49 240.321V259.924H195.912L201.797 252.567L186.49 240.321ZM186.63 240.145L201.938 252.391L201.95 252.377L201.961 252.362L186.63 240.145ZM233.165 181.752L217.837 169.531L217.834 169.535L233.165 181.752ZM233.457 181.386L248.784 193.607L261.057 178.215L245.613 166.007L233.457 181.386ZM233.088 181.095L245.245 165.716L245.235 165.708L233.088 181.095ZM227.399 176.604L215.234 191.977L215.244 191.984L215.253 191.991L227.399 176.604ZM227.174 176.426L239.339 161.054L229.902 153.586L218.972 158.621L227.174 176.426ZM207.678 62.9937L226.657 58.0853L226.655 58.075L226.652 58.0647L207.678 62.9937ZM227.442 139.413L208.463 144.321L208.466 144.334L227.442 139.413ZM227.53 139.751L237.543 156.605L250.202 149.083L246.505 134.83L227.53 139.751ZM227.229 139.93L217.216 123.077L217.2 123.087L217.184 123.096L227.229 139.93ZM196.053 158.533L206.088 175.373L206.098 175.367L196.053 158.533ZM195.437 158.9L175.978 161.276L179.624 191.142L205.472 175.74L195.437 158.9ZM195.35 158.188L175.89 160.555L175.891 160.564L195.35 158.188ZM194.426 150.594L213.886 148.227L213.881 148.186L213.876 148.146L194.426 150.594ZM194.409 150.455L176.902 141.633L174.212 146.972L174.959 152.903L194.409 150.455ZM194.472 150.329L211.979 159.15L211.988 159.131L211.998 159.112L194.472 150.329ZM196.519 146.245L214.044 155.028L216.122 150.882V146.245H196.519ZM196.519 118.738H216.122V86.4175L187.46 101.353L196.519 118.738ZM184.686 124.904L175.627 107.519L165.476 112.809L165.094 124.249L184.686 124.904ZM183.917 147.93L164.324 147.275L164.324 147.282L183.917 147.93ZM183.908 148.196L193.36 165.37L203.132 159.991L203.5 148.844L183.908 148.196ZM183.675 148.324L193.113 165.506L193.12 165.502L193.128 165.497L183.675 148.324ZM139.297 172.699L148.716 189.891L148.725 189.886L148.735 189.881L139.297 172.699ZM138.919 172.906L122.561 183.708L132.507 198.771L148.338 190.098L138.919 172.906ZM138.682 172.546L122.312 183.331L122.318 183.34L122.323 183.348L138.682 172.546ZM136.946 169.911L153.316 159.126L153.31 159.116L153.303 159.106L136.946 169.911ZM136.805 169.698L118.901 161.715L114.523 171.533L120.448 180.502L136.805 169.698ZM136.91 169.463L119.013 161.464L119.009 161.472L119.005 161.481L136.91 169.463ZM153.319 132.751L171.216 140.751L171.219 140.744L171.222 140.737L153.319 132.751ZM153.412 132.543L148.716 113.511L139.412 115.806L135.508 124.558L153.412 132.543ZM153.633 132.489L148.942 113.455L148.938 113.456L153.633 132.489ZM178.674 126.317L183.366 145.351L193.089 142.954L196.846 133.671L178.674 126.317ZM191.041 95.7583L209.212 103.112L222.645 69.9179L187.444 76.4877L191.041 95.7583ZM171.618 99.3833L168.021 80.1127L168.02 80.1128L171.618 99.3833ZM170.943 99.5093L151.699 95.7721L146.204 124.07L174.54 118.78L170.943 99.5093ZM171.074 98.8354L151.832 95.0894L151.83 95.0982L171.074 98.8354ZM172.811 89.9116L192.053 93.6577L192.055 93.6505L192.056 93.6433L172.811 89.9116ZM172.879 89.5591L171.604 69.9973L156.513 70.9814L153.634 85.8274L172.879 89.5591ZM173.239 89.5356L171.972 69.9733L171.963 69.9738L173.239 89.5356ZM190.153 88.4399L191.42 108.002L202.729 107.27L207.737 97.1045L190.153 88.4399ZM202.735 62.9048L185.162 54.217L185.156 54.2286L185.15 54.2403L202.735 62.9048ZM202.864 62.644V43.0407H190.687L185.291 53.9562L202.864 62.644ZM207.587 62.644L226.561 57.7151L222.749 43.0407H207.587V62.644ZM322.122 46.1763L303.344 40.548L303.341 40.5561L322.122 46.1763ZM314.755 70.7915L295.975 65.1714L295.972 65.1794L295.97 65.1875L314.755 70.7915ZM314.686 71.0239L320.814 89.6448L330.543 86.4428L333.471 76.6279L314.686 71.0239ZM314.455 71.1001L308.326 52.4793L308.314 52.4833L314.455 71.1001ZM291.595 78.6401L285.455 60.0233L276.813 62.8736L273.412 71.3135L291.595 78.6401ZM291.06 80.5679L271.884 76.498L271.884 76.4983L291.06 80.5679ZM290.575 83.3843L271.169 80.6076L271.169 80.6077L290.575 83.3843ZM290.266 85.8306L270.782 83.672L270.782 83.672L290.266 85.8306ZM290.217 86.2876L270.721 84.2426L268.127 108.975L292.781 105.723L290.217 86.2876ZM317.781 82.6519L320.344 102.087L320.351 102.086L320.359 102.085L317.781 82.6519ZM317.972 82.6265L329.862 67.0402L323.423 62.1283L315.394 63.1933L317.972 82.6265ZM318.125 82.7427L306.235 98.3289L306.237 98.3303L318.125 82.7427ZM329.669 91.5474L317.782 107.135L317.785 107.138L329.669 91.5474ZM330.503 92.1831L334.116 111.451L377.455 103.325L342.388 76.5929L330.503 92.1831ZM329.472 92.3765L325.859 73.1088L325.856 73.1094L329.472 92.3765ZM315.131 95.0679L311.515 75.8009L311.01 75.8956L310.511 76.0168L315.131 95.0679ZM299.444 98.8726L294.823 79.8215L279.84 83.4553V98.8726H299.444ZM299.444 101.498H279.84V124.204L302.304 120.891L299.444 101.498ZM300.333 101.368L297.487 81.9721L297.487 81.9721L300.333 101.368ZM304.224 100.8L301.415 81.3992L301.415 81.3992L304.224 100.8ZM317.112 98.9722L314.414 79.5553L314.414 79.5553L317.112 98.9722ZM347.261 95.1665L345.319 75.6595L345.311 75.6603L345.303 75.6611L347.261 95.1665ZM347.909 95.1021L367.009 99.5165L373.163 72.8878L345.967 75.5951L347.909 95.1021ZM347.762 95.7358L328.662 91.3214L328.659 91.3339L347.762 95.7358ZM343.243 115.349L324.14 110.947L323.639 113.12V115.349H343.243ZM343.243 115.351L362.33 119.817L362.846 117.614V115.351H343.243ZM338.359 136.223L319.271 131.757L319.269 131.766L319.267 131.776L338.359 136.223ZM338.239 136.739L331.415 155.116L352.281 162.864L357.331 141.186L338.239 136.739ZM337.742 136.554L330.889 154.921L330.903 154.926L330.918 154.932L337.742 136.554ZM314.316 127.814L321.169 109.447L313.939 106.75L306.81 109.705L314.316 127.814ZM256.3 151.861L248.794 133.751L248.785 133.755L248.775 133.759L256.3 151.861ZM255.953 152.005L239.824 163.148L248.837 176.194L263.478 170.107L255.953 152.005ZM255.739 151.696L271.868 140.553L271.856 140.537L271.845 140.521L255.739 151.696ZM251.4 145.442H231.797V151.576L235.293 156.616L251.4 145.442ZM251.4 145.441H271.003V139.157L267.35 134.044L251.4 145.441ZM247.254 139.639L263.205 128.242L263.2 128.236L263.196 128.23L247.254 139.639ZM246.898 139.141L240.148 120.736L215.966 129.605L230.957 150.55L246.898 139.141ZM247.473 138.93L240.725 120.525L240.724 120.525L247.473 138.93ZM260.875 134.016L267.624 152.421L267.692 152.397L267.759 152.371L260.875 134.016ZM275 128.719L281.883 147.074L288.919 144.436L292.388 137.77L275 128.719ZM290.483 98.9722L307.872 108.023L322.786 79.3688H290.483V98.9722ZM278.958 98.9722L278.305 118.565L278.632 118.576H278.958V98.9722ZM262.788 98.4331L263.441 78.8406L263.43 78.8402L262.788 98.4331ZM261.834 98.4019L246.767 85.8619L221.118 116.681L261.192 117.995L261.834 98.4019ZM262.445 97.6685L247.38 85.1243L247.377 85.1285L262.445 97.6685ZM287.74 67.2915L302.804 79.8357L329.573 47.6881H287.74V67.2915ZM278.738 67.2915L262.958 78.923L268.834 86.8949H278.738V67.2915ZM278.598 67.1021L294.378 55.4706L294.371 55.4616L294.365 55.4526L278.598 67.1021ZM269.615 54.9438L253.845 66.5889L253.848 66.5933L269.615 54.9438ZM269.163 54.3315L265.944 34.9942L234.392 40.246L253.393 65.9765L269.163 54.3315ZM269.914 54.2065L273.132 73.5439L273.14 73.5426L269.914 54.2065ZM321.598 45.5825L318.375 26.2459L318.372 26.2465L321.598 45.5825ZM322.336 45.4595L341.114 51.0878L350.147 20.9505L319.114 26.1228L322.336 45.4595ZM397.091 27.3325L407.807 10.9169L407.8 10.9125L407.793 10.9081L397.091 27.3325ZM402.781 31.0464L392.065 47.462L392.066 47.4625L402.781 31.0464ZM403.107 31.2593L421.173 38.8687L427.525 23.7875L413.822 14.8432L403.107 31.2593ZM402.956 31.6187L421.018 39.2379L421.022 39.2281L402.956 31.6187ZM392.278 56.9312L374.216 49.3119L358.829 85.7871L397.166 75.9152L392.278 56.9312ZM420.85 49.5737L425.739 68.5578L425.743 68.5566L420.85 49.5737ZM421.509 49.4038L440.98 51.6829L444.304 23.2836L416.616 30.421L421.509 49.4038ZM421.43 50.0796L440.898 52.3781L440.899 52.3684L440.901 52.3586L421.43 50.0796ZM420.089 61.436L400.621 59.1375L400.62 59.1456L420.089 61.436ZM420.052 61.7515L425.062 80.7039L437.962 77.294L439.521 64.0419L420.052 61.7515ZM419.746 61.8325L414.736 42.8801L414.725 42.8829L419.746 61.8325ZM380.238 72.2993L375.217 53.3497L364.62 56.1572L361.464 66.6559L380.238 72.2993ZM359.013 142.906L340.24 137.262L340.238 137.269L359.013 142.906ZM358.863 143.407L351.105 161.41L371.312 170.117L377.638 149.043L358.863 143.407ZM358.382 143.2L366.14 125.197L366.127 125.191L358.382 143.2ZM345.285 137.567L353.03 119.558L353.025 119.556L345.285 137.567ZM344.93 137.415L325.785 133.199L322.3 149.026L337.19 155.425L344.93 137.415ZM345.013 137.038L325.869 132.821L325.868 132.822L345.013 137.038ZM357.944 78.3267L377.088 82.5431L384.079 50.8008L352.742 59.4261L357.944 78.3267ZM332.579 85.3081L337.771 104.211L337.781 104.209L332.579 85.3081ZM332.084 85.4438L312.778 88.8421L316.511 110.052L337.277 104.347L332.084 85.4438ZM331.996 84.939L351.302 81.5407L351.302 81.5385L331.996 84.939ZM328.641 65.894L347.947 62.4935L347.947 62.4918L328.641 65.894ZM328.557 65.4175L325.868 45.9994L305.721 48.7896L309.251 68.8197L328.557 65.4175ZM329.037 65.3511L331.726 84.7691L331.733 84.7681L329.037 65.3511ZM360.641 60.9624L363.337 80.3795L376.604 78.5373L379.71 65.509L360.641 60.9624ZM365.179 41.9292L384.248 46.4758L384.25 46.466L365.179 41.9292ZM365.232 41.7075L357.076 23.8815L348.375 27.8624L346.161 37.1708L365.232 41.7075ZM365.439 41.6128L373.595 59.4388L373.604 59.4348L373.613 59.4308L365.439 41.6128ZM396.641 27.2993L388.473 9.47857L388.467 9.48127L396.641 27.2993ZM396.875 27.1919L407.577 10.7675L398.527 4.87051L388.708 9.37114L396.875 27.1919ZM459.75 22.9009L473.555 8.98362L473.546 8.97457L459.75 22.9009ZM482.208 45.1792L468.402 59.0965L468.405 59.0997L482.208 45.1792ZM482.438 45.4077L500.29 53.5063L505.924 41.0882L496.241 31.4872L482.438 45.4077ZM482.304 45.7026L464.452 37.6041L464.444 37.6211L464.436 37.6381L482.304 45.7026ZM439.244 141.107L457.107 149.181L457.111 149.171L439.244 141.107ZM439.12 141.381V160.985H451.772L456.983 149.455L439.12 141.381ZM384.144 141.381L368.393 153.052L374.271 160.985H384.144V141.381ZM384.004 141.193L399.755 129.522L399.749 129.514L399.743 129.505L384.004 141.193ZM373.238 126.695L357.464 138.335L357.482 138.359L357.5 138.382L373.238 126.695ZM373.103 126.512L354.188 121.361L351.695 130.517L357.33 138.152L373.103 126.512ZM373.163 126.293L354.254 121.12L354.251 121.132L354.248 121.143L373.163 126.293ZM386.118 78.9399L405.026 84.113L405.03 84.0988L405.034 84.0845L386.118 78.9399ZM386.181 78.7065L379.533 60.265L369.941 63.723L367.265 73.5619L386.181 78.7065ZM386.409 78.6245L393.057 97.0661L393.087 97.0552L393.118 97.0441L386.409 78.6245ZM422.559 65.4575L429.268 83.8772L438.861 80.3832L441.497 70.5205L422.559 65.4575ZM428.521 43.1567L447.459 48.2197L456.017 16.2086L423.84 24.1204L428.521 43.1567ZM398.742 50.479L403.41 69.5185L403.422 69.5154L398.742 50.479ZM397.626 50.7524L380.994 40.3762L355.482 81.2696L402.295 69.7919L397.626 50.7524ZM398.234 49.7788L414.866 60.1551L414.87 60.1486L414.874 60.1422L398.234 49.7788ZM402.129 43.5239L385.532 33.0916L385.511 33.126L385.489 33.1606L402.129 43.5239ZM402.215 43.3872L395.554 24.9502L389.209 27.2427L385.618 32.9548L402.215 43.3872ZM402.367 43.3325L395.71 24.8939L395.706 24.8955L402.367 43.3325ZM459.262 22.7925L452.636 4.34294L452.621 4.34839L452.606 4.35386L459.262 22.7925ZM459.54 22.6929L473.336 8.76656L464.551 0.063426L452.913 4.24333L459.54 22.6929ZM258.427 41.936L240.99 50.8937L240.994 50.9005L240.997 50.9073L258.427 41.936ZM272.997 70.2427L255.566 79.2139L259.892 87.6175L269.16 89.467L272.997 70.2427ZM279.065 71.4536L275.229 90.678L275.233 90.6789L279.065 71.4536ZM279.903 71.6206L294.02 85.2222L318.896 59.4031L283.734 52.3953L279.903 71.6206ZM279.31 72.2358L293.421 85.8437L293.427 85.8374L279.31 72.2358ZM260.479 91.7632L274.58 105.381L274.585 105.376L274.59 105.371L260.479 91.7632ZM260.341 91.9058V111.509H268.662L274.442 105.524L260.341 91.9058ZM254.846 91.9058L239.213 103.734L245.096 111.509H254.846V91.9058ZM254.707 91.7212L270.339 79.8931L270.322 79.87L270.304 79.8469L254.707 91.7212ZM245.806 80.0298L261.404 68.1555L250.341 53.6229L235.063 63.6322L245.806 80.0298ZM232.482 88.7593L221.739 72.3617L213.107 78.0167L212.883 88.3334L232.482 88.7593ZM233.935 106.271L214.523 109.001L214.523 109.001L233.935 106.271ZM235.069 113.585L215.74 116.854L215.74 116.854L235.069 113.585ZM235.449 115.772L216.152 119.227L216.152 119.227L235.449 115.772ZM235.501 116.067L216.211 119.557L220.06 140.829L240.855 134.925L235.501 116.067ZM235.569 116.048L240.958 134.897L240.958 134.896L235.569 116.048ZM237.068 115.592L243.068 134.255L243.069 134.255L237.068 115.592ZM241.873 113.792L249.658 131.784L249.658 131.784L241.873 113.792ZM247.344 110.869L258.329 127.105L258.33 127.105L247.344 110.869ZM251.385 106.947L234.668 96.7084L234.657 96.7271L234.645 96.7458L251.385 106.947ZM251.51 106.743L249.988 87.1985L240.017 87.9749L234.793 96.5043L251.51 106.743ZM251.749 106.724L250.269 87.1766L250.248 87.1782L250.227 87.1799L251.749 106.724ZM281.813 104.449L280.34 84.9008L280.334 84.9012L281.813 104.449ZM282.629 104.387L300.205 113.07L315.427 82.2566L281.156 84.8392L282.629 104.387ZM282.267 105.121L264.691 96.4381L264.688 96.4444L282.267 105.121ZM273.104 123.686L290.676 132.376L290.679 132.369L290.683 132.362L273.104 123.686ZM273.015 123.866L278.868 142.575L286.87 140.072L290.587 132.556L273.015 123.866ZM272.825 123.925L278.663 142.639L278.67 142.637L278.677 142.635L272.825 123.925ZM256.261 129.092L250.423 110.378L250.242 110.435L250.062 110.495L256.261 129.092ZM256.252 129.095L260.505 148.232L261.492 148.012L262.452 147.693L256.252 129.095ZM256.244 129.097L251.991 109.961L251.567 110.055L251.148 110.168L256.244 129.097ZM233.013 135.351L227.917 116.422L227.907 116.424L233.013 135.351ZM232.557 135.474L213.568 140.343L218.498 159.572L237.664 154.401L232.557 135.474ZM232.44 135.017L213.449 139.88L213.451 139.886L232.44 135.017ZM213.677 61.7524L194.685 66.6098L194.687 66.6158L213.677 61.7524ZM213.58 61.3706L205.618 43.4568L190.484 50.183L194.588 66.2279L213.58 61.3706ZM213.94 61.2104L205.984 43.2942L205.978 43.2966L213.94 61.2104ZM257.823 41.7231L249.881 23.8004L249.874 23.8036L249.867 23.8069L257.823 41.7231ZM258.226 41.5444L275.663 32.5867L267.206 16.1238L250.285 23.6217L258.226 41.5444ZM439.293 69.8149L447.005 87.8377L447.011 87.8352L439.293 69.8149ZM423.934 76.3872L429.321 95.2359L430.51 94.8962L431.646 94.4099L423.934 76.3872ZM411.456 79.9536L406.069 61.1049L406.06 61.1074L411.456 79.9536ZM411.22 80.021L405.824 61.1748L395.936 64.0059L392.646 73.7514L411.22 80.021ZM411.142 80.2524L429.71 86.5387L429.713 86.5304L429.716 86.5221L411.142 80.2524ZM397.651 120.102L416.218 126.392L416.219 126.388L397.651 120.102ZM397.427 120.762L378.86 114.473L369.464 142.21L398.689 140.325L397.427 120.762ZM398.124 120.717L396.868 101.154L396.861 101.155L398.124 120.717ZM420.522 119.28L419.304 99.7143L419.285 99.7154L419.266 99.7166L420.522 119.28ZM420.773 119.264L421.991 138.83L432.589 138.17L437.826 128.933L420.773 119.264ZM420.897 119.045L403.877 109.319L403.86 109.348L403.844 109.377L420.897 119.045ZM426.647 108.984L443.667 118.711L443.694 118.663L443.721 118.615L426.647 108.984ZM426.668 108.946L443.743 118.577L444.602 117.054L445.178 115.403L426.668 108.946ZM426.683 108.904L445.193 115.361L445.207 115.318L445.222 115.276L426.683 108.904ZM439.918 70.395L421.38 64.0213L421.379 64.0232L439.918 70.395ZM440.26 69.4009L458.799 75.7746L473.167 33.9817L432.542 51.3806L440.26 69.4009ZM381.983 147.506V167.11H439.597V147.506V127.903H381.983V147.506ZM439.597 147.506L427.925 163.256L456.611 184.517L468.284 168.767L479.956 153.018L451.27 131.757L439.597 147.506ZM468.284 168.767L448.994 165.273L443.125 197.673L462.415 201.167L481.704 204.662L487.573 172.261L468.284 168.767ZM462.415 201.167L451.69 184.758L442.527 190.746L453.251 207.156L463.976 223.566L473.139 217.577L462.415 201.167ZM453.251 207.156L469.866 196.751L451.3 167.106L434.686 177.511L418.072 187.916L436.637 217.561L453.251 207.156ZM434.686 177.511L418.003 167.217L401.115 194.586L417.797 204.88L434.48 215.175L451.369 187.806L434.686 177.511ZM417.797 204.88L400.42 195.807L368.679 256.595L386.056 265.668L403.433 274.742L435.174 213.954L417.797 204.88ZM386.056 265.668L378.734 283.853L432.275 305.413L439.597 287.228L446.92 269.044L393.379 247.484L386.056 265.668ZM439.597 287.228L429.211 270.602L381.989 300.101L392.375 316.727L402.76 333.353L449.983 303.854L439.597 287.228ZM392.375 316.727L382.913 299.558L361.024 311.62L370.485 328.79L379.946 345.959L401.836 333.896L392.375 316.727ZM370.485 328.79L387.978 319.942L366.956 278.38L349.463 287.228L331.97 296.076L352.992 337.637L370.485 328.79ZM349.463 287.228L367.795 294.175L384.803 249.293L366.472 242.346L348.141 235.399L331.132 280.281L349.463 287.228ZM366.472 242.346L383.748 251.611L420.221 183.601L402.945 174.336L385.669 165.072L349.196 233.081L366.472 242.346ZM402.945 174.336L393.203 157.325L353.149 180.263L362.891 197.274L372.633 214.285L412.687 191.348L402.945 174.336ZM362.891 197.274L382.48 196.523L380.671 149.345L361.082 150.096L341.493 150.848L343.302 198.025L362.891 197.274ZM361.082 150.096L379.556 156.653L384.946 141.465L366.472 134.908L347.998 128.351L342.607 143.539L361.082 150.096ZM366.472 134.908L354.113 150.124L369.623 162.723L381.983 147.506L394.342 132.29L378.832 119.691L366.472 134.908ZM242.186 142.2L227.082 154.697L255.306 188.808L270.41 176.311L285.513 163.814L257.29 129.703L242.186 142.2ZM270.41 176.311L255.29 188.788L255.488 189.028L270.608 176.551L285.728 164.074L285.53 163.834L270.41 176.311ZM270.608 176.551L253.275 167.393L253.13 167.669L270.462 176.827L287.795 185.985L287.941 185.709L270.608 176.551ZM270.462 176.827L253.147 167.637L206.073 256.333L223.389 265.523L240.705 274.713L287.778 186.017L270.462 176.827ZM223.389 265.523L206.061 256.357L205.99 256.491L223.318 265.658L240.646 274.824L240.717 274.689L223.389 265.523ZM223.318 265.658L214.753 248.024L214.616 248.091L223.181 265.724L231.746 283.358L231.883 283.291L223.318 265.658ZM223.181 265.724L214.599 248.099L102.546 302.659L111.127 320.284L119.709 337.909L231.763 283.349L223.181 265.724ZM111.127 320.284L102.584 302.64L102.399 302.73L110.942 320.374L119.485 338.017L119.671 337.928L111.127 320.284ZM110.942 320.374L118.238 302.179L118.046 302.101L110.75 320.296L103.453 338.491L103.645 338.568L110.942 320.374ZM110.75 320.296L118.052 302.104L101.343 295.397L94.0405 313.589L86.738 331.782L103.447 338.489L110.75 320.296ZM94.0405 313.589L101.351 295.4L100.948 295.238L93.6372 313.427L86.3263 331.616L86.7296 331.778L94.0405 313.589ZM93.6372 313.427L112.304 319.415L112.437 319.001L93.77 313.013L75.1034 307.026L74.9706 307.44L93.6372 313.427ZM93.77 313.013L112.432 319.016L123.99 283.082L105.329 277.08L86.6669 271.077L75.1083 307.01L93.77 313.013ZM105.329 277.08L123.993 283.073L124.07 282.833L105.406 276.839L86.7412 270.845L86.664 271.086L105.329 277.08ZM105.406 276.839L110.641 295.731L110.884 295.663L105.649 276.772L100.414 257.881L100.171 257.948L105.406 276.839ZM105.649 276.772L110.847 295.674L136.292 288.675L131.093 269.774L125.895 250.872L100.45 257.87L105.649 276.772ZM131.093 269.774L149.846 275.486L164.979 225.805L146.226 220.093L127.473 214.381L112.341 264.062L131.093 269.774ZM146.226 220.093L165.244 224.848L165.245 224.844L146.227 220.089L127.209 215.335L127.208 215.339L146.226 220.093ZM146.227 220.089L164.935 225.948L181.464 173.163L162.756 167.305L144.049 161.447L127.519 214.231L146.227 220.089ZM162.756 167.305L181.469 173.149L181.555 172.87L162.843 167.027L144.131 161.183L144.044 161.462L162.756 167.305ZM162.843 167.027L165.726 186.417L166.015 186.374L163.132 166.984L160.25 147.594L159.961 147.637L162.843 167.027ZM163.132 166.984L166.057 186.368L189.286 182.863L186.362 163.479L183.437 144.095L160.208 147.6L163.132 166.984ZM186.362 163.479L189.276 182.865L189.594 182.817L186.68 163.431L183.766 144.046L183.448 144.093L186.362 163.479ZM186.68 163.431L169.609 173.067L169.767 173.348L186.838 163.711L203.91 154.075L203.752 153.795L186.68 163.431ZM186.838 163.711L169.772 173.357L175.334 183.197L192.4 173.551L209.466 163.905L203.904 154.066L186.838 163.711ZM192.4 173.551L203.159 189.938L246.969 161.175L236.209 144.788L225.45 128.401L181.641 157.164L192.4 173.551ZM236.209 144.788L246.918 161.208L246.941 161.193L236.232 144.773L225.523 128.353L225.501 128.368L236.209 144.788ZM236.232 144.773L244.999 162.307L245.024 162.294L236.257 144.76L227.49 127.226L227.465 127.239L236.232 144.773ZM236.257 144.76L245.023 162.295L250.383 159.615L241.618 142.081L232.852 124.546L227.492 127.226L236.257 144.76ZM241.618 142.081L250.385 159.614L250.717 159.448L241.95 141.915L233.183 124.381L232.851 124.547L241.618 142.081ZM241.95 141.915L226.856 154.424L227.092 154.709L242.186 142.2L257.28 129.691L257.043 129.405L241.95 141.915ZM315.261 137.157L308.087 155.4L347.847 171.036L355.021 152.792L362.195 134.549L322.436 118.913L315.261 137.157ZM355.021 152.792L347.849 171.037L348.132 171.148L355.304 152.904L362.476 134.659L362.193 134.548L355.021 152.792ZM355.304 152.904L335.715 153.657L335.727 153.962L355.316 153.208L374.905 152.455L374.893 152.15L355.304 152.904ZM355.316 153.208L335.728 153.987L339.146 240.02L358.734 239.242L378.322 238.464L374.904 152.43L355.316 153.208ZM358.734 239.242L339.144 239.974L339.148 240.079L358.738 239.346L378.327 238.614L378.324 238.509L358.734 239.242ZM358.738 239.346L340.691 231.69L340.65 231.787L358.697 239.443L376.743 247.099L376.784 247.002L358.738 239.346ZM358.697 239.443L340.663 231.757L317.845 285.298L335.879 292.984L353.913 300.669L376.731 247.128L358.697 239.443ZM335.879 292.984L317.833 285.328L317.751 285.521L335.797 293.177L353.844 300.833L353.926 300.64L335.879 292.984ZM335.797 293.177L329.598 274.58L329.399 274.646L335.598 293.244L341.797 311.841L341.996 311.775L335.797 293.177ZM335.598 293.244L329.348 274.663L302.818 283.587L309.068 302.167L315.318 320.748L341.848 311.824L335.598 293.244ZM309.068 302.167L302.793 283.595L302.721 283.62L308.996 302.192L315.27 320.764L315.342 320.74L309.068 302.167ZM308.996 302.192V282.589H256.884V302.192V321.795H308.996V302.192ZM256.884 302.192L272.456 290.284L272.317 290.101L256.745 302.009L241.173 313.917L241.312 314.1L256.884 302.192ZM256.745 302.009L272.276 290.048L248.054 258.594L232.522 270.555L216.99 282.516L241.213 313.97L256.745 302.009ZM232.522 270.555L248.075 258.622L247.901 258.396L232.348 270.329L216.795 282.262L216.969 282.488L232.522 270.555ZM232.348 270.329L250.066 278.718L250.188 278.46L232.47 270.071L214.753 261.682L214.63 261.94L232.348 270.329ZM232.47 270.071L250.179 278.478L294.993 184.078L277.284 175.671L259.574 167.264L214.761 261.664L232.47 270.071ZM277.284 175.671L292.096 162.83L276.389 144.712L261.577 157.553L246.764 170.394L262.471 188.512L277.284 175.671ZM261.577 157.553L276.396 144.721L275.955 144.211L261.135 157.043L246.316 169.876L246.757 170.386L261.577 157.553ZM261.135 157.043L267.919 175.436L268.552 175.202L261.768 156.81L254.984 138.418L254.352 138.651L261.135 157.043ZM261.768 156.81L268.567 175.197L321.728 155.541L314.929 137.154L308.131 118.767L254.97 138.423L261.768 156.81ZM314.929 137.154L321.801 155.513L321.968 155.451L315.096 137.091L308.225 118.732L308.058 118.794L314.929 137.154ZM315.096 137.091L307.871 155.315L308.037 155.38L315.261 137.157L322.486 118.933L322.321 118.868L315.096 137.091ZM314.161 173.411L300.429 159.42L281.025 178.465L294.756 192.456L308.488 206.446L327.892 187.401L314.161 173.411ZM294.756 192.456L280.987 178.502L280.913 178.576L294.682 192.529L308.452 206.482L308.526 206.409L294.756 192.456ZM294.682 192.529L276.275 185.786L276.239 185.884L294.646 192.627L313.053 199.371L313.089 199.272L294.682 192.529ZM294.646 192.627L276.248 185.859L256.065 240.717L274.462 247.486L292.86 254.255L313.044 199.396L294.646 192.627ZM274.462 247.486L256.051 240.754L255.937 241.067L274.348 247.798L292.759 254.53L292.874 254.217L274.462 247.486ZM274.348 247.798L261.969 262.999L262.227 263.209L274.606 248.008L286.985 232.808L286.727 232.598L274.348 247.798ZM274.606 248.008L262.203 263.189L280.529 278.162L292.932 262.981L305.335 247.8L287.009 232.827L274.606 248.008ZM292.932 262.981L280.526 278.16L280.73 278.326L293.135 263.147L305.541 247.968L305.338 247.802L292.932 262.981ZM293.135 263.147L299.641 281.64L299.888 281.553L293.382 263.06L286.877 244.568L286.63 244.654L293.135 263.147ZM293.382 263.06L299.894 281.55L326.425 272.208L319.914 253.717L313.402 235.227L286.871 244.57L293.382 263.06ZM319.914 253.717L326.484 272.187L326.731 272.099L320.161 253.629L313.59 235.16L313.343 235.248L319.914 253.717ZM320.161 253.629L339.334 257.712L339.389 257.455L320.215 253.373L301.042 249.29L300.987 249.547L320.161 253.629ZM320.215 253.373L339.403 257.388L344.254 234.21L325.066 230.195L305.878 226.179L301.028 249.357L320.215 253.373ZM325.066 230.195L344.257 234.193L344.267 234.146L325.076 230.148L305.884 226.15L305.875 226.197L325.066 230.195ZM325.076 230.148H344.679V182.091H325.076H305.472V230.148H325.076ZM325.076 182.091L337.738 167.126L337.573 166.987L324.911 181.952L312.248 196.917L312.413 197.056L325.076 182.091ZM324.911 181.952L337.574 166.987L327.453 158.423L314.79 173.387L302.127 188.352L312.248 196.916L324.911 181.952ZM314.79 173.387L327.432 158.405L327.107 158.131L314.464 173.113L301.822 188.095L302.147 188.369L314.79 173.387ZM314.464 173.113L300.738 159.117L300.435 159.415L314.161 173.411L327.887 187.407L328.19 187.109L314.464 173.113ZM226.97 28.8687L207.643 25.5892L204.29 45.3529L223.617 48.6323L242.944 51.9118L246.297 32.1481L226.97 28.8687ZM223.617 48.6323L204.291 45.3429L204.237 45.6642L223.562 48.9536L242.887 52.243L242.942 51.9218L223.617 48.6323ZM223.562 48.9536L219.978 29.6807L219.657 29.7403L223.242 49.0132L226.826 68.2861L227.146 68.2265L223.562 48.9536ZM223.242 49.0132L219.669 29.7382L201.81 33.0487L205.383 52.3237L208.956 71.5987L226.815 68.2882L223.242 49.0132ZM205.383 52.3237L187.831 43.5949L171.166 77.1047L188.719 85.8335L206.272 94.5623L222.936 61.0526L205.383 52.3237ZM188.719 85.8335L171.185 77.0666L171.071 77.2951L188.605 86.062L206.139 94.8289L206.253 94.6004L188.719 85.8335ZM188.605 86.062L186.498 66.5722L186.245 66.5995L188.352 86.0894L190.459 105.579L190.712 105.552L188.605 86.062ZM188.352 86.0894L186.212 66.6031L149.418 70.6442L151.558 90.1304L153.698 109.617L190.492 105.576L188.352 86.0894ZM151.558 90.1304L133.348 82.8721L126.704 99.5401L144.915 106.798L163.125 114.057L169.768 97.3886L151.558 90.1304ZM144.915 106.798L148.748 126.023L189.048 117.988L185.215 98.7632L181.382 79.5382L141.081 87.5733L144.915 106.798ZM185.215 98.7632L189.069 117.984L189.868 117.824L186.014 98.603L182.161 79.3821L181.362 79.5423L185.215 98.7632ZM186.014 98.603L167.488 92.193L167.222 92.9635L185.748 99.3735L204.273 105.784L204.54 105.013L186.014 98.603ZM185.748 99.3735L167.225 92.9546L158.84 117.15L177.363 123.569L195.885 129.988L204.27 105.792L185.748 99.3735ZM177.363 123.569L158.827 117.188L158.745 117.426L177.281 123.807L195.817 130.188L195.899 129.95L177.363 123.569ZM177.281 123.807L172.508 104.794L172.263 104.855L177.036 123.869L181.808 142.882L182.053 142.821L177.281 123.807ZM177.036 123.869L172.245 104.86L128.768 115.818L133.559 134.827L138.35 153.836L181.827 142.878L177.036 123.869ZM133.559 134.827L115.066 128.322L97.9843 176.885L116.477 183.39L134.97 189.895L152.052 141.331L133.559 134.827ZM116.477 183.39L125.243 200.924L133.914 196.589L125.148 179.055L116.382 161.521L107.711 165.856L116.477 183.39ZM125.148 179.055L133.915 196.589L134.229 196.432L125.462 178.898L116.696 161.364L116.381 161.521L125.148 179.055ZM125.462 178.898L111.041 192.176L111.279 192.435L125.701 179.157L140.122 165.878L139.884 165.619L125.462 178.898ZM125.701 179.157L111.271 192.426L122.231 204.344L136.661 191.075L151.09 177.805L140.13 165.887L125.701 179.157ZM136.661 191.075L122.24 204.353L122.603 204.748L137.024 191.469L151.445 178.19L151.082 177.796L136.661 191.075ZM137.024 191.469L125.88 175.341L125.438 175.647L136.582 191.775L147.725 207.903L148.168 207.597L137.024 191.469ZM136.582 191.775L125.451 175.638L36.2765 237.144L47.4067 253.281L58.537 269.418L147.712 207.912L136.582 191.775ZM47.4067 253.281L36.2749 237.145L35.3491 237.783L46.481 253.919L57.6128 270.056L58.5386 269.417L47.4067 253.281ZM46.481 253.919L65.7681 257.426L65.9693 256.32L46.6821 252.813L27.3949 249.306L27.1938 250.413L46.481 253.919ZM46.6821 252.813L65.9675 256.33L75.2507 205.424L55.9653 201.907L36.68 198.39L27.3968 249.296L46.6821 252.813ZM55.9653 201.907L75.2457 205.451L75.2945 205.185L56.0142 201.641L36.7338 198.097L36.685 198.363L55.9653 201.907ZM56.0142 201.641L62.5534 220.122L62.8073 220.032L56.2681 201.551L49.7288 183.071L49.4749 183.161L56.0142 201.641ZM56.2681 201.551L62.8262 220.025L82.0606 213.197L75.5024 194.723L68.9443 176.249L49.7099 183.077L56.2681 201.551ZM75.5024 194.723L92.7627 204.017L117.321 158.408L100.061 149.114L82.8008 139.82L58.2422 185.429L75.5024 194.723ZM100.061 149.114L95.0827 130.153L32.9392 146.469L37.9175 165.43L42.8958 184.391L105.039 168.074L100.061 149.114ZM37.9175 165.43L32.9402 146.469L32.784 146.51L37.7612 165.471L42.7385 184.432L42.8947 184.391L37.9175 165.43ZM37.7612 165.471L45.5122 147.465L45.3647 147.402L37.6138 165.408L29.8628 183.414L30.0103 183.477L37.7612 165.471ZM37.6138 165.408L45.3905 147.413L40.539 145.316L32.7622 163.311L24.9854 181.306L29.837 183.403L37.6138 165.408ZM32.7622 163.311L40.5444 145.319L39.98 145.074L32.1978 163.067L24.4155 181.059L24.98 181.304L32.7622 163.311ZM32.1978 163.067L47.417 175.423L47.8047 174.945L32.5854 162.589L17.3662 150.233L16.9785 150.711L32.1978 163.067ZM32.5854 162.589L47.8151 174.932L86.7428 126.901L71.5132 114.558L56.2836 102.215L17.3558 150.246L32.5854 162.589ZM71.5132 114.558L86.7198 126.93L86.8604 126.757L71.6538 114.385L56.4472 102.014L56.3066 102.187L71.5132 114.558ZM71.6538 114.385V133.989H111.972V114.385V94.7819H71.6538V114.385ZM111.972 114.385L130.447 120.941L138.285 98.8531L119.81 92.2974L101.335 85.7416L93.4975 107.83L111.972 114.385ZM119.81 92.2974L117.224 72.8652L104.028 74.6211L106.614 94.0532L109.199 113.485L122.396 111.729L119.81 92.2974ZM106.614 94.0532L104.009 74.6236L103.74 74.6598L106.344 94.0894L108.949 113.519L109.218 113.483L106.614 94.0532ZM106.344 94.0894L121.976 82.2598L121.812 82.043L106.18 93.8726L90.5483 105.702L90.7124 105.919L106.344 94.0894ZM106.18 93.8726L121.799 82.0259L100.359 53.7583L84.7397 65.605L69.1208 77.4516L90.5613 105.719L106.18 93.8726ZM84.7397 65.605L100.358 53.7575L99.8824 53.1305L84.2642 64.978L68.6459 76.8255L69.1215 77.4525L84.7397 65.605ZM84.2642 64.978L87.159 84.3665L87.9374 84.2503L85.0425 64.8618L82.1476 45.4734L81.3693 45.5896L84.2642 64.978ZM85.0425 64.8618L87.9424 84.2495L199.657 67.5396L196.757 48.1519L193.857 28.7642L82.1425 45.4741L85.0425 64.8618ZM196.757 48.1519H216.361V36.6411H196.757H177.154V48.1519H196.757ZM196.757 36.6411L202.007 55.5286L202.348 55.4338L197.098 36.5464L191.849 17.6589L191.508 17.7537L196.757 36.6411ZM197.098 36.5464L202.387 55.4229L231.673 47.2178L226.384 28.3413L221.096 9.46478L191.81 17.6699L197.098 36.5464ZM226.384 28.3413L231.681 47.2157L232.39 47.0165L227.094 28.1421L221.798 9.2677L221.088 9.46692L226.384 28.3413ZM227.094 28.1421L207.77 24.8435L207.646 25.5701L226.97 28.8687L246.294 32.1672L246.418 31.4407L227.094 28.1421ZM226.914 176.546L218.67 158.761L199.805 167.505L208.048 185.291L216.292 203.076L235.157 194.332L226.914 176.546ZM208.048 185.291L199.806 167.504L199.646 167.578L207.888 185.365L216.131 203.151L216.291 203.077L208.048 185.291ZM207.888 185.365L189.943 177.473L189.872 177.635L207.817 185.527L225.762 193.418L225.833 193.256L207.888 185.365ZM207.817 185.527L189.853 177.678L166.197 231.819L184.161 239.667L202.124 247.516L225.78 193.376L207.817 185.527ZM184.161 239.667L166.194 231.826L165.909 232.479L183.875 240.321L201.842 248.163L202.127 247.509L184.161 239.667ZM183.875 240.321V259.924H186.49V240.321V220.717H183.875V240.321ZM186.49 240.321L201.797 252.567L201.938 252.391L186.63 240.145L171.323 227.899L171.182 228.075L186.49 240.321ZM186.63 240.145L201.961 252.362L248.495 193.97L233.165 181.752L217.834 169.535L171.3 227.928L186.63 240.145ZM233.165 181.752L248.492 193.974L248.784 193.607L233.457 181.386L218.129 169.165L217.837 169.531L233.165 181.752ZM233.457 181.386L245.613 166.007L245.245 165.716L233.088 181.095L220.932 196.474L221.3 196.765L233.457 181.386ZM233.088 181.095L245.235 165.708L239.545 161.217L227.399 176.604L215.253 191.991L220.942 196.482L233.088 181.095ZM227.399 176.604L239.563 161.231L239.339 161.054L227.174 176.426L215.01 191.799L215.234 191.977L227.399 176.604ZM227.174 176.426L218.972 158.621L218.711 158.741L226.914 176.546L235.116 194.351L235.377 194.231L227.174 176.426ZM207.678 62.9937L188.699 67.902L208.463 144.321L227.442 139.413L246.421 134.504L226.657 58.0853L207.678 62.9937ZM227.442 139.413L208.466 144.334L208.554 144.673L227.53 139.751L246.505 134.83L246.417 134.491L227.442 139.413ZM227.53 139.751L217.516 122.898L217.216 123.077L227.229 139.93L237.242 156.783L237.543 156.605L227.53 139.751ZM227.229 139.93L217.184 123.096L186.008 141.698L196.053 158.533L206.098 175.367L237.274 156.764L227.229 139.93ZM196.053 158.533L186.018 141.692L185.402 142.06L195.437 158.9L205.472 175.74L206.088 175.373L196.053 158.533ZM195.437 158.9L214.896 156.524L214.809 155.812L195.35 158.188L175.891 160.564L175.978 161.276L195.437 158.9ZM195.35 158.188L214.81 155.821L213.886 148.227L194.426 150.594L174.966 152.962L175.89 160.555L195.35 158.188ZM194.426 150.594L213.876 148.146L213.859 148.006L194.409 150.455L174.959 152.903L174.976 153.042L194.426 150.594ZM194.409 150.455L211.915 159.276L211.979 159.15L194.472 150.329L176.966 141.507L176.902 141.633L194.409 150.455ZM194.472 150.329L211.998 159.112L214.044 155.028L196.519 146.245L178.994 137.461L176.947 141.545L194.472 150.329ZM196.519 146.245H216.122V118.738H196.519H176.916V146.245H196.519ZM196.519 118.738L187.46 101.353L175.627 107.519L184.686 124.904L193.745 142.289L205.578 136.123L196.519 118.738ZM184.686 124.904L165.094 124.249L164.324 147.275L183.917 147.93L203.509 148.585L204.278 125.559L184.686 124.904ZM183.917 147.93L164.324 147.282L164.315 147.548L183.908 148.196L203.5 148.844L203.509 148.578L183.917 147.93ZM183.908 148.196L174.455 131.022L174.223 131.15L183.675 148.324L193.128 165.497L193.36 165.37L183.908 148.196ZM183.675 148.324L174.238 131.142L129.86 155.517L139.297 172.699L148.735 189.881L193.113 165.506L183.675 148.324ZM139.297 172.699L129.879 155.506L129.501 155.713L138.919 172.906L148.338 190.098L148.716 189.891L139.297 172.699ZM138.919 172.906L155.278 162.104L155.041 161.744L138.682 172.546L122.323 183.348L122.561 183.708L138.919 172.906ZM138.682 172.546L155.053 161.762L153.316 159.126L136.946 169.911L120.575 180.695L122.312 183.331L138.682 172.546ZM136.946 169.911L153.303 159.106L153.162 158.893L136.805 169.698L120.448 180.502L120.589 180.715L136.946 169.911ZM136.805 169.698L154.71 177.68L154.814 177.446L136.91 169.463L119.005 161.481L118.901 161.715L136.805 169.698ZM136.91 169.463L154.807 177.463L171.216 140.751L153.319 132.751L135.422 124.752L119.013 161.464L136.91 169.463ZM153.319 132.751L171.222 140.737L171.315 140.529L153.412 132.543L135.508 124.558L135.415 124.766L153.319 132.751ZM153.412 132.543L158.107 151.576L158.329 151.522L153.633 132.489L148.938 113.456L148.716 113.511L153.412 132.543ZM153.633 132.489L158.325 151.523L183.366 145.351L178.674 126.317L173.983 107.283L148.942 113.455L153.633 132.489ZM178.674 126.317L196.846 133.671L209.212 103.112L191.041 95.7583L172.869 88.4047L160.502 118.963L178.674 126.317ZM191.041 95.7583L187.444 76.4877L168.021 80.1127L171.618 99.3833L175.214 118.654L194.637 115.029L191.041 95.7583ZM171.618 99.3833L168.02 80.1128L167.345 80.2388L170.943 99.5093L174.54 118.78L175.215 118.654L171.618 99.3833ZM170.943 99.5093L190.187 103.246L190.318 102.573L171.074 98.8354L151.83 95.0982L151.699 95.7721L170.943 99.5093ZM171.074 98.8354L190.316 102.582L192.053 93.6577L172.811 89.9116L153.569 86.1655L151.832 95.0894L171.074 98.8354ZM172.811 89.9116L192.056 93.6433L192.124 93.2908L172.879 89.5591L153.634 85.8274L153.566 86.1799L172.811 89.9116ZM172.879 89.5591L174.155 109.121L174.515 109.097L173.239 89.5356L171.963 69.9738L171.604 69.9973L172.879 89.5591ZM173.239 89.5356L174.506 109.098L191.42 108.002L190.153 88.4399L188.886 68.8776L171.972 69.9733L173.239 89.5356ZM190.153 88.4399L207.737 97.1045L220.319 71.5693L202.735 62.9048L185.15 54.2403L172.568 79.7754L190.153 88.4399ZM202.735 62.9048L220.308 71.5926L220.437 71.3319L202.864 62.644L185.291 53.9562L185.162 54.217L202.735 62.9048ZM202.864 62.644V82.2474H207.587V62.644V43.0407H202.864V62.644ZM207.587 62.644L188.614 67.5729L188.705 67.9226L207.678 62.9937L226.652 58.0647L226.561 57.7151L207.587 62.644ZM322.122 46.1763L303.341 40.5561L295.975 65.1714L314.755 70.7915L333.536 76.4116L340.902 51.7964L322.122 46.1763ZM314.755 70.7915L295.97 65.1875L295.901 65.4199L314.686 71.0239L333.471 76.6279L333.541 76.3955L314.755 70.7915ZM314.686 71.0239L308.558 52.4031L308.326 52.4793L314.455 71.1001L320.583 89.7209L320.814 89.6448L314.686 71.0239ZM314.455 71.1001L308.314 52.4833L285.455 60.0233L291.595 78.6401L297.736 97.2569L320.595 89.7169L314.455 71.1001ZM291.595 78.6401L273.412 71.3135C272.57 73.4033 272.111 75.4259 271.884 76.498L291.06 80.5679L310.236 84.6377C310.263 84.5125 310.261 84.5382 310.222 84.6803C310.201 84.7567 310.16 84.8998 310.096 85.0952C310.035 85.2845 309.931 85.5863 309.778 85.9667L291.595 78.6401ZM291.06 80.5679L271.884 76.4983C271.571 77.9719 271.336 79.4376 271.169 80.6076L290.575 83.3843L309.98 86.1609C310.081 85.4584 310.173 84.9343 310.236 84.6374L291.06 80.5679ZM290.575 83.3843L271.169 80.6077C270.997 81.8089 270.868 82.898 270.782 83.672L290.266 85.8306L309.75 87.9892C309.806 87.486 309.885 86.8304 309.98 86.1609L290.575 83.3843ZM290.266 85.8306L270.782 83.672C270.755 83.9107 270.733 84.1265 270.721 84.2426L290.217 86.2876L309.714 88.3326C309.73 88.1817 309.739 88.0906 309.75 87.9891L290.266 85.8306ZM290.217 86.2876L292.781 105.723L320.344 102.087L317.781 82.6519L315.217 63.2168L287.654 66.8526L290.217 86.2876ZM317.781 82.6519L320.359 102.085L320.55 102.06L317.972 82.6265L315.394 63.1933L315.203 63.2187L317.781 82.6519ZM317.972 82.6265L306.083 98.2127L306.235 98.3289L318.125 82.7427L330.014 67.1564L329.862 67.0402L317.972 82.6265ZM318.125 82.7427L306.237 98.3303L317.782 107.135L329.669 91.5474L341.557 75.9598L330.012 67.1551L318.125 82.7427ZM329.669 91.5474L317.785 107.138L318.619 107.773L330.503 92.1831L342.388 76.5929L341.554 75.9571L329.669 91.5474ZM330.503 92.1831L326.891 72.9155L325.859 73.1088L329.472 92.3765L333.085 111.644L334.116 111.451L330.503 92.1831ZM329.472 92.3765L325.856 73.1094L311.515 75.8009L315.131 95.0679L318.747 114.335L333.088 111.643L329.472 92.3765ZM315.131 95.0679L310.511 76.0168L294.823 79.8215L299.444 98.8726L304.064 117.924L319.752 114.119L315.131 95.0679ZM299.444 98.8726H279.84V101.498H299.444H319.047V98.8726H299.444ZM299.444 101.498L302.304 120.891C302.586 120.85 302.681 120.837 303.18 120.763L300.333 101.368L297.487 81.9721C297.261 82.0052 296.759 82.0782 296.584 82.1039L299.444 101.498ZM300.333 101.368L303.18 120.763C304.092 120.629 305.407 120.437 307.033 120.201L304.224 100.8L301.415 81.3992C299.753 81.6398 298.411 81.8365 297.487 81.9721L300.333 101.368ZM304.224 100.8L307.033 120.201C310.292 119.73 314.806 119.084 319.81 118.389L317.112 98.9722L314.414 79.5553C309.322 80.2628 304.733 80.9188 301.415 81.3992L304.224 100.8ZM317.112 98.9722L319.81 118.389C329.92 116.984 341.67 115.43 349.219 114.672L347.261 95.1665L345.303 75.6611C336.922 76.5024 324.491 78.1553 314.414 79.5553L317.112 98.9722ZM347.261 95.1665L349.203 114.673L349.851 114.609L347.909 95.1021L345.967 75.5951L345.319 75.6595L347.261 95.1665ZM347.909 95.1021L328.809 90.6876L328.662 91.3214L347.762 95.7358L366.862 100.15L367.009 99.5165L347.909 95.1021ZM347.762 95.7358L328.659 91.3339L324.14 110.947L343.243 115.349L362.345 119.751L366.865 100.138L347.762 95.7358ZM343.243 115.349H323.639V115.351H343.243H362.846V115.349H343.243ZM343.243 115.351L324.155 110.885L319.271 131.757L338.359 136.223L357.447 140.689L362.33 119.817L343.243 115.351ZM338.359 136.223L319.267 131.776L319.147 132.291L338.239 136.739L357.331 141.186L357.451 140.671L338.359 136.223ZM338.239 136.739L345.063 118.361L344.566 118.177L337.742 136.554L330.918 154.932L331.415 155.116L338.239 136.739ZM337.742 136.554L344.594 118.188L321.169 109.447L314.316 127.814L307.463 146.181L330.889 154.921L337.742 136.554ZM314.316 127.814L306.81 109.705L248.794 133.751L256.3 151.861L263.806 169.97L321.822 145.923L314.316 127.814ZM256.3 151.861L248.775 133.759L248.427 133.904L255.953 152.005L263.478 170.107L263.826 169.962L256.3 151.861ZM255.953 152.005L272.081 140.863L271.868 140.553L255.739 151.696L239.61 162.838L239.824 163.148L255.953 152.005ZM255.739 151.696L271.845 140.521L267.507 134.267L251.4 145.442L235.293 156.616L239.632 162.87L255.739 151.696ZM251.4 145.442H271.003V145.441H251.4H231.797V145.442H251.4ZM251.4 145.441L267.35 134.044L263.205 128.242L247.254 139.639L231.304 151.036L235.45 156.838L251.4 145.441ZM247.254 139.639L263.196 128.23L262.839 127.732L246.898 139.141L230.957 150.55L231.313 151.048L247.254 139.639ZM246.898 139.141L253.647 157.546L254.223 157.335L247.473 138.93L240.724 120.525L240.148 120.736L246.898 139.141ZM247.473 138.93L254.222 157.335L267.624 152.421L260.875 134.016L254.127 115.611L240.725 120.525L247.473 138.93ZM260.875 134.016L267.759 152.371L281.883 147.074L275 128.719L268.116 110.364L253.992 115.661L260.875 134.016ZM275 128.719L292.388 137.77L307.872 108.023L290.483 98.9722L273.094 89.9212L257.611 119.668L275 128.719ZM290.483 98.9722V79.3688H278.958V98.9722V118.576H290.483V98.9722ZM278.958 98.9722L279.612 79.3797L263.441 78.8406L262.788 98.4331L262.134 118.026L278.305 118.565L278.958 98.9722ZM262.788 98.4331L263.43 78.8402L262.477 78.809L261.834 98.4019L261.192 117.995L262.145 118.026L262.788 98.4331ZM261.834 98.4019L276.902 110.942L277.513 110.208L262.445 97.6685L247.377 85.1285L246.767 85.8619L261.834 98.4019ZM262.445 97.6685L277.509 110.213L302.804 79.8357L287.74 67.2915L272.675 54.7473L247.38 85.1243L262.445 97.6685ZM287.74 67.2915V47.6881H278.738V67.2915V86.8949H287.74V67.2915ZM278.738 67.2915L294.518 55.66L294.378 55.4706L278.598 67.1021L262.818 78.7335L262.958 78.923L278.738 67.2915ZM278.598 67.1021L294.365 55.4526L285.381 43.2944L269.615 54.9438L253.848 66.5933L262.832 78.7515L278.598 67.1021ZM269.615 54.9438L285.385 43.2988L284.932 42.6865L269.163 54.3315L253.393 65.9765L253.845 66.5889L269.615 54.9438ZM269.163 54.3315L272.381 73.6689L273.132 73.5439L269.914 54.2065L266.695 34.8692L265.944 34.9942L269.163 54.3315ZM269.914 54.2065L273.14 73.5426L324.825 64.9186L321.598 45.5825L318.372 26.2465L266.687 34.8705L269.914 54.2065ZM321.598 45.5825L324.821 64.9192L325.559 64.7961L322.336 45.4595L319.114 26.1228L318.375 26.2459L321.598 45.5825ZM322.336 45.4595L303.558 39.8312L303.344 40.548L322.122 46.1763L340.9 51.8046L341.114 51.0878L322.336 45.4595ZM397.091 27.3325L386.376 43.7481L392.065 47.462L402.781 31.0464L413.496 14.6308L407.807 10.9169L397.091 27.3325ZM402.781 31.0464L392.066 47.4625L392.392 47.6754L403.107 31.2593L413.822 14.8432L413.495 14.6303L402.781 31.0464ZM403.107 31.2593L385.041 23.6499L384.889 24.0092L402.956 31.6187L421.022 39.2281L421.173 38.8687L403.107 31.2593ZM402.956 31.6187L384.893 23.9994L374.216 49.3119L392.278 56.9312L410.34 64.5504L421.018 39.2379L402.956 31.6187ZM392.278 56.9312L397.166 75.9152L425.739 68.5578L420.85 49.5737L415.962 30.5896L387.389 37.9471L392.278 56.9312ZM420.85 49.5737L425.743 68.5566L426.403 68.3866L421.509 49.4038L416.616 30.421L415.957 30.5909L420.85 49.5737ZM421.509 49.4038L402.039 47.1248L401.96 47.8005L421.43 50.0796L440.901 52.3586L440.98 51.6829L421.509 49.4038ZM421.43 50.0796L401.962 47.781L400.621 59.1375L420.089 61.436L439.558 63.7346L440.898 52.3781L421.43 50.0796ZM420.089 61.436L400.62 59.1456L400.583 59.461L420.052 61.7515L439.521 64.0419L439.558 63.7265L420.089 61.436ZM420.052 61.7515L415.043 42.799L414.736 42.8801L419.746 61.8325L424.755 80.785L425.062 80.7039L420.052 61.7515ZM419.746 61.8325L414.725 42.8829L375.217 53.3497L380.238 72.2993L385.258 91.249L424.766 80.7822L419.746 61.8325ZM380.238 72.2993L361.464 66.6559L340.24 137.262L359.013 142.906L377.787 148.549L399.011 77.9427L380.238 72.2993ZM359.013 142.906L340.238 137.269L340.087 137.77L358.863 143.407L377.638 149.043L377.789 148.542L359.013 142.906ZM358.863 143.407L366.62 125.404L366.14 125.197L358.382 143.2L350.625 161.203L351.105 161.41L358.863 143.407ZM358.382 143.2L366.127 125.191L353.03 119.558L345.285 137.567L337.54 155.576L350.637 161.208L358.382 143.2ZM345.285 137.567L353.025 119.556L352.67 119.404L344.93 137.415L337.19 155.425L337.545 155.578L345.285 137.567ZM344.93 137.415L364.075 141.63L364.158 141.253L345.013 137.038L325.868 132.822L325.785 133.199L344.93 137.415ZM345.013 137.038L364.158 141.254L377.088 82.5431L357.944 78.3267L338.799 74.1102L325.869 132.821L345.013 137.038ZM357.944 78.3267L352.742 59.4261L327.376 66.4076L332.579 85.3081L337.781 104.209L363.146 97.2272L357.944 78.3267ZM332.579 85.3081L327.386 66.405L326.892 66.5407L332.084 85.4438L337.277 104.347L337.771 104.211L332.579 85.3081ZM332.084 85.4438L351.391 82.0456L351.302 81.5407L331.996 84.939L312.689 88.3372L312.778 88.8421L332.084 85.4438ZM331.996 84.939L351.302 81.5385L347.947 62.4935L328.641 65.894L309.335 69.2946L312.689 88.3395L331.996 84.939ZM328.641 65.894L347.947 62.4918L347.863 62.0152L328.557 65.4175L309.251 68.8197L309.335 69.2963L328.641 65.894ZM328.557 65.4175L331.246 84.8355L331.726 84.7691L329.037 65.3511L326.347 45.933L325.868 45.9994L328.557 65.4175ZM329.037 65.3511L331.733 84.7681L363.337 80.3795L360.641 60.9624L357.945 41.5453L326.34 45.934L329.037 65.3511ZM360.641 60.9624L379.71 65.509L384.248 46.4758L365.179 41.9292L346.11 37.3826L341.572 56.4158L360.641 60.9624ZM365.179 41.9292L384.25 46.466L384.303 46.2443L365.232 41.7075L346.161 37.1708L346.108 37.3924L365.179 41.9292ZM365.232 41.7075L373.388 59.5336L373.595 59.4388L365.439 41.6128L357.283 23.7867L357.076 23.8815L365.232 41.7075ZM365.439 41.6128L373.613 59.4308L404.815 45.1174L396.641 27.2993L388.467 9.48127L357.265 23.7947L365.439 41.6128ZM396.641 27.2993L404.809 45.1201L405.043 45.0126L396.875 27.1919L388.708 9.37114L388.473 9.47857L396.641 27.2993ZM396.875 27.1919L386.174 43.6163L386.389 43.757L397.091 27.3325L407.793 10.9081L407.577 10.7675L396.875 27.1919ZM459.75 22.9009L445.944 36.8181L468.402 59.0965L482.208 45.1792L496.013 31.2619L473.555 8.98363L459.75 22.9009ZM482.208 45.1792L468.405 59.0997L468.635 59.3283L482.438 45.4077L496.241 31.4872L496.01 31.2587L482.208 45.1792ZM482.438 45.4077L464.586 37.3091L464.452 37.6041L482.304 45.7026L500.157 53.8012L500.29 53.5063L482.438 45.4077ZM482.304 45.7026L464.436 37.6381L421.376 133.042L439.244 141.107L457.111 149.171L500.172 53.7672L482.304 45.7026ZM439.244 141.107L421.38 133.033L421.256 133.308L439.12 141.381L456.983 149.455L457.107 149.181L439.244 141.107ZM439.12 141.381V121.778H384.144V141.381V160.985H439.12V141.381ZM384.144 141.381L399.895 129.711L399.755 129.522L384.004 141.193L368.253 152.863L368.393 153.052L384.144 141.381ZM384.004 141.193L399.743 129.505L388.976 115.007L373.238 126.695L357.5 138.382L368.266 152.88L384.004 141.193ZM373.238 126.695L389.011 115.055L388.876 114.872L373.103 126.512L357.33 138.152L357.464 138.335L373.238 126.695ZM373.103 126.512L392.018 131.663L392.077 131.444L373.163 126.293L354.248 121.143L354.188 121.361L373.103 126.512ZM373.163 126.293L392.071 131.466L405.026 84.113L386.118 78.9399L367.209 73.7669L354.254 121.12L373.163 126.293ZM386.118 78.9399L405.034 84.0845L405.097 83.8511L386.181 78.7065L367.265 73.5619L367.201 73.7953L386.118 78.9399ZM386.181 78.7065L392.83 97.1481L393.057 97.0661L386.409 78.6245L379.76 60.183L379.533 60.265L386.181 78.7065ZM386.409 78.6245L393.118 97.0441L429.268 83.8772L422.559 65.4575L415.85 47.0379L379.7 60.2049L386.409 78.6245ZM422.559 65.4575L441.497 70.5205L447.459 48.2197L428.521 43.1567L409.583 38.0938L403.621 60.3945L422.559 65.4575ZM428.521 43.1567L423.84 24.1204L394.061 31.4426L398.742 50.479L403.422 69.5154L433.202 62.1931L428.521 43.1567ZM398.742 50.479L394.074 31.4395L392.958 31.713L397.626 50.7524L402.295 69.7919L403.41 69.5185L398.742 50.479ZM397.626 50.7524L414.259 61.1287L414.866 60.1551L398.234 49.7788L381.602 39.4025L380.994 40.3762L397.626 50.7524ZM398.234 49.7788L414.874 60.1422L418.77 53.8873L402.129 43.5239L385.489 33.1606L381.594 39.4154L398.234 49.7788ZM402.129 43.5239L418.726 53.9563L418.812 53.8196L402.215 43.3872L385.618 32.9548L385.532 33.0916L402.129 43.5239ZM402.215 43.3872L408.876 61.8242L409.028 61.7695L402.367 43.3325L395.706 24.8955L395.554 24.9502L402.215 43.3872ZM402.367 43.3325L409.023 61.7711L465.919 41.2311L459.262 22.7925L452.606 4.35386L395.71 24.8939L402.367 43.3325ZM459.262 22.7925L465.888 41.242L466.166 41.1424L459.54 22.6929L452.913 4.24333L452.636 4.34294L459.262 22.7925ZM459.54 22.6929L445.743 36.6192L445.953 36.8272L459.75 22.9009L473.546 8.97457L473.336 8.76656L459.54 22.6929ZM258.427 41.936L240.997 50.9073L255.566 79.2139L272.997 70.2427L290.427 61.2714L275.857 32.9648L258.427 41.936ZM272.997 70.2427L269.16 89.467L275.229 90.678L279.065 71.4536L282.901 52.2292L276.833 51.0183L272.997 70.2427ZM279.065 71.4536L275.233 90.6789L276.071 90.8459L279.903 71.6206L283.734 52.3953L282.897 52.2283L279.065 71.4536ZM279.903 71.6206L265.786 58.019L265.193 58.6342L279.31 72.2358L293.427 85.8374L294.02 85.2222L279.903 71.6206ZM279.31 72.2358L265.199 58.628L246.368 78.1554L260.479 91.7632L274.59 105.371L293.421 85.8437L279.31 72.2358ZM260.479 91.7632L246.378 78.1451L246.24 78.2876L260.341 91.9058L274.442 105.524L274.58 105.381L260.479 91.7632ZM260.341 91.9058V72.3024H254.846V91.9058V111.509H260.341V91.9058ZM254.846 91.9058L270.479 80.0777L270.339 79.8931L254.707 91.7212L239.074 103.549L239.213 103.734L254.846 91.9058ZM254.707 91.7212L270.304 79.8469L261.404 68.1555L245.806 80.0298L230.208 91.9041L239.109 103.595L254.707 91.7212ZM245.806 80.0298L235.063 63.6322L221.739 72.3617L232.482 88.7593L243.225 105.157L256.549 96.4274L245.806 80.0298ZM232.482 88.7593L212.883 88.3334C212.738 95.0058 213.713 103.244 214.523 109.001L233.935 106.271L253.347 103.541C252.557 97.9174 252.01 92.4157 252.081 89.1852L232.482 88.7593ZM233.935 106.271L214.523 109.001C214.96 112.109 215.404 114.868 215.74 116.854L235.069 113.585L254.398 110.317C254.107 108.597 253.722 106.207 253.347 103.541L233.935 106.271ZM235.069 113.585L215.74 116.854C215.908 117.848 216.05 118.656 216.152 119.227L235.449 115.772L254.745 112.317C254.663 111.86 254.543 111.176 254.398 110.317L235.069 113.585ZM235.449 115.772L216.152 119.227C216.159 119.265 216.193 119.454 216.211 119.557L235.501 116.067L254.792 112.577C254.779 112.504 254.777 112.496 254.745 112.317L235.449 115.772ZM235.501 116.067L240.855 134.925C240.779 134.947 240.72 134.963 240.69 134.971C240.674 134.975 240.662 134.979 240.657 134.98C240.654 134.981 240.649 134.982 240.656 134.98C240.66 134.979 240.672 134.976 240.686 134.972C240.701 134.968 240.722 134.963 240.747 134.956C240.795 134.942 240.869 134.922 240.958 134.897L235.569 116.048L230.18 97.2001C230.219 97.1889 230.254 97.1791 230.283 97.1709C230.313 97.1628 230.338 97.1559 230.357 97.1506C230.376 97.1453 230.391 97.1412 230.4 97.1387C230.409 97.1364 230.415 97.1347 230.413 97.1352C230.413 97.1353 230.413 97.1353 230.412 97.1356C230.411 97.1358 230.41 97.1361 230.408 97.1365C230.405 97.1373 230.401 97.1385 230.395 97.14C230.385 97.1429 230.367 97.1477 230.346 97.1535C230.324 97.1594 230.296 97.1671 230.264 97.1761C230.231 97.1852 230.192 97.1962 230.148 97.2087L235.501 116.067ZM235.569 116.048L240.958 134.896C241.481 134.747 242.203 134.533 243.068 134.255L237.068 115.592L231.067 96.9299C230.675 97.0559 230.369 97.1462 230.18 97.2002L235.569 116.048ZM237.068 115.592L243.069 134.255C244.755 133.712 247.095 132.893 249.658 131.784L241.873 113.792L234.087 95.8014C232.99 96.2761 231.898 96.6627 231.067 96.9299L237.068 115.592ZM241.873 113.792L249.658 131.784C252.167 130.698 255.283 129.166 258.329 127.105L247.344 110.869L236.359 94.6324C235.997 94.8772 235.241 95.3022 234.087 95.8014L241.873 113.792ZM247.344 110.869L258.33 127.105C261.202 125.161 265.189 121.967 268.125 117.148L251.385 106.947L234.645 96.7458C235.286 95.6942 235.889 95.0763 236.143 94.8339C236.408 94.5808 236.515 94.5267 236.359 94.6324L247.344 110.869ZM251.385 106.947L268.103 117.185L268.228 116.981L251.51 106.743L234.793 96.5043L234.668 96.7084L251.385 106.947ZM251.51 106.743L253.032 126.287L253.27 126.268L251.749 106.724L250.227 87.1799L249.988 87.1985L251.51 106.743ZM251.749 106.724L253.228 126.272L283.292 123.996L281.813 104.449L280.334 84.9012L250.269 87.1766L251.749 106.724ZM281.813 104.449L283.286 123.997L284.103 123.935L282.629 104.387L281.156 84.8392L280.34 84.9008L281.813 104.449ZM282.629 104.387L265.054 95.7047L264.691 96.4381L282.267 105.121L299.843 113.803L300.205 113.07L282.629 104.387ZM282.267 105.121L264.688 96.4444L255.525 115.01L273.104 123.686L290.683 132.362L299.846 113.797L282.267 105.121ZM273.104 123.686L255.532 114.996L255.443 115.175L273.015 123.866L290.587 132.556L290.676 132.376L273.104 123.686ZM273.015 123.866L267.162 105.156L266.972 105.216L272.825 123.925L278.677 142.635L278.868 142.575L273.015 123.866ZM272.825 123.925L266.987 105.211L250.423 110.378L256.261 129.092L262.099 147.806L278.663 142.639L272.825 123.925ZM256.261 129.092L250.062 110.495L250.053 110.498L256.252 129.095L262.452 147.693L262.46 147.69L256.261 129.092ZM256.252 129.095L252 109.959L251.991 109.961L256.244 129.097L260.496 148.234L260.505 148.232L256.252 129.095ZM256.244 129.097L251.148 110.168L227.917 116.422L233.013 135.351L238.109 154.281L261.34 148.027L256.244 129.097ZM233.013 135.351L227.907 116.424L227.451 116.548L232.557 135.474L237.664 154.401L238.12 154.278L233.013 135.351ZM232.557 135.474L251.546 130.605L251.429 130.148L232.44 135.017L213.451 139.886L213.568 140.343L232.557 135.474ZM232.44 135.017L251.43 130.154L232.668 56.8891L213.677 61.7524L194.687 66.6158L213.449 139.88L232.44 135.017ZM213.677 61.7524L232.669 56.8951L232.572 56.5133L213.58 61.3706L194.588 66.2279L194.685 66.6098L213.677 61.7524ZM213.58 61.3706L221.541 79.2844L221.902 79.1243L213.94 61.2104L205.978 43.2966L205.618 43.4568L213.58 61.3706ZM213.94 61.2104L221.896 79.1267L265.779 59.6394L257.823 41.7231L249.867 23.8069L205.984 43.2942L213.94 61.2104ZM257.823 41.7231L265.764 59.6459L266.168 59.4672L258.226 41.5444L250.285 23.6217L249.881 23.8004L257.823 41.7231ZM258.226 41.5444L240.789 50.5021L240.99 50.8937L258.427 41.936L275.864 32.9783L275.663 32.5867L258.226 41.5444ZM439.293 69.8149L431.582 51.7922L416.222 58.3645L423.934 76.3872L431.646 94.4099L447.005 87.8377L439.293 69.8149ZM423.934 76.3872L418.547 57.5385L406.069 61.1049L411.456 79.9536L416.843 98.8023L429.321 95.2359L423.934 76.3872ZM411.456 79.9536L406.06 61.1074L405.824 61.1748L411.22 80.021L416.616 98.8672L416.851 98.7998L411.456 79.9536ZM411.22 80.021L392.646 73.7514L392.568 73.9828L411.142 80.2524L429.716 86.5221L429.794 86.2906L411.22 80.021ZM411.142 80.2524L392.574 73.9661L379.083 113.816L397.651 120.102L416.219 126.388L429.71 86.5387L411.142 80.2524ZM397.651 120.102L379.084 113.812L378.86 114.473L397.427 120.762L415.994 127.052L416.218 126.392L397.651 120.102ZM397.427 120.762L398.689 140.325L399.386 140.28L398.124 120.717L396.861 101.155L396.165 101.199L397.427 120.762ZM398.124 120.717L399.379 140.28L421.778 138.843L420.522 119.28L419.266 99.7166L396.868 101.154L398.124 120.717ZM420.522 119.28L421.74 138.845L421.991 138.83L420.773 119.264L419.555 99.6987L419.304 99.7143L420.522 119.28ZM420.773 119.264L437.826 128.933L437.95 128.714L420.897 119.045L403.844 109.377L403.72 109.596L420.773 119.264ZM420.897 119.045L437.917 128.772L443.667 118.711L426.647 108.984L409.627 99.2572L403.877 109.319L420.897 119.045ZM426.647 108.984L443.721 118.615L443.743 118.577L426.668 108.946L409.594 99.3142L409.573 99.3523L426.647 108.984ZM426.668 108.946L445.178 115.403L445.193 115.361L426.683 108.904L408.174 102.447L408.159 102.489L426.668 108.946ZM426.683 108.904L445.222 115.276L458.457 76.7668L439.918 70.395L421.379 64.0232L408.144 102.532L426.683 108.904ZM439.918 70.395L458.457 76.7687L458.799 75.7746L440.26 69.4009L421.722 63.0272L421.38 64.0213L439.918 70.395ZM440.26 69.4009L432.542 51.3806L431.576 51.7947L439.293 69.8149L447.011 87.8352L447.978 87.4211L440.26 69.4009Z" fill="url(#paint0_linear_242_340)" mask="url(#path-1-outside-1_242_340)"/>
<path d="M289.18 248.372L310.177 196.998V232.289L307.049 248.372H289.18Z" fill="url(#paint1_linear_242_340)"/>
</g>
<defs>
<filter id="filter0_nn_242_340" x="0.675781" y="0.0634766" width="505.248" height="355.697" filterUnits="userSpaceOnUse" color-interpolation-filters="sRGB">
<feFlood flood-opacity="0" result="BackgroundImageFix"/>
<feBlend mode="normal" in="SourceGraphic" in2="BackgroundImageFix" result="shape"/>
<feTurbulence type="fractalNoise" baseFrequency="1.9020223617553711 1.9020223617553711" stitchTiles="stitch" numOctaves="3" result="noise" seed="8921" />
<feComponentTransfer in="noise" result="coloredNoise1">
<feFuncR type="linear" slope="2" intercept="-0.5" />
<feFuncG type="linear" slope="2" intercept="-0.5" />
<feFuncB type="linear" slope="2" intercept="-0.5" />
<feFuncA type="discrete" tableValues="1 1 1 1 1 1 1 1 1 1 1 1 1 1 1 1 1 1 1 1 1 1 1 1 1 1 1 1 1 1 1 1 1 1 1 1 1 1 1 1 1 1 1 1 1 1 1 1 1 1 1 0 0 0 0 0 0 0 0 0 0 0 0 0 0 0 0 0 0 0 0 0 0 0 0 0 0 0 0 0 0 0 0 0 0 0 0 0 0 0 0 0 0 0 0 0 0 0 0 0 "/>
</feComponentTransfer>
<feComposite operator="in" in2="shape" in="coloredNoise1" result="noise1Clipped" />
<feComponentTransfer in="noise1Clipped" result="color1">
<feFuncA type="table" tableValues="0 0.15" />
</feComponentTransfer>
<feMerge result="effect1_noise_242_340">
<feMergeNode in="shape" />
<feMergeNode in="color1" />
</feMerge>
<feTurbulence type="fractalNoise" baseFrequency="0.86455553770065308 0.86455553770065308" stitchTiles="stitch" numOctaves="3" result="noise" seed="3005" />
<feColorMatrix in="noise" type="luminanceToAlpha" result="alphaNoise" />
<feComponentTransfer in="alphaNoise" result="coloredNoise1">
<feFuncA type="discrete" tableValues="1 1 1 1 1 1 1 1 1 1 1 1 1 1 1 1 1 1 1 1 1 1 1 1 1 1 1 1 1 1 1 1 1 1 1 1 1 1 1 1 1 1 1 1 1 1 1 1 1 1 1 0 0 0 0 0 0 0 0 0 0 0 0 0 0 0 0 0 0 0 0 0 0 0 0 0 0 0 0 0 0 0 0 0 0 0 0 0 0 0 0 0 0 0 0 0 0 0 0 0 "/>
</feComponentTransfer>
<feComposite operator="in" in2="effect1_noise_242_340" in="coloredNoise1" result="noise1Clipped" />
<feFlood flood-color="rgba(253, 104, 29, 0.25)" result="color1Flood" />
<feComposite operator="in" in2="noise1Clipped" in="color1Flood" result="color1" />
<feMerge result="effect2_noise_242_340">
<feMergeNode in="effect1_noise_242_340" />
<feMergeNode in="color1" />
</feMerge>
</filter>
<linearGradient id="paint0_linear_242_340" x1="257.318" y1="22.6929" x2="257.318" y2="328.79" gradientUnits="userSpaceOnUse">
<stop stop-color="#FAA301"/>
<stop offset="1" stop-color="#DD4002"/>
</linearGradient>
<linearGradient id="paint1_linear_242_340" x1="299.678" y1="196.998" x2="299.678" y2="248.372" gradientUnits="userSpaceOnUse">
<stop stop-color="#EE6408"/>
<stop offset="1" stop-color="#E55702"/>
</linearGradient>
</defs>
</svg>
