<svg width="643" height="377" viewBox="0 0 643 377" fill="none" xmlns="http://www.w3.org/2000/svg">
<path d="M218.086 131.173V141.823L217.473 143.469C217.37 143.746 217.27 144.074 217.042 144.837C216.852 145.474 216.544 146.509 216.127 147.576C215.271 149.763 213.644 152.923 210.184 155.325L136.227 208.659L181.241 205.553L180.986 204.911L189.256 180.237L296.169 145.458L287.083 180.28L285.758 181.708L286.122 182.594C290.206 192.547 294.557 202.434 299.025 212.334C301.053 203.543 303.45 194.974 305.358 187.333C306.316 183.499 307.184 179.635 308.099 175.61C309.004 171.629 309.951 167.513 311.029 163.395L311.672 160.937L315.818 156.598L346.019 145.014L350.577 151.35C352.225 153.64 352.397 155.966 352.429 156.288C352.506 157.067 352.484 157.725 352.464 158.095C352.423 158.872 352.317 159.616 352.232 160.145C352.092 161.016 351.895 161.985 351.696 162.899L354.486 157.417L408.073 200.882L406.415 177.976L484.842 154.257L488.763 156.676C489.49 157.124 491.26 158.284 492.554 160.434C492.559 160.442 492.564 160.452 492.569 160.46L509.059 121.624L581.207 88.6442L572.746 107.97C572.847 108.248 572.936 108.519 573.009 108.782C573.657 111.11 573.532 113.568 572.715 115.77L572.603 116.073L509.632 256.708C543.763 248.711 589.355 236.364 589.606 236.296L590.84 235.962L596.248 235.871L598.624 245.385C598.682 245.453 598.741 245.518 598.795 245.584C599.744 246.75 600.595 248.232 601.078 249.966C601.494 251.461 602.055 254.735 600.117 258.139L598.638 260.736L456.764 332.762L440.634 336.058V333.214L430.089 338.385L447.743 284.507L363.758 311.399L347.777 341.042L335.105 332.345L309.948 297.195C307.709 297.602 304.47 297.612 301.293 295.675L298.667 294.074L298.212 293.074L277.596 313.788L275.782 314.563C274.11 315.277 272.059 315.635 269.864 315.261C267.743 314.899 266.135 313.965 265.06 313.104C263.151 311.575 262.279 309.772 261.983 309.131C261.286 307.617 260.99 306.107 260.864 305.421C260.557 303.752 260.439 302.046 260.408 301.588L260.407 301.576C259.749 291.506 259.33 281.431 258.949 271.454L222.233 285.495C221.921 286.187 221.511 286.89 220.98 287.583L219.154 289.962L53.6725 347.587L38.5607 348.603V347.366L32.4551 349.511L43.6394 324.124L46.2482 322.492C72.3248 306.175 97.9228 290.76 123.704 274.456L123.716 274.449L123.728 274.441L162.167 250.28L160.814 246.798L114.27 253.884L107.646 250.966L104.312 246.841C95.6619 247.546 87.419 248.219 80.5982 248.776L54.3634 267.697L54.2096 267.809L54.0509 267.914C51.9061 269.341 48.6278 270.52 44.8487 269.612C41.384 268.779 39.2953 266.607 38.2641 265.224C38.1675 265.095 38.0762 264.962 37.9862 264.832L22.7227 273.204L60.0935 186.994L248.699 36.5054L218.086 131.173ZM330.478 249.207C328.986 255.068 327.487 260.922 325.984 266.768C326.641 266.034 327.255 265.379 327.768 264.893L335.843 257.25L344.836 268.576L359.534 248.119L330.478 249.207ZM434.649 200.882L459.938 207.536L448.118 233.475L448.041 233.642L451.714 232.973L452.941 231.531H460.679L471.312 210.523L484.842 189.563L434.649 200.882ZM368.739 215.406C367.176 216.744 365.654 218.056 364.179 219.358C364.986 219.23 365.797 219.104 366.607 218.974C368.667 218.646 370.726 218.314 372.743 217.991L368.739 215.406Z" fill="url(#paint0_linear_242_186)"/>
<g filter="url(#filter0_n_242_186)">
<path d="M221.834 126.818V137.765L221.102 139.768C221.025 139.979 220.944 140.249 220.709 141.049C220.52 141.694 220.191 142.825 219.74 144.001C218.813 146.419 217 150.041 213.105 152.802L144.212 203.469L181.063 200.876L189.493 175.232L312.183 126.818L290.906 177.731L290.066 178.652C293.43 187.004 296.975 195.314 300.62 203.631C302.339 196.535 304.174 189.709 305.681 183.552V183.551C306.637 179.65 307.502 175.721 308.422 171.592C309.33 167.517 310.287 163.276 311.377 159.028L312.145 156.034L316.938 150.923L352.39 131.268L354.456 146.063C355.645 147.746 356.188 149.444 356.441 150.605L402.951 194.292L405.379 167.868L487.943 148.07L492.613 151.007C493.079 151.3 493.956 151.876 494.909 152.798L510.509 115.327L610.175 55.7274C585.626 112.914 540.985 194.996 515.842 252.262C543.036 245.672 642.827 222.934 642.827 222.934L603.264 260.579L460.13 334.686L443.335 338.188L442.97 335.631L429.518 342.357L447.484 286.449L367.459 312.581L358.125 361.174L331.765 335.631L311.251 298.519C308.786 298.771 305.596 298.491 302.445 296.531L300.197 295.133L263.561 333.819C263.561 333.819 259.68 286.778 259.148 272.864L225.479 285.995C225.169 286.589 224.796 287.187 224.351 287.778L222.174 290.669L0.0839844 376.087L43.3329 322.727L46.4439 320.742C72.6769 304.001 98.282 288.279 124.177 271.578L161.476 247.668L161.222 247.001L105.815 257.924L82.63 248.761L35.8874 284.597L38.6661 265.804L10.3954 281.705L59.7952 182.474L273.8 0.0874023L221.834 126.818ZM214.745 280.527C215.356 279.715 214.193 277.436 213.009 277.926L51.4563 334.846L49.876 338.225V338.229L52.8348 338.026L214.745 280.527ZM69.6965 189.939L44.7661 248.593L63.1769 238.293C63.1769 238.293 65.6543 238.087 69.8453 237.738L49.3445 252.696L46.8097 255.363C46.9642 256.916 47.8911 259.268 49.6074 258.103L78.2474 237.039C107.115 234.637 167.383 229.623 167.472 229.615L169.161 234.047L169.256 233.969L178.035 251.357L130.691 281.705C104.912 298.332 78.7646 314.4 52.9092 330.9L52.1741 332.601L211.361 275.589C209.12 262.01 196.615 211.505 196.605 211.465L196.061 211.896L135.978 216.125L111.742 212.405L206.068 143.032C208.562 141.33 208.843 138.264 209.804 135.631V135.626L105.815 211.495L100.569 210.69L163.012 164.596L175.906 154.052L207.801 131.268L230.753 58.8822L69.6965 189.939ZM486.214 161.207L416.436 182.729L399.92 221.584C399.877 221.591 341.411 231.313 341.009 230.937C341.009 230.937 343.351 226.956 343.799 226.334C349.675 218.198 357.14 211.512 364.673 204.939C366.559 203.295 368.668 201.871 370.562 200.231L390.886 213.612L396.813 199.035L360.248 169.238L326.214 237.45L381.98 235.32L347.558 284.184L337.053 270.693C334.276 273.374 320.681 291.005 320.681 291.005L344.649 325.16L346.509 326.462L401.911 221.664L404.46 222.336L402.951 226.723L417.936 222.264C420.693 216.098 421.661 209.052 424.911 203.033L486.172 177.737C486.172 177.728 486.424 165.228 486.421 162.255C486.421 162.091 487.262 161.867 486.214 161.207ZM594.528 251.541C594.977 250.737 593.649 248.836 592.645 249.423L454.434 320.547L453.431 323.775L453.431 323.779L456.067 323.229L594.528 251.541ZM519.817 124.275L483.312 211.957L471.482 235.794L481.66 237.061L482.236 264.498L481.66 265.612L478.873 266.204L477.733 267.598L463.237 276.754L449.73 318.788L599.661 243.823L595.518 243.895C595.473 243.907 528.997 262.278 495.768 269.211C494.068 269.565 494.584 268.45 492.823 270.629L496.047 263.117L495.938 264.044L497.564 263.972H497.56L566.35 107.292C566.579 106.661 566.422 105.799 565.785 105.509C565.033 105.165 565.059 106.203 564.817 106.623C563.997 108.045 563.237 109.975 562.532 111.527C541.829 157.168 522.397 203.394 502.026 249.189L564.609 103.393L519.817 124.275ZM323.847 161.153L323.028 162.026C320.954 170.111 319.351 178.315 317.365 186.421C313.798 200.989 309.159 216.744 307.578 231.673C307.042 236.753 307.999 242.385 306.688 247.521C305.507 248.775 305.701 244.343 305.646 244.122C303.812 236.516 296.559 224.189 293.126 216.452C288.197 205.358 283.356 194.209 278.823 182.942C278.081 181.899 276.604 182.188 275.681 181.438C274.758 180.688 274.817 178.764 273.383 178.878C272.999 180.993 271.798 182.853 271.068 184.819C269.111 190.111 266.905 195.951 267.036 201.566C267.285 212.32 268.972 223.766 269.579 234.605C270.802 256.479 271.119 278.455 272.519 300.299C272.573 301.138 272.885 305.345 273.8 304.947L293.219 285.048C294.054 279.23 293.186 273.183 293.177 267.212C293.173 266.217 293.641 265.356 293.594 264.322C293.388 259.801 287.687 244.822 286.147 239.144C285.005 234.923 283.735 230.63 283.082 226.338L283.077 226.329C284.469 227.677 285.274 230.122 286.101 231.973C294.092 249.873 300.81 268.424 308.792 286.298C309.8 286.925 311.407 286.31 312.183 285.455C313.33 284.183 315.632 273.827 316.265 271.336C325.378 235.304 334.368 198.972 342.747 162.771C343.08 161.347 345.062 153.623 344.636 153.021L323.847 161.153ZM284.676 300.951C284.702 301.097 284.707 301.08 284.674 300.941C284.675 300.945 284.676 300.948 284.676 300.951ZM460.394 239.384C460.055 239.791 459.867 240.016 459.862 240.022L411.113 249.086C410.133 249.018 409.326 248.097 408.448 247.924C406.632 247.569 393.396 250.715 390.582 251.417C389.784 251.615 388.698 251.759 388.073 252.287C377.368 273.229 364.657 300.763 364.623 300.837L475.896 264.502C475.903 264.436 477.32 251.769 478.555 239.384H460.394ZM216.957 272.89L217.133 276.323L263.561 258.217C265.331 257.975 264.098 254.374 263.473 254.323L216.957 272.89ZM199.026 184.759L193.453 201.712C194.456 204.288 197.901 207.503 198.617 209.953C199.072 211.508 199.527 212.97 199.969 214.487C201.816 220.811 209.289 251.633 210.284 255.743L210.184 255.785L213.641 268.5L214.522 269.16L266.379 249.858L267.057 248.841L263.482 223.395C263.039 222.647 259.885 223.849 259.173 224.177C253.116 226.959 256.747 231.242 256.022 236.377L213.848 254.234L209.131 232.662C209.218 232.633 240.758 222.229 253.309 217.067C255.07 215.638 255.239 207.116 256.511 204.708L207.239 220.051C208.773 218.602 206.847 217.929 206.847 216.122C206.843 213.189 208.376 204.242 209.033 201.048C209.172 200.38 209.295 199.3 209.758 198.829L278.994 172.933L279.996 171.833L283.892 156.602L199.026 184.759ZM334.235 249.198C333.413 252.489 332.59 255.778 331.765 259.064L338.322 252.733L347.074 263.972L358.125 248.285L334.235 249.198ZM210.18 255.788L210.184 255.785L210.184 255.783L210.18 255.788ZM447.908 212.905C447.317 212.824 446.772 212.964 446.201 213.096C439.684 214.58 429.604 218.43 422.986 220.758C415.277 223.467 407.717 226.788 400 229.498L391.703 247.671L413.24 243.206C415.015 242.176 415.763 233.649 417.771 232.487L441.565 227.102L447.908 212.905ZM163.506 232.116C163.506 232.116 130.86 236.706 114.654 239.854L115.49 240.909L117.147 241.654L163.852 234.403L163.506 232.116ZM251.152 218.826L215.099 233.089C214.056 233.432 213.606 237.046 214.815 236.879L252.442 221.89L252.62 218.709L251.152 218.826ZM446.201 203.033L465.453 203.137L454.489 227.671L454.767 227.339H462.245L472.364 206.948L477.633 194.292L446.201 203.033ZM212.794 201.775L210.826 214.928C215.996 214.919 213.965 207.92 215.602 204.462L215.598 204.458L267.831 184.419C269.014 183.615 268.378 181.897 268.501 180.649L212.794 201.775Z" fill="url(#paint1_linear_242_186)"/>
</g>
<defs>
<filter id="filter0_n_242_186" x="0.0839844" y="0.0874023" width="642.743" height="376" filterUnits="userSpaceOnUse" color-interpolation-filters="sRGB">
<feFlood flood-opacity="0" result="BackgroundImageFix"/>
<feBlend mode="normal" in="SourceGraphic" in2="BackgroundImageFix" result="shape"/>
<feTurbulence type="fractalNoise" baseFrequency="3.3865246772766113 3.3865246772766113" stitchTiles="stitch" numOctaves="3" result="noise" seed="9324" />
<feColorMatrix in="noise" type="luminanceToAlpha" result="alphaNoise" />
<feComponentTransfer in="alphaNoise" result="coloredNoise1">
<feFuncA type="discrete" tableValues="1 1 1 1 1 1 1 1 1 1 1 1 1 1 1 1 1 1 1 1 1 1 1 1 1 1 1 1 1 1 1 1 1 1 1 1 1 1 1 1 1 1 1 1 1 1 1 1 1 1 1 0 0 0 0 0 0 0 0 0 0 0 0 0 0 0 0 0 0 0 0 0 0 0 0 0 0 0 0 0 0 0 0 0 0 0 0 0 0 0 0 0 0 0 0 0 0 0 0 0 "/>
</feComponentTransfer>
<feComposite operator="in" in2="shape" in="coloredNoise1" result="noise1Clipped" />
<feFlood flood-color="rgba(0, 0, 0, 0.25)" result="color1Flood" />
<feComposite operator="in" in2="noise1Clipped" in="color1Flood" result="color1" />
<feMerge result="effect1_noise_242_186">
<feMergeNode in="shape" />
<feMergeNode in="color1" />
</feMerge>
</filter>
<linearGradient id="paint0_linear_242_186" x1="312.105" y1="36.5054" x2="312.105" y2="349.511" gradientUnits="userSpaceOnUse">
<stop stop-color="#59FED1"/>
<stop offset="1" stop-color="#8AD2FF"/>
</linearGradient>
<linearGradient id="paint1_linear_242_186" x1="321.456" y1="188.087" x2="321.456" y2="332.779" gradientUnits="userSpaceOnUse">
<stop stop-color="#4C4C4C"/>
<stop offset="1" stop-color="#B2B2B2"/>
</linearGradient>
</defs>
</svg>
