<svg width="618" height="335" viewBox="0 0 618 335" fill="none" xmlns="http://www.w3.org/2000/svg">
<g filter="url(#filter0_n_242_334)">
<path d="M7.7183 201.941C7.23074 193.411 20.8653 187.453 28.5023 184.659C43.1955 179.283 90.8699 175.319 102.714 185.828C103.083 186.158 104.009 186.982 103.075 187.037C93.6249 185.444 82.8091 184.541 73.2962 186.291C66.2635 187.586 69.1441 191.33 73.0685 194.281C83.6097 202.192 116.591 220.526 128.984 221.554C138.953 222.386 150.42 216.798 155.93 208.487C161.44 200.175 160.89 195.301 154.894 187.814C131.425 158.476 92.7851 156.122 59.5213 145.833C49.3961 142.701 30.3703 135.944 35.6056 121.918C40.519 108.749 82.1262 89.1118 95.3674 81.2241C98.2165 79.5289 106.536 75.0238 108.09 72.7556C109.488 70.715 111.591 62.8195 112.502 59.8999C117.705 43.1434 121.214 25.6414 121.928 8.09229C123.671 8.12368 124.534 10.7921 125.052 12.0322C127.273 17.3613 128.537 23.8755 130.586 29.2596C139.384 52.3418 151.338 71.6569 169.32 88.7037C169.681 89.6769 169.155 90.2027 168.669 90.9327C165.576 95.5397 156.518 101.002 152.131 105.013C151.15 105.907 144.18 112.414 145.083 113.261C156.181 110.444 169.171 111.762 179.359 117.052C180.191 117.484 185.63 120.835 185.889 121.126C186.321 121.62 186.015 123.245 184.727 122.672C184.194 122.436 183.55 121.236 182.687 120.788C179.155 118.928 177.271 118.638 173.331 119.548L173.449 121.385C184.162 133.762 195.504 145.785 204.052 159.85L207.081 161.129C202.081 145.715 203.039 125.709 207.466 110.106C208.149 107.713 209.012 103.741 210.998 102.266C210.857 120.89 212.976 138.847 219.271 156.397C220.032 158.523 225.189 171.23 226.311 171.316L228.485 149.176C231.099 121.903 260.941 83.1941 287.117 112.885L296.551 127.373C295.429 122.342 292.187 116.542 289.04 112.532C286.685 109.541 280.759 105.397 279.323 103.208C274.873 96.4344 265.831 68.0309 262.785 58.7305C260.799 52.6636 258.562 45.4587 257.11 39.2899C256.922 38.4815 255.87 36.8647 256.922 36.3388C273.358 57.9142 290.445 77.6531 312.328 93.9543C321.236 100.594 331.401 105.586 339.728 112.861C335.168 113.269 332.758 111.535 328.489 114.164C324.729 116.487 324.698 118.167 324.784 122.311C325.192 142.191 334.163 171.018 337.97 191.542C338.402 193.849 339.093 206.234 340.929 206.642L343.276 204.296L375.849 113.246C376.995 112.171 380.449 118.049 380.566 114.415C370.677 101.716 360.74 90.344 352.946 76.0991C342.931 57.7887 334.587 35.5147 337.389 14.3553C338.7 13.0054 338.59 14.0414 338.771 15.305C339.038 17.1651 338.677 19.5196 339.155 21.6151C343.841 42.0604 360.983 57.9535 377.497 69.6006C400.605 85.9018 428.272 97.1565 455.9 103.051C457.243 104.299 455.704 104.408 454.707 104.589C421.145 110.554 405.942 113.866 388.086 144.726C381.069 156.852 375.37 170.806 370.347 183.882C371.964 182.791 373.125 180.334 374.107 178.623C379.255 169.621 384.09 160.548 389.64 151.774C395.189 142.999 398.062 140.935 401.327 131.282C402.575 127.585 408.744 119.156 413.477 121.51L453.93 145.432C452.486 140.919 449.825 136.524 445.712 134.044L446.984 132.977L574.78 117.963L575.212 119.933C561.594 121.628 550.77 131.768 541.038 140.7C527.875 152.771 516.745 167.565 501.675 177.47C500.372 178.325 489.761 182.673 491.221 184.667C505.702 187.547 517.821 194.179 523.676 208.33C525.544 212.843 526.195 217.724 527.875 222.182C533.628 237.432 546.917 253.192 557.905 265.145C572.763 281.297 590.447 294.733 605.022 311.027L571.531 287.623C555.864 277.726 539.908 268.143 524.72 257.516C511.808 248.482 497.272 241.011 495.899 223.548C495.365 216.806 497.351 203.997 495.019 198.527C491.024 189.148 472.807 191.275 464.715 193.488C461.928 205.23 457.478 225.832 466.857 235.321C469.055 237.55 479.942 243.491 482.438 242C485.512 240.163 476.551 237.761 475.735 237.432C472.454 236.098 467.799 232.872 466.285 229.615C463.294 223.179 463.569 214.043 464.589 207.098C464.903 204.978 466.551 197.201 468.215 196.596C473.404 194.705 489.51 194.524 492.351 200.411C496.032 208.031 491.558 222.104 492.971 230.4C495.498 245.202 522.106 261.244 534.139 269.289C557.67 285.025 582.48 298.924 604.81 316.426C611.074 315.32 608.868 310.462 605.823 306.922C599.544 299.631 589.56 292.489 582.535 285.645C565.173 268.739 539.437 243.86 530.544 221.083C527.09 212.223 526.91 204.924 520.23 196.863C514.391 189.807 507.436 186.644 499.077 183.497C505.082 180.154 510.419 176.285 515.552 171.732C532.506 156.695 550.833 131.501 572.653 124.446C575.754 123.441 577.92 125.364 580.094 120.898C580.746 119.564 580.094 117.256 581.46 117.178C583.634 126.031 574.67 125.819 568.925 127.781C551.752 133.636 528.809 164.245 513.457 176.7C511.895 177.972 503.881 181.794 505.341 183.85L514.689 189.077C528.26 198.872 530.308 218.643 538.401 232.833C541.548 238.35 546.734 245.69 550.996 250.47C551.749 251.31 550.02 249.143 553.434 253.396L558.799 260.224C563.676 265.588 562.465 264.054 566.131 267.907C577.308 279.664 591.373 289.577 602.33 300.769C605.352 303.861 608.947 306.554 610.493 310.799V313.381V315.819C610.14 321.274 604.512 318.561 600.823 316.403C591.2 310.768 581.185 301.671 571.688 295.306C561.406 288.423 550.661 281.807 540.284 274.908C527.169 266.188 496.629 249.707 491.566 234.936C488.74 226.679 494.658 205.041 488.819 200.01C485.883 197.483 471.08 197.004 468.835 199.594C468.498 199.979 466.253 208.44 466.128 209.444C465.594 213.698 465.602 223.352 467.226 227.095C467.658 228.084 471.912 232.426 471.912 234.183C471.912 235.472 474.887 234.74 476.268 235.321C477.94 236.019 486.794 239.551 487.32 240.163C489.509 242.706 488.991 248.043 486.142 249.887C482.736 252.093 472.187 249.872 468.027 249.84C441.584 249.636 417.825 255.311 395.016 268.645C391.767 270.544 382.623 278.11 379.962 278.722C375.111 279.829 372.223 276.203 373.62 271.58C374.617 268.284 385.919 260.051 387.944 256.025L390.723 256.111C389.522 254.149 390.848 253.607 391.516 251.818L381.045 248.129C375.959 244.747 371.736 240.94 367.553 236.506C365.598 234.434 361.046 225.769 357.695 228.194C356.894 228.775 352.922 244.974 352.475 247.305C350.246 258.787 350.505 269.971 350.654 281.658C350.678 283.769 351.784 285.739 351.47 287.842C350.96 291.233 345.67 293.737 345.937 296.499C346.204 299.262 359.021 309.363 361.713 312.196C363.95 314.543 369.774 320.468 368.353 323.592C366.25 328.215 362.208 327.453 358.581 325.531C348.637 320.249 336.651 309.826 326.613 303.351C298.992 285.535 269.606 270.395 239.631 256.904C234.56 254.016 224.106 254.18 219.671 251.747C218.486 251.096 215.911 248.459 215.676 247.062C214.962 242.824 218.965 241.646 217.662 238.075C217.356 237.589 208.855 232.103 208.047 231.93C205.213 231.341 203.8 232.935 201.289 233.484C195.787 234.693 187.035 235.689 182.279 238.02C181.258 238.515 180.324 238.531 180.324 240.03C180.324 242.91 193.369 247.509 196.328 249.189C198.29 250.303 206.359 255.57 207.411 256.943C210.087 260.443 209.224 265.71 204.915 266.981C202.843 267.593 179.759 259.871 174.893 258.842C170.026 257.814 163.92 256.841 158.763 256.135C156.377 255.805 152.578 257.241 151.315 254.565C158.386 254.439 165.694 255.099 172.672 256.354C182.012 258.042 193.887 263.638 202.168 264.587C208.659 265.333 208.353 260.098 203.855 256.574C194.633 249.354 180.52 244.134 169.383 240.822C180.191 234.724 193.087 233.5 204.946 230.078L207.827 226.303C211.469 233.303 219.483 237.918 227.457 238.075C226.256 244.864 217.34 239.009 217.968 247.109C218.329 251.802 224.977 250.923 228.289 251.763C263.633 260.789 314.4 292.285 345.144 313.075C349.273 315.869 358.88 325.115 363.55 324.958C369.484 324.761 364.186 317.407 362.192 315.257C343.056 294.663 313.544 274.139 291.818 254.95C283.993 248.035 276.003 241.16 269.064 233.366C275.406 235.038 282.219 234.088 288.341 231.844C290.045 229.45 287.038 226.985 287.195 226.012C287.297 225.408 294.118 218.611 295.311 216.83C301.802 207.121 304.165 196.188 306.755 185.091C307.037 183.89 306.229 183.717 308.301 183.921C312.602 198.558 315.899 213.565 320.13 228.218C325.278 246.049 331.926 272.53 341.157 288.039C345.144 294.741 347.985 291.837 349.72 285.354C347.302 262.712 350.426 239.826 358.158 218.462C367.254 233.468 381.1 255.727 401.9 247.274C406.185 245.531 409.898 241.482 414.277 240.43C404.16 249.15 391.115 254.84 381.587 264.242C379.883 265.922 371.642 274.845 376.328 276.423C378.055 276.855 379.483 276.525 381.1 275.913C384.828 274.484 392.858 267.735 397.12 265.255C414.042 255.413 434.284 249.354 453.93 248.286C458.844 248.019 482.61 249.15 484.612 247.572C485.797 246.968 486.747 241.285 484.541 242C483.741 242.259 484.07 243.977 482.885 244.315C482.014 244.558 479.738 243.577 478.286 243.538C441.607 242.525 407.912 249.118 378.973 272.616C378.628 271.141 379.789 270.748 380.535 269.869C394.647 253.058 417.857 246.042 431.098 227.033C433.311 223.846 436.545 219.851 437.047 216.115C429.026 225.361 418.312 234.387 407.465 240.289C392.465 248.451 382.489 244.276 371.885 232.22C366.611 226.232 361.941 218.187 359.311 210.637H357.043C353.385 225.07 347.318 240.132 346.109 255.059C345.293 265.098 346.51 275.842 346.007 285.959C344.132 286.39 344.736 285.629 344.257 284.938C340.521 279.499 337.091 270.874 334.807 264.595C323.63 233.861 317.626 200.725 306.755 169.817L302.085 193.779C297.996 205.457 292.227 216.555 283.224 225.157L285.076 227.017L285.202 228.681C283.067 230.87 272 230.015 268.923 229.238L256.545 223.179C255.964 223.744 259.434 227.935 260.062 228.681C268.13 238.177 280.775 248.883 290.28 257.328C312.963 277.498 338.629 295.636 360.159 316.952C361.085 317.871 363.165 319.754 360.552 319.699C339.022 303.665 316.221 289.035 292.666 276.133C274.496 266.181 250.454 253.105 230.644 247.894C229.223 247.525 218.384 246.63 222.559 244.527C229.027 241.27 232.143 240.508 229.231 232.032C224.082 217.034 205.033 187.139 195.967 172.682C190.512 163.986 185.261 154.795 177.64 147.834L175.74 149.05C180.599 179.526 199.075 202.836 218.839 225.157C219.93 226.389 220.644 228.492 221.649 229.411C222.701 230.384 226.303 230.996 225.919 232.974C225.503 235.14 220.063 232.448 219.106 231.954C212.419 228.469 209.287 221.711 202.38 219.255L203.95 226.311C191.313 229.411 177.098 231.765 165.458 237.659C164.642 238.075 161.047 239.771 161.573 240.822C162.232 242.141 179.932 246.771 183.291 248.145C189.9 250.853 198.008 255.24 203.165 260.051C178.707 251.818 152.547 246.944 126.645 249.864C118.208 250.813 108.656 251.7 107.384 262.005C106.246 271.266 110.641 279.225 113.043 287.787C113.436 289.192 114.283 289.404 112.502 290.66C90.1243 263.732 77.566 226.02 45.1342 208.918C40.3934 206.423 29.7267 201.988 24.5935 201.988H7.7183V201.941ZM126.229 99.1264C125.288 98.0826 111.528 108.529 109.833 109.8C104.292 113.944 94.19 121.133 89.7397 125.811C89.2138 126.368 88.3897 126.714 88.5937 127.695C108.483 140.527 131.363 148.344 150.812 162.063L168.614 175.256L146.778 129.994C142.767 125.058 139.902 113.026 135.428 125.191C133.788 129.649 134 133.008 134.863 137.584C128.443 132.584 123.835 122.57 124.04 114.431C124.11 111.731 127.548 100.602 126.229 99.1343V99.1264ZM258.382 139.436C248.382 149.404 247.48 174.636 252.001 187.249C255.823 197.931 266.231 206.43 274.998 194.893C280.273 187.947 281.505 174.793 280.767 166.333C279.959 157.095 272.314 125.56 258.39 139.436H258.382ZM512.295 136.116C510.505 135.002 475.515 139.601 474.314 141.485L466.104 184.675C466.677 185.247 472.901 180.978 473.882 180.295C483.419 173.64 495.004 163.633 502.609 154.866C504.674 152.488 516.031 138.447 512.303 136.124L512.295 136.116ZM447.942 198.7C448.915 198.095 450.806 189.839 451.089 188.112C451.717 184.298 454.174 163.17 453.153 161.121C452.8 160.415 452.117 159.975 451.379 159.764C435.391 157.574 415.62 146.296 405.071 164.857C397.803 177.642 407.276 172.98 414.78 172.211C420.431 171.63 427.165 170.744 432.707 170.524C434.795 170.437 438.515 169.864 439.41 172.109C434.324 173.53 429.826 176.614 424.921 178.427C416.993 181.362 395.856 185.263 391.021 190.443C382.701 199.343 390.126 219.49 402.088 219.247C417.339 218.933 436.498 195.937 443.507 183.646C443.994 182.791 444.111 181.724 444.135 180.758C445.626 180.75 445.76 180.303 445.595 181.873C445.014 187.469 446.364 193.214 445.697 198.81C446.411 198.731 447.431 199.029 447.949 198.708L447.942 198.7ZM338.669 286.956C326.887 269.006 319.109 229.96 312.83 208.039C312.32 206.258 309.212 196.494 307.932 196.471L298.451 216.013C296.669 218.611 292.635 222.873 291.512 225.557C290.625 227.668 290.751 231.647 289.095 233.343C285.414 237.102 273.177 233.092 280.453 242.784C299.149 256.386 316.166 274.743 334.634 288.282C335.239 288.729 339.406 290.99 339.728 290.636C339.932 289.184 339.446 288.141 338.677 286.963L338.669 286.956Z" fill="#359885"/>
<path d="M7.7183 201.941C7.23074 193.411 20.8653 187.453 28.5023 184.659C43.1955 179.283 90.8699 175.319 102.714 185.828C103.083 186.158 104.009 186.982 103.075 187.037C93.6249 185.444 82.8091 184.541 73.2962 186.291C66.2635 187.586 69.1441 191.33 73.0685 194.281C83.6097 202.192 116.591 220.526 128.984 221.554C138.953 222.386 150.42 216.798 155.93 208.487C161.44 200.175 160.89 195.301 154.894 187.814C131.425 158.476 92.7851 156.122 59.5213 145.833C49.3961 142.701 30.3703 135.944 35.6056 121.918C40.519 108.749 82.1262 89.1118 95.3674 81.2241C98.2165 79.5289 106.536 75.0238 108.09 72.7556C109.488 70.715 111.591 62.8195 112.502 59.8999C117.705 43.1434 121.214 25.6414 121.928 8.09229C123.671 8.12368 124.534 10.7921 125.052 12.0322C127.273 17.3613 128.537 23.8755 130.586 29.2596C139.384 52.3418 151.338 71.6569 169.32 88.7037C169.681 89.6769 169.155 90.2027 168.669 90.9327C165.576 95.5397 156.518 101.002 152.131 105.013C151.15 105.907 144.18 112.414 145.083 113.261C156.181 110.444 169.171 111.762 179.359 117.052C180.191 117.484 185.63 120.835 185.889 121.126C186.321 121.62 186.015 123.245 184.727 122.672C184.194 122.436 183.55 121.236 182.687 120.788C179.155 118.928 177.271 118.638 173.331 119.548L173.449 121.385C184.162 133.762 195.504 145.785 204.052 159.85L207.081 161.129C202.081 145.715 203.039 125.709 207.466 110.106C208.149 107.713 209.012 103.741 210.998 102.266C210.857 120.89 212.976 138.847 219.271 156.397C220.032 158.523 225.189 171.23 226.311 171.316L228.485 149.176C231.099 121.903 260.941 83.1941 287.117 112.885L296.551 127.373C295.429 122.342 292.187 116.542 289.04 112.532C286.685 109.541 280.759 105.397 279.323 103.208C274.873 96.4344 265.831 68.0309 262.785 58.7305C260.799 52.6636 258.562 45.4587 257.11 39.2899C256.922 38.4815 255.87 36.8647 256.922 36.3388C273.358 57.9142 290.445 77.6531 312.328 93.9543C321.236 100.594 331.401 105.586 339.728 112.861C335.168 113.269 332.758 111.535 328.489 114.164C324.729 116.487 324.698 118.167 324.784 122.311C325.192 142.191 334.163 171.018 337.97 191.542C338.402 193.849 339.093 206.234 340.929 206.642L343.276 204.296L375.849 113.246C376.995 112.171 380.449 118.049 380.566 114.415C370.677 101.716 360.74 90.344 352.946 76.0991C342.931 57.7887 334.587 35.5147 337.389 14.3553C338.7 13.0054 338.59 14.0414 338.771 15.305C339.038 17.1651 338.677 19.5196 339.155 21.6151C343.841 42.0604 360.983 57.9535 377.497 69.6006C400.605 85.9018 428.272 97.1565 455.9 103.051C457.243 104.299 455.704 104.408 454.707 104.589C421.145 110.554 405.942 113.866 388.086 144.726C381.069 156.852 375.37 170.806 370.347 183.882C371.964 182.791 373.125 180.334 374.107 178.623C379.255 169.621 384.09 160.548 389.64 151.774C395.189 142.999 398.062 140.935 401.327 131.282C402.575 127.585 408.744 119.156 413.477 121.51L453.93 145.432C452.486 140.919 449.825 136.524 445.712 134.044L446.984 132.977L574.78 117.963L575.212 119.933C561.594 121.628 550.77 131.768 541.038 140.7C527.875 152.771 516.745 167.565 501.675 177.47C500.372 178.325 489.761 182.673 491.221 184.667C505.702 187.547 517.821 194.179 523.676 208.33C525.544 212.843 526.195 217.724 527.875 222.182C533.628 237.432 546.917 253.192 557.905 265.145C572.763 281.297 590.447 294.733 605.022 311.027L571.531 287.623C555.864 277.726 539.908 268.143 524.72 257.516C511.808 248.482 497.272 241.011 495.899 223.548C495.365 216.806 497.351 203.997 495.019 198.527C491.024 189.148 472.807 191.275 464.715 193.488C461.928 205.23 457.478 225.832 466.857 235.321C469.055 237.55 479.942 243.491 482.438 242C485.512 240.163 476.551 237.761 475.735 237.432C472.454 236.098 467.799 232.872 466.285 229.615C463.294 223.179 463.569 214.043 464.589 207.098C464.903 204.978 466.551 197.201 468.215 196.596C473.404 194.705 489.51 194.524 492.351 200.411C496.032 208.031 491.558 222.104 492.971 230.4C495.498 245.202 522.106 261.244 534.139 269.289C557.67 285.025 582.48 298.924 604.81 316.426C611.074 315.32 608.868 310.462 605.823 306.922C599.544 299.631 589.56 292.489 582.535 285.645C565.173 268.739 539.437 243.86 530.544 221.083C527.09 212.223 526.91 204.924 520.23 196.863C514.391 189.807 507.436 186.644 499.077 183.497C505.082 180.154 510.419 176.285 515.552 171.732C532.506 156.695 550.833 131.501 572.653 124.446C575.754 123.441 577.92 125.364 580.094 120.898C580.746 119.564 580.094 117.256 581.46 117.178C583.634 126.031 574.67 125.819 568.925 127.781C551.752 133.636 528.809 164.245 513.457 176.7C511.895 177.972 503.881 181.794 505.341 183.85L514.689 189.077C528.26 198.872 530.308 218.643 538.401 232.833C541.548 238.35 546.734 245.69 550.996 250.47C551.749 251.31 550.02 249.143 553.434 253.396L558.799 260.224C563.676 265.588 562.465 264.054 566.131 267.907C577.308 279.664 591.373 289.577 602.33 300.769C605.352 303.861 608.947 306.554 610.493 310.799V313.381V315.819C610.14 321.274 604.512 318.561 600.823 316.403C591.2 310.768 581.185 301.671 571.688 295.306C561.406 288.423 550.661 281.807 540.284 274.908C527.169 266.188 496.629 249.707 491.566 234.936C488.74 226.679 494.658 205.041 488.819 200.01C485.883 197.483 471.08 197.004 468.835 199.594C468.498 199.979 466.253 208.44 466.128 209.444C465.594 213.698 465.602 223.352 467.226 227.095C467.658 228.084 471.912 232.426 471.912 234.183C471.912 235.472 474.887 234.74 476.268 235.321C477.94 236.019 486.794 239.551 487.32 240.163C489.509 242.706 488.991 248.043 486.142 249.887C482.736 252.093 472.187 249.872 468.027 249.84C441.584 249.636 417.825 255.311 395.016 268.645C391.767 270.544 382.623 278.11 379.962 278.722C375.111 279.829 372.223 276.203 373.62 271.58C374.617 268.284 385.919 260.051 387.944 256.025L390.723 256.111C389.522 254.149 390.848 253.607 391.516 251.818L381.045 248.129C375.959 244.747 371.736 240.94 367.553 236.506C365.598 234.434 361.046 225.769 357.695 228.194C356.894 228.775 352.922 244.974 352.475 247.305C350.246 258.787 350.505 269.971 350.654 281.658C350.678 283.769 351.784 285.739 351.47 287.842C350.96 291.233 345.67 293.737 345.937 296.499C346.204 299.262 359.021 309.363 361.713 312.196C363.95 314.543 369.774 320.468 368.353 323.592C366.25 328.215 362.208 327.453 358.581 325.531C348.637 320.249 336.651 309.826 326.613 303.351C298.992 285.535 269.606 270.395 239.631 256.904C234.56 254.016 224.106 254.18 219.671 251.747C218.486 251.096 215.911 248.459 215.676 247.062C214.962 242.824 218.965 241.646 217.662 238.075C217.356 237.589 208.855 232.103 208.047 231.93C205.213 231.341 203.8 232.935 201.289 233.484C195.787 234.693 187.035 235.689 182.279 238.02C181.258 238.515 180.324 238.531 180.324 240.03C180.324 242.91 193.369 247.509 196.328 249.189C198.29 250.303 206.359 255.57 207.411 256.943C210.087 260.443 209.224 265.71 204.915 266.981C202.843 267.593 179.759 259.871 174.893 258.842C170.026 257.814 163.92 256.841 158.763 256.135C156.377 255.805 152.578 257.241 151.315 254.565C158.386 254.439 165.694 255.099 172.672 256.354C182.012 258.042 193.887 263.638 202.168 264.587C208.659 265.333 208.353 260.098 203.855 256.574C194.633 249.354 180.52 244.134 169.383 240.822C180.191 234.724 193.087 233.5 204.946 230.078L207.827 226.303C211.469 233.303 219.483 237.918 227.457 238.075C226.256 244.864 217.34 239.009 217.968 247.109C218.329 251.802 224.977 250.923 228.289 251.763C263.633 260.789 314.4 292.285 345.144 313.075C349.273 315.869 358.88 325.115 363.55 324.958C369.484 324.761 364.186 317.407 362.192 315.257C343.056 294.663 313.544 274.139 291.818 254.95C283.993 248.035 276.003 241.16 269.064 233.366C275.406 235.038 282.219 234.088 288.341 231.844C290.045 229.45 287.038 226.985 287.195 226.012C287.297 225.408 294.118 218.611 295.311 216.83C301.802 207.121 304.165 196.188 306.755 185.091C307.037 183.89 306.229 183.717 308.301 183.921C312.602 198.558 315.899 213.565 320.13 228.218C325.278 246.049 331.926 272.53 341.157 288.039C345.144 294.741 347.985 291.837 349.72 285.354C347.302 262.712 350.426 239.826 358.158 218.462C367.254 233.468 381.1 255.727 401.9 247.274C406.185 245.531 409.898 241.482 414.277 240.43C404.16 249.15 391.115 254.84 381.587 264.242C379.883 265.922 371.642 274.845 376.328 276.423C378.055 276.855 379.483 276.525 381.1 275.913C384.828 274.484 392.858 267.735 397.12 265.255C414.042 255.413 434.284 249.354 453.93 248.286C458.844 248.019 482.61 249.15 484.612 247.572C485.797 246.968 486.747 241.285 484.541 242C483.741 242.259 484.07 243.977 482.885 244.315C482.014 244.558 479.738 243.577 478.286 243.538C441.607 242.525 407.912 249.118 378.973 272.616C378.628 271.141 379.789 270.748 380.535 269.869C394.647 253.058 417.857 246.042 431.098 227.033C433.311 223.846 436.545 219.851 437.047 216.115C429.026 225.361 418.312 234.387 407.465 240.289C392.465 248.451 382.489 244.276 371.885 232.22C366.611 226.232 361.941 218.187 359.311 210.637H357.043C353.385 225.07 347.318 240.132 346.109 255.059C345.293 265.098 346.51 275.842 346.007 285.959C344.132 286.39 344.736 285.629 344.257 284.938C340.521 279.499 337.091 270.874 334.807 264.595C323.63 233.861 317.626 200.725 306.755 169.817L302.085 193.779C297.996 205.457 292.227 216.555 283.224 225.157L285.076 227.017L285.202 228.681C283.067 230.87 272 230.015 268.923 229.238L256.545 223.179C255.964 223.744 259.434 227.935 260.062 228.681C268.13 238.177 280.775 248.883 290.28 257.328C312.963 277.498 338.629 295.636 360.159 316.952C361.085 317.871 363.165 319.754 360.552 319.699C339.022 303.665 316.221 289.035 292.666 276.133C274.496 266.181 250.454 253.105 230.644 247.894C229.223 247.525 218.384 246.63 222.559 244.527C229.027 241.27 232.143 240.508 229.231 232.032C224.082 217.034 205.033 187.139 195.967 172.682C190.512 163.986 185.261 154.795 177.64 147.834L175.74 149.05C180.599 179.526 199.075 202.836 218.839 225.157C219.93 226.389 220.644 228.492 221.649 229.411C222.701 230.384 226.303 230.996 225.919 232.974C225.503 235.14 220.063 232.448 219.106 231.954C212.419 228.469 209.287 221.711 202.38 219.255L203.95 226.311C191.313 229.411 177.098 231.765 165.458 237.659C164.642 238.075 161.047 239.771 161.573 240.822C162.232 242.141 179.932 246.771 183.291 248.145C189.9 250.853 198.008 255.24 203.165 260.051C178.707 251.818 152.547 246.944 126.645 249.864C118.208 250.813 108.656 251.7 107.384 262.005C106.246 271.266 110.641 279.225 113.043 287.787C113.436 289.192 114.283 289.404 112.502 290.66C90.1243 263.732 77.566 226.02 45.1342 208.918C40.3934 206.423 29.7267 201.988 24.5935 201.988H7.7183V201.941ZM126.229 99.1264C125.288 98.0826 111.528 108.529 109.833 109.8C104.292 113.944 94.19 121.133 89.7397 125.811C89.2138 126.368 88.3897 126.714 88.5937 127.695C108.483 140.527 131.363 148.344 150.812 162.063L168.614 175.256L146.778 129.994C142.767 125.058 139.902 113.026 135.428 125.191C133.788 129.649 134 133.008 134.863 137.584C128.443 132.584 123.835 122.57 124.04 114.431C124.11 111.731 127.548 100.602 126.229 99.1343V99.1264ZM258.382 139.436C248.382 149.404 247.48 174.636 252.001 187.249C255.823 197.931 266.231 206.43 274.998 194.893C280.273 187.947 281.505 174.793 280.767 166.333C279.959 157.095 272.314 125.56 258.39 139.436H258.382ZM512.295 136.116C510.505 135.002 475.515 139.601 474.314 141.485L466.104 184.675C466.677 185.247 472.901 180.978 473.882 180.295C483.419 173.64 495.004 163.633 502.609 154.866C504.674 152.488 516.031 138.447 512.303 136.124L512.295 136.116ZM447.942 198.7C448.915 198.095 450.806 189.839 451.089 188.112C451.717 184.298 454.174 163.17 453.153 161.121C452.8 160.415 452.117 159.975 451.379 159.764C435.391 157.574 415.62 146.296 405.071 164.857C397.803 177.642 407.276 172.98 414.78 172.211C420.431 171.63 427.165 170.744 432.707 170.524C434.795 170.437 438.515 169.864 439.41 172.109C434.324 173.53 429.826 176.614 424.921 178.427C416.993 181.362 395.856 185.263 391.021 190.443C382.701 199.343 390.126 219.49 402.088 219.247C417.339 218.933 436.498 195.937 443.507 183.646C443.994 182.791 444.111 181.724 444.135 180.758C445.626 180.75 445.76 180.303 445.595 181.873C445.014 187.469 446.364 193.214 445.697 198.81C446.411 198.731 447.431 199.029 447.949 198.708L447.942 198.7ZM338.669 286.956C326.887 269.006 319.109 229.96 312.83 208.039C312.32 206.258 309.212 196.494 307.932 196.471L298.451 216.013C296.669 218.611 292.635 222.873 291.512 225.557C290.625 227.668 290.751 231.647 289.095 233.343C285.414 237.102 273.177 233.092 280.453 242.784C299.149 256.386 316.166 274.743 334.634 288.282C335.239 288.729 339.406 290.99 339.728 290.636C339.932 289.184 339.446 288.141 338.677 286.963L338.669 286.956Z" stroke="#EEFEFF" stroke-width="15" stroke-linejoin="round"/>
</g>
<path d="M7.91699 201.885C10.2795 193.778 21.064 187.397 28.701 184.603C43.3942 179.226 91.0686 175.263 102.913 185.772C103.282 186.102 104.208 186.926 103.274 186.981C93.8236 185.388 83.0078 184.485 73.4949 186.235C66.4622 187.53 69.3428 191.274 73.2672 194.225C83.8084 202.136 116.79 220.47 129.183 221.498C139.151 222.33 150.618 216.742 156.128 208.431C161.638 200.119 161.089 195.245 155.092 187.758C131.624 158.42 92.9838 156.066 59.72 145.776C49.5948 142.645 30.569 135.887 35.8043 121.862C40.7177 108.692 82.3249 89.0557 95.5661 81.168C98.4152 79.4727 106.735 74.9677 108.289 72.6995C109.686 70.6589 111.79 62.7633 112.7 59.8437C117.904 43.0873 121.413 25.5853 122.127 8.03613C123.869 8.06753 124.733 10.736 125.251 11.976C127.472 17.3051 128.736 23.8194 130.784 29.2034C139.583 52.2857 151.537 71.6007 169.519 88.6475C169.88 89.6207 169.354 90.1466 168.867 90.8765C165.775 95.4835 156.717 100.946 152.33 104.957C151.348 105.851 144.379 112.358 145.281 113.205C156.38 110.388 169.37 111.706 179.558 116.996C180.39 117.428 185.829 120.779 186.088 121.069C186.52 121.564 186.213 123.189 184.926 122.616C184.392 122.38 183.749 121.179 182.885 120.732C179.353 118.872 177.47 118.582 173.53 119.492L173.647 121.328C184.361 133.705 195.703 145.729 204.25 159.794L207.28 161.073C202.28 145.659 203.238 125.653 207.665 110.05C208.347 107.656 209.211 103.685 211.197 102.21C211.055 120.834 213.175 138.791 219.469 156.34C220.231 158.467 225.387 171.174 226.51 171.26L228.684 149.12C231.298 121.846 261.139 83.1379 287.316 112.829L296.75 127.317C295.628 122.286 292.386 116.486 289.239 112.475C286.884 109.485 280.958 105.341 279.522 103.151C275.071 96.3783 266.029 67.9747 262.984 58.6743C260.998 52.6075 258.761 45.4026 257.309 39.2337C257.121 38.4253 256.069 36.8085 257.121 36.2827C273.556 57.8581 290.644 77.5969 312.526 93.8982C321.435 100.538 331.599 105.53 339.927 112.805C335.367 113.213 332.957 111.479 328.687 114.108C324.928 116.431 324.896 118.111 324.983 122.255C325.391 142.135 334.362 170.962 338.169 191.486C338.601 193.793 339.291 206.178 341.128 206.586L343.475 204.239L376.048 113.19C377.194 112.114 380.647 117.993 380.765 114.359C370.875 101.66 360.939 90.2879 353.145 76.0429C343.129 57.7325 334.786 35.4586 337.588 14.2992C338.899 12.9492 338.789 13.9853 338.969 15.2489C339.236 17.1089 338.875 19.4635 339.354 21.559C344.04 42.0042 361.182 57.8973 377.696 69.5444C400.803 85.8456 428.471 97.1003 456.099 102.995C457.441 104.242 455.903 104.352 454.906 104.533C421.344 110.498 406.141 113.81 388.284 144.67C381.267 156.796 375.569 170.75 370.546 183.826C372.163 182.735 373.324 180.278 374.305 178.567C379.454 169.565 384.289 160.492 389.838 151.718C395.388 142.943 398.26 140.879 401.525 131.225C402.773 127.529 408.943 119.1 413.676 121.454L454.129 145.376C452.685 140.863 450.024 136.468 445.911 133.988L447.183 132.921L574.979 117.907L575.411 119.877C561.793 121.572 550.969 131.712 541.236 140.644C528.074 152.714 516.944 167.509 501.874 177.413C500.571 178.269 489.959 182.617 491.419 184.611C505.901 187.491 518.019 194.123 523.875 208.274C525.743 212.786 526.394 217.668 528.074 222.126C533.827 237.376 547.115 253.135 558.104 265.089C572.962 281.241 590.646 294.677 605.221 310.971L571.73 287.566C556.063 277.67 540.106 268.087 524.919 257.46C512.007 248.426 497.471 240.955 496.097 223.492C495.564 216.75 497.549 203.941 495.218 198.471C491.223 189.092 473.006 191.219 464.913 193.432C462.127 205.173 457.677 225.776 467.056 235.264C469.254 237.493 480.14 243.435 482.636 241.943C485.71 240.107 476.75 237.705 475.933 237.376C472.653 236.041 467.998 232.816 466.483 229.559C463.493 223.123 463.768 213.987 464.788 207.041C465.102 204.922 466.75 197.144 468.414 196.54C473.602 194.649 489.708 194.468 492.55 200.355C496.231 207.975 491.757 222.048 493.17 230.343C495.697 245.146 522.305 261.188 534.337 269.232C557.868 284.969 582.679 298.868 605.009 316.37C611.273 315.264 609.067 310.405 606.022 306.866C599.742 299.575 589.759 292.433 582.734 285.589C565.372 268.683 539.635 243.804 530.742 221.027C527.289 212.166 527.108 204.867 520.429 196.807C514.589 189.751 507.635 186.588 499.276 183.441C505.281 180.098 510.618 176.228 515.751 171.676C532.705 156.639 551.032 131.445 572.852 124.389C575.952 123.385 578.119 125.308 580.293 120.842C580.944 119.508 580.293 117.2 581.659 117.122C583.833 125.975 574.869 125.763 569.124 127.725C551.95 133.58 529.008 164.189 513.655 176.644C512.093 177.916 504.08 181.738 505.54 183.794L514.888 189.021C528.458 198.816 530.507 218.586 538.599 232.776C541.747 238.294 547.924 246.598 552.186 251.377C552.939 252.217 552.658 251.877 554.121 253.34L558.104 258.217C564.444 264.557 562.664 263.998 566.33 267.851C577.506 279.608 591.572 289.521 602.529 300.713C605.551 303.805 607.78 307.588 610.692 310.743V314.91L609.145 314.11C608.792 319.565 604.711 318.505 601.022 316.347C591.399 310.712 581.384 301.615 571.887 295.25C561.604 288.367 550.859 281.751 540.483 274.852C527.367 266.132 496.827 249.651 491.765 234.88C488.939 226.623 494.857 204.985 489.018 199.954C486.082 197.427 471.279 196.948 469.034 199.538C468.697 199.923 466.452 208.383 466.326 209.388C465.792 213.642 465.8 223.296 467.425 227.039C467.857 228.028 471.114 231.946 471.702 232.37C473.068 233.343 475.086 234.684 476.467 235.264C478.139 235.963 486.992 239.495 487.518 240.107C489.708 242.65 489.19 247.987 486.341 249.831C482.935 252.037 472.386 249.815 468.226 249.784C441.783 249.58 418.024 255.254 395.215 268.589C391.965 270.488 382.821 278.054 380.161 278.666C375.31 279.773 372.422 276.147 373.819 271.524C374.816 268.228 377.58 265.198 382.944 260.168L389.284 255.291C391.714 252.852 391.047 253.551 391.714 251.762L381.244 248.073C376.158 244.69 371.935 240.884 367.751 236.45C365.797 234.378 361.245 225.713 357.893 228.138C357.093 228.719 353.121 244.918 352.674 247.249C350.445 258.731 350.704 269.915 350.853 281.602C350.876 283.713 351.983 285.683 351.669 287.786C351.159 291.177 345.869 293.68 346.135 296.443C346.402 299.206 359.22 309.307 361.912 312.14C364.149 314.487 369.973 320.412 368.552 323.536C366.449 328.159 362.406 327.397 358.78 325.474C348.836 320.192 336.85 309.77 326.811 303.295C299.191 285.479 269.805 270.339 239.83 256.848C234.759 253.959 224.304 254.124 219.87 251.691C218.684 251.04 216.11 248.403 215.875 247.006C215.16 242.768 219.163 241.59 217.86 238.019C217.554 237.533 209.054 232.047 208.245 231.874C205.412 231.285 203.999 232.878 201.487 233.428C195.985 234.637 187.234 235.633 182.477 237.964C181.457 238.459 180.523 238.474 180.523 239.973C180.523 242.854 193.568 247.453 196.527 249.133C198.489 250.247 206.558 255.513 207.61 256.887C210.286 260.387 209.423 265.654 205.114 266.925C203.042 267.537 179.958 259.814 175.091 258.786C170.225 257.758 164.119 256.785 158.962 256.078C156.576 255.749 152.777 257.185 151.513 254.509C158.585 254.383 165.893 255.043 172.87 256.298C182.21 257.986 194.086 263.582 202.367 264.531C208.858 265.277 208.552 260.042 204.054 256.518C194.832 249.297 180.719 244.078 169.582 240.766C180.39 234.668 193.285 233.444 205.145 230.022L208.026 226.247C211.668 233.247 219.681 237.862 227.656 238.019C226.455 244.808 217.539 238.953 218.166 247.053C218.527 251.746 225.176 250.867 228.488 251.707C263.832 260.733 314.598 292.228 345.343 313.019C349.471 315.813 359.078 325.059 363.748 324.902C369.682 324.705 364.384 317.351 362.391 315.201C343.255 294.607 313.743 274.083 292.017 254.893C284.192 247.979 276.201 241.104 269.263 233.31C275.605 234.982 282.418 234.032 288.54 231.788C290.243 229.394 287.237 226.929 287.394 225.956C287.496 225.352 294.317 218.555 295.51 216.773C302.001 207.065 304.363 196.132 306.954 185.034C307.236 183.834 306.428 183.661 308.5 183.865C312.801 198.502 316.098 213.508 320.328 228.162C325.477 245.993 332.125 272.474 341.355 287.982C345.343 294.685 348.184 291.781 349.919 285.298C347.501 262.656 350.625 239.769 358.356 218.406C367.453 233.412 381.299 255.67 402.098 247.218C406.384 245.475 410.096 241.425 414.476 240.374C404.359 249.093 391.314 254.783 381.785 264.186C380.082 265.865 371.841 274.789 376.527 276.367C378.253 276.798 379.682 276.469 381.299 275.857C385.027 274.428 393.056 267.678 397.318 265.198C414.241 255.356 434.483 249.297 454.129 248.23C459.042 247.963 482.809 249.093 484.811 247.516C485.996 246.912 486.945 241.229 484.74 241.943C483.939 242.202 484.269 243.921 483.084 244.259C482.213 244.502 479.936 243.521 478.484 243.482C441.806 242.469 408.111 249.062 379.172 272.56C378.826 271.085 379.988 270.692 380.734 269.813C394.846 253.002 418.055 245.985 431.296 226.976C433.51 223.79 436.744 219.795 437.246 216.059C429.224 225.305 418.511 234.33 407.663 240.232C392.664 248.395 382.688 244.219 372.084 232.164C366.81 226.176 362.139 218.131 359.51 210.581H357.242C353.584 225.014 347.517 240.075 346.308 255.003C345.492 265.041 346.708 275.786 346.206 285.903C344.33 286.334 344.935 285.573 344.456 284.882C340.72 279.443 337.29 270.818 335.006 264.539C323.829 233.805 317.824 200.668 306.954 169.761L302.284 193.723C298.194 205.401 292.425 216.499 283.423 225.101L285.275 226.961L285.4 228.625C283.266 230.814 272.199 229.959 269.122 229.182L256.744 223.123C256.163 223.688 259.632 227.879 260.26 228.625C268.329 238.121 280.974 248.827 290.479 257.271C313.162 277.442 338.828 295.58 360.358 316.896C361.284 317.814 363.364 319.698 360.75 319.643C339.221 303.609 316.419 288.979 292.865 276.076C274.694 266.125 250.653 253.049 230.842 247.838C229.422 247.469 218.582 246.574 222.758 244.471C229.226 241.214 232.342 240.452 229.43 231.976C224.281 216.978 205.231 187.083 196.166 172.626C190.711 163.93 185.46 154.739 177.839 147.778L175.939 148.994C180.798 179.47 199.274 202.78 219.038 225.101C220.129 226.333 220.843 228.436 221.848 229.355C222.899 230.328 226.502 230.94 226.117 232.918C225.701 235.084 220.262 232.392 219.305 231.897C212.617 228.413 209.486 221.655 202.578 219.199L204.148 226.254C191.511 229.355 177.297 231.709 165.657 237.603C164.841 238.019 161.246 239.714 161.772 240.766C162.431 242.085 180.13 246.715 183.49 248.089C190.099 250.796 198.207 255.184 203.363 259.995C178.906 251.762 152.746 246.888 126.844 249.808C118.406 250.757 108.854 251.644 107.583 261.949C106.445 271.21 110.84 279.169 113.242 287.731C113.634 289.136 114.482 289.348 112.7 290.604C90.323 263.676 77.7647 225.964 45.3329 208.862C40.5921 206.366 29.9254 201.932 24.7922 201.932H7.91699V201.885ZM126.428 99.0703C125.486 98.0264 111.727 108.473 110.032 109.744C104.49 113.888 94.3887 121.077 89.9384 125.755C89.4125 126.312 88.5883 126.658 88.7924 127.639C108.682 140.471 131.561 148.288 151.011 162.007L168.812 175.2L146.977 129.938C142.966 125.002 140.101 112.97 135.627 125.135C133.987 129.593 134.199 132.952 135.062 137.528C128.641 132.528 124.034 122.514 124.238 114.375C124.309 111.675 127.747 100.546 126.428 99.0781V99.0703ZM258.581 139.38C248.581 149.347 247.678 174.58 252.199 187.193C256.022 197.874 266.43 206.374 275.197 194.837C280.471 187.891 281.704 174.737 280.966 166.277C280.157 157.039 272.512 125.504 258.588 139.38H258.581ZM512.494 136.06C510.704 134.946 475.714 139.545 474.513 141.428L466.303 184.618C466.876 185.191 473.1 180.922 474.081 180.239C483.617 173.583 495.203 163.577 502.808 154.81C504.872 152.432 516.23 138.391 512.502 136.068L512.494 136.06ZM448.14 198.644C449.114 198.039 451.005 189.783 451.288 188.056C451.916 184.242 454.372 163.114 453.352 161.065C452.999 160.359 452.316 159.919 451.578 159.707C435.59 157.518 415.818 146.239 405.269 164.801C398.001 177.586 407.475 172.924 414.979 172.155C420.63 171.574 427.364 170.687 432.905 170.468C434.993 170.381 438.714 169.808 439.608 172.053C434.522 173.474 430.025 176.558 425.119 178.371C417.192 181.306 396.055 185.207 391.22 190.387C382.9 199.287 390.325 219.434 402.287 219.191C417.537 218.877 436.697 195.881 443.706 183.59C444.192 182.735 444.31 181.667 444.334 180.702C445.825 180.694 445.958 180.247 445.793 181.816C445.213 187.412 446.563 193.157 445.895 198.753C446.61 198.675 447.63 198.973 448.148 198.651L448.14 198.644ZM338.867 286.899C327.086 268.95 319.308 229.904 313.029 207.983C312.518 206.202 309.41 196.438 308.131 196.415L298.649 215.957C296.868 218.555 292.833 222.817 291.711 225.501C290.824 227.612 290.95 231.591 289.293 233.287C285.612 237.046 273.376 233.035 280.652 242.728C299.348 256.33 316.364 274.687 334.833 288.226C335.437 288.673 339.605 290.933 339.927 290.58C340.131 289.128 339.644 288.084 338.875 286.907L338.867 286.899Z" fill="url(#paint0_linear_242_334)"/>
<defs>
<filter id="filter0_n_242_334" x="0.20459" y="0.592285" width="617.789" height="333.944" filterUnits="userSpaceOnUse" color-interpolation-filters="sRGB">
<feFlood flood-opacity="0" result="BackgroundImageFix"/>
<feBlend mode="normal" in="SourceGraphic" in2="BackgroundImageFix" result="shape"/>
<feTurbulence type="fractalNoise" baseFrequency="5 5" stitchTiles="stitch" numOctaves="3" result="noise" seed="3632" />
<feColorMatrix in="noise" type="luminanceToAlpha" result="alphaNoise" />
<feComponentTransfer in="alphaNoise" result="coloredNoise1">
<feFuncA type="discrete" tableValues="1 1 1 1 1 1 1 1 1 1 1 1 1 1 1 1 1 1 1 1 1 1 1 1 1 1 1 1 1 1 1 1 1 1 1 1 1 1 1 1 1 1 1 1 1 1 1 1 1 1 1 0 0 0 0 0 0 0 0 0 0 0 0 0 0 0 0 0 0 0 0 0 0 0 0 0 0 0 0 0 0 0 0 0 0 0 0 0 0 0 0 0 0 0 0 0 0 0 0 0 "/>
</feComponentTransfer>
<feComposite operator="in" in2="shape" in="coloredNoise1" result="noise1Clipped" />
<feFlood flood-color="rgba(0, 0, 0, 0.25)" result="color1Flood" />
<feComposite operator="in" in2="noise1Clipped" in="color1Flood" result="color1" />
<feMerge result="effect1_noise_242_334">
<feMergeNode in="shape" />
<feMergeNode in="color1" />
</feMerge>
</filter>
<linearGradient id="paint0_linear_242_334" x1="47.2856" y1="100.922" x2="564.071" y2="233.449" gradientUnits="userSpaceOnUse">
<stop stop-color="#63C994"/>
<stop offset="0.288462" stop-color="#A4C963"/>
<stop offset="0.66518" stop-color="#249259"/>
<stop offset="1" stop-color="#6DEEAB"/>
</linearGradient>
</defs>
</svg>
